<svg fill="none" height="33" viewBox="0 0 83 33" width="83" xmlns="http://www.w3.org/2000/svg"><g fill="#000" opacity=".4"><path d="m14.6543 28.6185s-.3921 1.1685-2.757 1.4205c-2.36495.2523-3.37386-.252-3.37386-.252s1.57666-1.2291 3.09016-1.2926c1.5135-.063 3.0407.1241 3.0407.1241z"/><path d="m14.6521 28.6186s.178-1.2224-1.7805-2.5716c-1.9589-1.3488-3.08644-1.3864-3.08644-1.3864s.64714 1.6657 2.22344 2.6408c1.2881.7968 2.6435 1.3172 2.6435 1.3172z"/><path d="m11.8484 27.7532s-1.206-.5442-3.02704-.5442c-1.82109 0-3.19245.9462-3.19245.9462s1.34783.5435 3.28723.5435c1.93906.0003 2.93226-.9455 2.93226-.9455z"/><path d="m9.61889 26.5945s-.09785-1.3195-.96697-2.9193c-.86912-1.6005-2.35504-2.354-2.35504-2.354s.16536 1.444 1.09108 3.1481c.92572 1.7038 2.23093 2.1252 2.23093 2.1252z"/><path d="m8.71074 26.4299s-1.04505-.8115-2.81534-1.2377c-1.77029-.4265-3.32509.1719-3.32509.1719s1.18315.8449 3.06868 1.299c1.88485.4539 3.07175-.2332 3.07175-.2332z"/><path d="m7.1425 25.023s-.65056-1.1518-2.11875-2.2292c-1.4682-1.0775-3.13313-1.1266-3.13313-1.1266s.76513 1.236 2.32811 2.3837c1.56332 1.1474 2.92377.9721 2.92377.9721z"/><path d="m5.58948 22.6541s.44052-1.1794.32528-2.9078c-.11491-1.7287-1.09927-2.9712-1.09927-2.9712s-.43166 1.3141-.30926 3.1553c.12275 1.8402 1.08325 2.7237 1.08325 2.7237z"/><path d="m4.35082 21.5367s-.4528-1.0495-1.61446-2.1099c-1.16201-1.0608-2.587922-1.2561-2.587922-1.2561s.543156 1.1323 1.780512 2.2616c1.23702 1.1292 2.42187 1.1044 2.42187 1.1044z"/><path d="m3.65309 19.2107s-.05592-1.1419-.77194-2.5426c-.71603-1.4007-1.982712-2.084-1.982712-2.084s.111832 1.2507.874232 2.7424c.7624 1.492 1.88042 1.8842 1.88042 1.8842z"/><path d="m3.16355 15.8038s.0982-1.1388-.42279-2.6231c-.52134-1.4845-1.68437-2.3318-1.68437-2.3318s-.057621 1.2544.49713 2.8348c.55475 1.5813 1.61003 2.1201 1.61003 2.1201z"/><path d="m3.63449 13.5589s.5227-1.0164.60351-2.5876c.0808-1.57117-.67443-2.79625-.67443-2.79625s-.52918 1.13848-.61544 2.81155c-.08627 1.6735.68636 2.5723.68636 2.5723z"/><path d="m4.92106 10.8574s.6809-.91789 1.01607-2.45496c.33483-1.53706-.21106-2.86887-.21106-2.86887s-.7075 1.03755-1.06415 2.67452c-.35665 1.63698.25914 2.64931.25914 2.64931z"/><path d="m3.71113 17.7455s.85139-.7624 1.48763-2.2013c.63624-1.4388.36858-2.8532.36858-2.8532s-.90117.875-1.57866 2.4069c-.67784 1.5323-.27755 2.6476-.27755 2.6476z"/><path d="m4.65234 12.6028s1.08802-.3502 2.25514-1.4051c1.16678-1.055 1.49786-2.45563 1.49786-2.45563s-1.17906.43234-2.42153 1.55583c-1.24316 1.1235-1.33147 2.3049-1.33147 2.3049z"/><path d="m6.25892 9.45532s1.02971-.49713 2.03999-1.70209c1.01062-1.20565 1.14564-2.63873 1.14564-2.63873s-1.10813.59021-2.18456 1.87428c-1.07574 1.28374-1.00107 2.46654-1.00107 2.46654z"/><path d="m14.8142 29.358c0 1.5824-2.6033 3.3043-2.6033 2.4635s2.6033-1.9026 2.6033-2.4635z"/><path d="m68 29.3582c0 1.5824 2.6033 3.3042 2.6033 2.4634s-2.6033-1.9026-2.6033-2.4634z"/><path d="m68.1641 28.6185s.3921 1.1685 2.757 1.4205c2.3649.2523 3.3738-.252 3.3738-.252s-1.5766-1.2291-3.0901-1.2926c-1.5136-.063-3.0407.1241-3.0407.1241z"/><path d="m68.1644 28.6186s-.178-1.2224 1.7805-2.5716c1.9588-1.3488 3.0864-1.3864 3.0864-1.3864s-.6468 1.6657-2.2234 2.6408c-1.2885.7968-2.6435 1.3172-2.6435 1.3172z"/><path d="m70.9688 27.7532s1.2063-.5442 3.0267-.5442c1.8214 0 3.1931.9462 3.1931.9462s-1.3481.5435-3.2876.5435c-1.939.0003-2.9322-.9455-2.9322-.9455z"/><path d="m73.1992 26.5945s.0979-1.3195.9667-2.9193c.8691-1.6005 2.355-2.354 2.355-2.354s-.1654 1.444-1.0904 3.1481c-.9261 1.7038-2.2313 2.1252-2.2313 2.1252z"/><path d="m74.1055 26.4299s1.0447-.8115 2.8153-1.2377c1.7703-.4265 3.3251.1719 3.3251.1719s-1.1831.8449-3.0683 1.299c-1.8852.4539-3.0721-.2332-3.0721-.2332z"/><path d="m75.6758 25.0231s.6509-1.1517 2.1187-2.2292c1.4686-1.0774 3.1335-1.1265 3.1335-1.1265s-.7648 1.236-2.3281 2.3836c-1.5633 1.1474-2.9241.9721-2.9241.9721z"/><path d="m77.2315 22.6541s-.4406-1.1794-.3257-2.9078c.1153-1.7287 1.0996-2.9712 1.0996-2.9712s.4317 1.3141.309 3.1553c-.1224 1.8402-1.0829 2.7237-1.0829 2.7237z"/><path d="m78.4648 21.5367s.4528-1.0495 1.6145-2.1099c1.162-1.0608 2.5883-1.2561 2.5883-1.2561s-.5439 1.1323-1.7809 2.2616c-1.2373 1.1292-2.4219 1.1044-2.4219 1.1044z"/><path d="m79.1641 19.2107s.0555-1.1419.7719-2.5426 1.9827-2.084 1.9827-2.084-.1115 1.2507-.8739 2.7424c-.7624 1.492-1.8807 1.8842-1.8807 1.8842z"/><path d="m79.6559 15.8037s-.0986-1.1389.4224-2.6231c.521-1.4845 1.6844-2.3318 1.6844-2.3318s.0579 1.2544-.4975 2.8347c-.5544 1.5814-1.6093 2.1202-1.6093 2.1202z"/><path d="m79.1841 13.5588s-.5227-1.0165-.6039-2.5876c-.0804-1.57119.6745-2.79627.6745-2.79627s.5295 1.13848.6157 2.81157c.086 1.6735-.6863 2.5723-.6863 2.5723z"/><path d="m77.894 10.8573s-.6809-.91791-1.0158-2.45498c-.3348-1.53707.2108-2.86887.2108-2.86887s.7071 1.03755 1.0641 2.67452c.3573 1.63697-.2591 2.64933-.2591 2.64933z"/><path d="m79.1081 17.7455s-.8521-.7624-1.4883-2.2013c-.6363-1.4388-.3686-2.8532-.3686-2.8532s.9012.875 1.579 2.4069c.6775 1.5323.2779 2.6476.2779 2.6476z"/><path d="m78.1671 12.6027s-1.0881-.3502-2.2548-1.4051c-1.1675-1.055-1.4982-2.45566-1.4982-2.45566s1.1787.43235 2.4218 1.55586c1.2425 1.1234 1.3312 2.3049 1.3312 2.3049z"/><path d="m76.5567 9.45532s-1.0293-.49713-2.0396-1.70209c-1.0106-1.20565-1.146-2.63873-1.146-2.63873s1.1088.59021 2.1849 1.87428c1.0761 1.28374 1.0007 2.46654 1.0007 2.46654z"/><g clip-rule="evenodd" fill-rule="evenodd"><path d="m32.1989 10.2289h-15.3434v15.3434h15.3434zm-8.349 10.1616h-.4105v-1.5276h.4105c.471 0 .8084.0605 1.012.1814.2037.121.3055.3151.3055.5824s-.1018.4614-.3055.5824c-.2036.1209-.541.1814-1.012.1814zm-.0668-2.9214h-.3437v-1.3939h.3437c.5856 0 .8783.2323.8783.6969 0 .4647-.2927.697-.8783.697zm.5728-2.8259h-2.7877v7.1984h3.0073c.3819 0 .7256-.0446 1.0311-.1337s.5633-.2227.7733-.4009c.2164-.1782.3819-.3978.4964-.6588.121-.2609.1814-.5601.1814-.8974 0-.2164-.0254-.4201-.0763-.611-.051-.1909-.1369-.3628-.2578-.5155-.1146-.1528-.2673-.2801-.4583-.3819-.1845-.1082-.4105-.1878-.6778-.2387.2673-.1655.4646-.366.5919-.6015.1337-.2418.2005-.5441.2005-.9069 0-.5983-.1718-1.0566-.5155-1.3748s-.8465-.4773-1.5085-.4773z"/><path d="m49.2457 10.2289h-15.3434v15.3434h15.3434zm-8.3508 10.1615h-.4105v-1.5275h.4105c.471 0 .8083.0605 1.012.1814.2036.1209.3055.3151.3055.5824s-.1019.4614-.3055.5823c-.2037.121-.541.1814-1.012.1814zm-.0669-2.9213h-.3436v-1.3939h.3436c.5856 0 .8784.2323.8784.6969s-.2928.697-.8784.697zm.5729-2.826h-2.7878v7.1985h3.0073c.3819 0 .7256-.0446 1.0311-.1337s.5633-.2227.7733-.4009c.2164-.1783.3819-.3978.4965-.6588.1209-.2609.1814-.5601.1814-.8974 0-.2164-.0255-.4201-.0764-.611-.0509-.191-.1368-.3628-.2578-.5156-.1145-.1527-.2673-.28-.4582-.3818-.1846-.1082-.4106-.1878-.6779-.2387.2673-.1655.4647-.366.5919-.6015.1337-.2418.2005-.5442.2005-.9069 0-.5983-.1718-1.0566-.5155-1.3748s-.8465-.4774-1.5084-.4774z"/><path d="m66.2965 10.2289h-15.3434v15.3434h15.3434zm-6.5752 6.0276c.6365 0 1.1711.2642 1.6039.7924v-2.234c-.3055-.1273-.5982-.2195-.8783-.2768-.2737-.0637-.5537-.0955-.8401-.0955-.5028 0-.9834.0955-1.4416.2864-.4583.1846-.8624.4455-1.2125.7829-.3437.3309-.6205.7287-.8306 1.1933-.2036.4583-.3055.9643-.3055 1.518s.105 1.0661.3151 1.5371c.21.4646.4869.8688.8306 1.2125.35.3373.751.6014 1.2029.7924.4582.1845.9356.2768 1.432.2768.2419 0 .4869-.0254.7352-.0764.2482-.0445.5155-.1177.8019-.2195l.1909-.0669v-2.2149c-.4773.5092-1.0151.7638-1.6134.7638-.2737 0-.5283-.0509-.7638-.1528-.2355-.1018-.4423-.2418-.6205-.42-.1719-.1782-.3087-.3883-.4105-.6301-.0955-.2419-.1432-.506-.1432-.7924 0-.2801.0477-.541.1432-.7829.1018-.2418.2386-.4487.4105-.6205.1718-.1783.3755-.3183.611-.4201.2418-.1018.5028-.1528.7828-.1528z"/></g><path d="m32.2341 5.52762c.1064 0 .2025-.02046.2884-.06137.086-.04092.1596-.09411.221-.15957.0614-.06956.1084-.14935.1411-.23936.0369-.09411.0553-.1923.0553-.29459s-.0184-.19844-.0553-.28846c-.0327-.09001-.0797-.1698-.1411-.23936-.0614-.06955-.135-.12479-.221-.1657-.0859-.04092-.182-.06138-.2884-.06138s-.2025.02046-.2885.06138c-.0859.04091-.1595.09615-.2209.1657-.0614.06956-.1105.14935-.1473.23936-.0327.09002-.0491.18617-.0491.28846s.0164.20048.0491.29459c.0368.09001.0859.1698.1473.23936.0614.06546.135.11865.2209.15957.086.04091.1821.06137.2885.06137zm1.6448-2.234v2.95821h-.939v-.41734c-.0368.06956-.0859.13502-.1473.1964-.0614.05728-.133.10842-.2148.15343-.0778.04092-.1637.07365-.2578.0982-.0941.02864-.1882.04296-.2823.04296-.2128 0-.4092-.03887-.5892-.11661-.1759-.08183-.3273-.19026-.4542-.32528-.1268-.13911-.225-.30278-.2946-.49099-.0695-.1923-.1043-.39893-.1043-.61987 0-.22095.0348-.42553.1043-.61374.0696-.1923.1678-.35597.2946-.49099.1269-.13911.2783-.24754.4542-.32528.18-.08183.3764-.12275.5892-.12275.0941 0 .1882.01433.2823.04297.0941.02455.18.05932.2578.10433.0818.04501.1534.0982.2148.15957.0614.06138.1105.1248.1473.19026v-.42348zm2.2932 1.2152c.1309.03682.2536.07774.3682.12275.1146.04091.2148.0941.3007.15957.0859.06137.1535.13911.2026.23322.0531.09411.0797.21276.0797.35597 0 .17593-.0347.32528-.1043.44802-.0695.11866-.1657.21686-.2884.2946-.1228.07364-.266.12684-.4297.15957-.1595.03273-.3314.0491-.5155.0491-.4214 0-.7549-.09206-1.0004-.27618-.2414-.18413-.3621-.44803-.3621-.79172h.9206c0 .15548.043.26799.1289.33755.09.06547.2046.0982.3437.0982.1145 0 .2066-.02046.2762-.06138.0736-.045.1104-.1166.1104-.2148 0-.05728-.0163-.10229-.0491-.13502-.0286-.03683-.0757-.06956-.1411-.0982-.0614-.03274-.1432-.06342-.2455-.09206-.0982-.03274-.2169-.07161-.356-.11661-.1227-.03683-.2393-.0757-.3498-.11661-.1105-.04501-.2087-.0982-.2946-.15957-.0818-.06138-.1473-.13912-.1964-.23322-.0491-.09411-.0736-.21277-.0736-.35597 0-.30687.1166-.53395.3498-.68125.2373-.14729.5564-.22094.9574-.22094.2128 0 .3989.02659.5585.07978.1637.0491.2966.11866.3989.20867.1064.09002.1862.1964.2394.31915.0532.12274.0798.25367.0798.39279h-.9268c0-.12275-.0327-.21686-.0982-.28232-.0613-.06956-.1575-.10434-.2884-.10434-.0941 0-.176.02251-.2455.06751-.0696.04092-.1043.10639-.1043.1964 0 .05319.0163.0982.0491.13502.0327.03273.0797.06342.1411.09206.0655.02864.1453.05728.2394.08593.0941.02864.2025.06341.3253.10433zm4.5089 0c.131.03682.2537.07774.3683.12275.1145.04091.2148.0941.3007.15957.0859.06137.1534.13911.2025.23322.0532.09411.0798.21276.0798.35597 0 .17593-.0348.32528-.1043.44802-.0696.11866-.1657.21686-.2885.2946-.1227.07364-.2659.12684-.4296.15957-.1596.03273-.3314.0491-.5155.0491-.4215 0-.7549-.09206-1.0004-.27618-.2414-.18413-.3621-.44803-.3621-.79172h.9206c0 .15548.0429.26799.1289.33755.09.06547.2045.0982.3437.0982.1145 0 .2066-.02046.2761-.06138.0737-.045.1105-.1166.1105-.2148 0-.05728-.0164-.10229-.0491-.13502-.0286-.03683-.0757-.06956-.1411-.0982-.0614-.03274-.1433-.06342-.2455-.09206-.0982-.03274-.2169-.07161-.356-.11661-.1228-.03683-.2394-.0757-.3498-.11661-.1105-.04501-.2087-.0982-.2946-.15957-.0819-.06138-.1473-.13912-.1964-.23322-.0491-.09411-.0737-.21277-.0737-.35597 0-.30687.1166-.53395.3499-.68125.2373-.14729.5564-.22094.9574-.22094.2127 0 .3989.02659.5585.07978.1636.0491.2966.11866.3989.20867.1064.09002.1862.1964.2394.31915.0532.12274.0798.25367.0798.39279h-.9268c0-.12275-.0327-.21686-.0982-.28232-.0614-.06956-.1575-.10434-.2884-.10434-.0942 0-.176.02251-.2455.06751-.0696.04092-.1044.10639-.1044.1964 0 .05319.0164.0982.0491.13502.0328.03273.0798.06342.1412.09206.0654.02864.1452.05728.2393.08593.0941.02864.2026.06341.3253.10433zm2.2625.49099c.0041.09001.0164.17594.0368.25777.0246.07774.0614.1473.1105.20867.0532.05728.1207.10433.2025.14116.0819.03273.1841.0491.3069.0491.1636 0 .2864-.03274.3682-.0982.086-.06547.1453-.14525.178-.23936h.9206c-.0204.13912-.0695.27005-.1473.39279-.0736.12275-.1739.23118-.3007.32528-.1228.09002-.2701.16162-.4419.21481-.1678.05319-.358.07979-.5708.07979-.2577 0-.4869-.03683-.6874-.11048-.1964-.07774-.3621-.18616-.4971-.32528-.135-.13911-.2373-.30277-.3069-.49098-.0695-.19231-.1043-.40302-.1043-.63215 0-.21686.0327-.41939.0982-.6076.0696-.18821.1698-.35188.3007-.49099.1351-.14321.2987-.25572.491-.33756.1964-.08183.4235-.12274.6813-.12274.2332 0 .4419.03682.626.11047.1882.07365.3478.17185.4787.29459.135.12275.2373.26596.3069.42962.0736.16366.1104.33551.1104.51554 0 .06137-.002.12684-.0061.19639 0 .06956-.0082.14934-.0245.23936zm.6321-1.15996c-.1841 0-.3355.05319-.4541.15957-.1187.10638-.178.25981-.178.4603h1.2397c0-.1923-.0572-.34369-.1718-.45416-.1105-.11048-.2557-.16571-.4358-.16571zm2.854 1.15996c.0041.09001.0164.17594.0369.25777.0245.07774.0613.1473.1104.20867.0532.05728.1207.10433.2026.14116.0818.03273.1841.0491.3068.0491.1637 0 .2864-.03274.3683-.0982.0859-.06547.1452-.14525.178-.23936h.9206c-.0205.13912-.0696.27005-.1473.39279-.0737.12275-.1739.23118-.3008.32528-.1227.09002-.27.16162-.4418.21481-.1678.05319-.3581.07979-.5708.07979-.2578 0-.4869-.03683-.6874-.11048-.1964-.07774-.3621-.18616-.4971-.32528-.1351-.13911-.2373-.30277-.3069-.49098-.0696-.19231-.1043-.40302-.1043-.63215 0-.21686.0327-.41939.0982-.6076.0695-.18821.1698-.35188.3007-.49099.135-.14321.2987-.25572.491-.33756.1964-.08183.4235-.12274.6812-.12274.2332 0 .4419.03682.626.11047.1883.07365.3478.17185.4788.29459.135.12275.2373.26596.3068.42962.0737.16366.1105.33551.1105.51554 0 .06137-.0021.12684-.0061.19639 0 .06956-.0082.14934-.0246.23936zm.6322-1.15996c-.1841 0-.3355.05319-.4542.15957-.1186.10638-.178.25981-.178.4603h1.2398c0-.1923-.0573-.34369-.1719-.45416-.1104-.11048-.2557-.16571-.4357-.16571zm2.1114-.54623h.939v.42962c.0818-.15957.2046-.28232.3682-.36824.1678-.09002.3683-.13503.6015-.13503.1923 0 .358.03069.4971.09206.1391.05729.2496.13912.3314.2455.0941.11456.1555.24754.1842.39893.0327.14729.0491.32732.0491.54009v1.75528h-.9391v-1.51593c0-.21276-.0388-.38461-.1166-.51554-.0736-.13502-.2086-.20253-.405-.20253-.1923 0-.3355.06751-.4296.20253-.0942.13503-.1412.3171-.1412.54623v1.48524h-.939z"/></g></svg>