<svg fill="none" height="64" viewBox="0 0 65 64" width="65" xmlns="http://www.w3.org/2000/svg" xmlns:xlink="http://www.w3.org/1999/xlink"><linearGradient id="a" gradientUnits="userSpaceOnUse" x1="54.3733" x2="46.9012" y1="64.5989" y2="13.4907"><stop offset=".148272" stop-color="#11998e"/><stop offset="1" stop-color="#7cdf7b"/><stop offset="1" stop-color="#38ef7d"/></linearGradient><path clip-rule="evenodd" d="m29.789.0640729c-2.8953.2774881-5.0161.6925321-7.3466 1.4375071-7.3351 2.34507-13.41896 7.07977-17.52859 13.64172l-.65611 1.0475-.00313-2.5658c-.00288-2.421-.0189-2.5942-.28324-3.0666-.32781-.58598-1.1589-1.06385-1.85043-1.06385-.70379 0-1.495957.48476-1.832648 1.12145l-.288252.5451.00200262 5.5813c.00212779 5.5547.00350461 5.5838.28362138 6.0783.371486.656.956876 1.0333 1.754546 1.1308.35797.0438 2.82357.0616 5.47905.0395l4.82818-.04.5323-.3525c.5788-.3831 1.008-1.1391 1.008-1.7753 0-.6361-.4292-1.3922-1.0078-1.7753-.5321-.3522-.5337-.3525-3.01386-.395-1.36478-.0236-2.48062-.0799-2.47962-.1252.00363-.1691 1.01558-1.9345 1.68008-2.9312 1.4348-2.1518 3.614-4.5495 5.5777-6.1368 11.0366-8.9217 27.024-8.09599 37.051 1.9136 4.0952 4.0881 6.7451 9.1896 7.7692 14.9571.3805 2.1436.466 5.8336.1858 8.034-1.5008 11.7916-10.1704 21.2519-21.7701 23.7559-2.1338.4606-3.9343.605-6.6296.5316-4.3115-.1173-7.7357-.9797-11.6435-2.9324-4.5152-2.2562-8.5026-5.9364-11.17246-10.3116-2.49426-4.0876-4.0538-9.4775-4.0538-14.0104 0-1.1032-.35772-1.8092-1.12147-2.213-1.06327-.5622-2.294382-.1985-2.858746.8449-.291131.5379-.298766.6193-.228424 2.434.590398 15.2473 11.9976 27.8857 27.3014 30.2483 2.3184.3578 6.6309.3876 8.8866.0613 7.0907-1.026 13.386-4.1497 18.3335-9.0973 5.039-5.0388 8.1098-11.3087 9.1631-18.709.2117-1.4868.2082-6.404-.0055-7.9479-1.4202-10.2591-7.165-18.8269-16.0148-23.88477-4.7663-2.72394-10.473-4.1992514-15.9822-4.13178804-.8949.01088924-1.8243.03880084-2.0652.06183094zm.1743 29.8430271h3.0927c1.1348 0 2.0135.1176 2.6362.3529.6227.2214.934.7541.934 1.5982 0 .5812-.2075 1.0517-.6227 1.4115-.4151.3598-.9548.5397-1.619.5397h-3.674v.3529c0 1.3976-.3182 2.6845-.9548 3.8607-.6227 1.1624-1.7159 2.6223-3.2796 4.3797.4567-.1107.9064-.2145 1.3492-.3113.4567-.0969.9618-.1799 1.5153-.2491.5673-.083 1.1831-.1246 1.8473-.1246.9272 0 2.221.1107 3.8816.3322 1.6605.2075 2.7606.3113 3.3003.3113.7888 0 1.6329-.1384 2.5323-.4151.9133-.2906 1.4876-.4359 1.7229-.4359.6227 0 1.1762.2491 1.6605.7472.4843.4982.7265 1.0863.7265 1.7644 0 1.1485-.6504 2.0341-1.9512 2.6568-1.2869.6089-2.6638.9133-4.1306.9133-.8994 0-3.4525-.4843-7.6592-1.4529-.1107-.0277-.2976-.0831-.5605-.1661s-.5881-.1522-.9755-.2076c-.3875-.0553-.8511-.083-1.3908-.083-.5811 0-1.0931.083-1.536.2491-.4428.166-1.2108.4705-2.304.9133-1.0793.4428-1.8127.6642-2.2002.6642-.5258 0-1.0448-.2352-1.5568-.7057-.4981-.4844-.7472-1.114-.7472-1.8889 0-.2906.0899-.595.2698-.9133s.4636-.6781.8511-1.0794c.3874-.4151.9686-.9548 1.7435-1.619.7058-.595 1.2939-1.4253 1.7644-2.4908.4843-1.0794.7265-2.138.7265-3.1758 0-.3598-.0692-.9687-.2076-1.8266h-1.7436c-1.024 0-1.7989-.1246-2.3247-.3736-.512-.2491-.768-.7473-.768-1.4945 0-1.3561.8787-2.0342 2.6361-2.0342h1.2246c-.678-2.1587-1.0171-3.8608-1.0171-5.1062 0-1.702.4013-3.2173 1.2039-4.5457.8026-1.3285 1.9512-2.3663 3.4457-3.1135 1.4945-.7611 3.2034-1.1417 5.1269-1.1417 1.7021 0 3.162.2145 4.3797.6435 1.2177.4151 2.2971 1.107 3.2381 2.0757 1.6052 1.6744 2.4078 3.4594 2.4078 5.3552 0 .6781-.263 1.28-.7888 1.8059-.5258.5258-1.1693.7887-1.9304.7887-1.3423 0-2.2348-.7472-2.6776-2.2417-.4013-1.4391-.9548-2.4977-1.6606-3.1758-.6919-.6919-1.6259-1.0378-2.8021-1.0378-1.2731 0-2.304.4151-3.0928 1.2454-.7749.8164-1.1624 1.875-1.1624 3.1758 0 .7887.083 1.5291.2491 2.221.166.678.4566 1.6951.8718 3.0512zm18.5527 18.3519c0 .5523.4477 1 1 1h.227c.5523 0 1-.4477 1-1v-1.584h1.516c.5523 0 1-.4477 1-1v-.091c0-.5523-.4477-1-1-1h-1.516v-1.584c0-.5523-.4477-1-1-1h-.227c-.5523 0-1 .4477-1 1v1.584h-1.516c-.5523 0-1 .4477-1 1v.091c0 .5523.4477 1 1 1h1.516zm-36.4531-12c-.324 0-.5867-.2627-.5867-.5867v-.9294h-.8895c-.324 0-.5867-.2627-.5867-.5867v-.0534c0-.324.2627-.5867.5867-.5867h.8895v-.9294c0-.324.2627-.5867.5867-.5867h.1332c.324 0 .5867.2627.5867.5867v.9294h.8895c.324 0 .5867.2627.5867.5867v.0534c0 .324-.2627.5867-.5867.5867h-.8895v.9294c0 .324-.2627.5867-.5867.5867zm31.4133-20.5867c0 .324.2627.5867.5867.5867h.1332c.324 0 .5867-.2627.5867-.5867v-.9294h.8895c.324 0 .5867-.2627.5867-.5867v-.0534c0-.324-.2627-.5867-.5867-.5867h-.8895v-.9294c0-.324-.2627-.5867-.5867-.5867h-.1332c-.324 0-.5867.2627-.5867.5867v.9294h-.8895c-.324 0-.5867.2627-.5867.5867v.0534c0 .324.2627.5867.5867.5867h.8895z" fill="url(#a)" fill-rule="evenodd"/></svg>