<svg fill="none" height="65" viewBox="0 0 63 65" width="63" xmlns="http://www.w3.org/2000/svg" xmlns:xlink="http://www.w3.org/1999/xlink"><linearGradient id="a"><stop offset="0" stop-color="#dd303c"/><stop offset="1" stop-color="#ff6771"/></linearGradient><linearGradient id="b" gradientUnits="userSpaceOnUse" x1=".766956" x2="6.35478" xlink:href="#a" y1="13.4218" y2="20.1601"/><linearGradient id="c" gradientUnits="userSpaceOnUse" x1="56.207" x2="61.7948" xlink:href="#a" y1=".821739" y2="7.56"/><linearGradient id="d" gradientUnits="userSpaceOnUse" x1="52.1804" x2="60.5622" xlink:href="#a" y1="54.1525" y2="64.2599"/><linearGradient id="e" gradientUnits="userSpaceOnUse" x1="13.86" x2="45.99" xlink:href="#a" y1="13.5451" y2="52.2901"/><path d="m2.69926 13.8713c-.75665-.7519-1.14642-1.1042-1.29724-1.1726-.11863-.0538-.29199-.0973-.38531-.0967-.554692.0034-1.01979721.4787-1.01669457 1.039.00179372.3289.17578457.5559 1.27121457 1.6583l1.07487 1.0816-1.07395 1.0781c-1.130044 1.1345-1.27135827 1.3244-1.27135827 1.7084 0 .5181.48216927.9957 1.00224827.9927.37377-.0022.57079-.1499 1.69782-1.2724l1.07817-1.0739 1.08171 1.0748c1.1024 1.0954 1.32938 1.2694 1.65831 1.2712.56865.0031 1.04409-.4723 1.04093-1.0409-.00179-.3289-.17578-.5559-1.27077-1.6578l-1.07434-1.0811 1.07434-1.0812c1.09499-1.1019 1.26898-1.3289 1.27077-1.6578.00316-.5686-.47228-1.044-1.04093-1.0409-.33227.0018-.55891.1755-1.65991 1.2721l-1.07817 1.0739z" fill="#ff6771"/><path d="m2.69926 13.8713c-.75665-.7519-1.14642-1.1042-1.29724-1.1726-.11863-.0538-.29199-.0973-.38531-.0967-.554692.0034-1.01979721.4787-1.01669457 1.039.00179372.3289.17578457.5559 1.27121457 1.6583l1.07487 1.0816-1.07395 1.0781c-1.130044 1.1345-1.27135827 1.3244-1.27135827 1.7084 0 .5181.48216927.9957 1.00224827.9927.37377-.0022.57079-.1499 1.69782-1.2724l1.07817-1.0739 1.08171 1.0748c1.1024 1.0954 1.32938 1.2694 1.65831 1.2712.56865.0031 1.04409-.4723 1.04093-1.0409-.00179-.3289-.17578-.5559-1.27077-1.6578l-1.07434-1.0811 1.07434-1.0812c1.09499-1.1019 1.26898-1.3289 1.27077-1.6578.00316-.5686-.47228-1.044-1.04093-1.0409-.33227.0018-.55891.1755-1.65991 1.2721l-1.07817 1.0739z" fill="url(#b)"/><path d="m58.1393 1.27118c-.7567-.751832-1.1465-1.104161-1.2973-1.1725623-.1186-.0538094-.292-.09734193-.3853-.09676021-.5547.00349034-1.0198.47875851-1.0167 1.03905251.0018.32892.1758.55589 1.2712 1.65825l1.0749 1.08167-1.074 1.07812c-1.13 1.13446-1.2713 1.32439-1.2713 1.70833 0 .51817.4822.99571 1.0022.99271.3738-.00219.5708-.14985 1.6979-1.27238l1.0781-1.0739 1.0817 1.07483c1.1024 1.09538 1.3294 1.26936 1.6584 1.27115.5686.00316 1.044-.47226 1.0409-1.04089-.0018-.32887-.1758-.55593-1.2708-1.65781l-1.0743-1.08113 1.0743-1.08114c1.095-1.10188 1.269-1.32894 1.2708-1.65781.0031-.568632-.4723-1.04404542-1.0409-1.04089443-.3323.00179365-.559.17548743-1.66 1.27208443l-1.0781 1.07391z" fill="#ff6771"/><path d="m58.1393 1.27118c-.7567-.751832-1.1465-1.104161-1.2973-1.1725623-.1186-.0538094-.292-.09734193-.3853-.09676021-.5547.00349034-1.0198.47875851-1.0167 1.03905251.0018.32892.1758.55589 1.2712 1.65825l1.0749 1.08167-1.074 1.07812c-1.13 1.13446-1.2713 1.32439-1.2713 1.70833 0 .51817.4822.99571 1.0022.99271.3738-.00219.5708-.14985 1.6979-1.27238l1.0781-1.0739 1.0817 1.07483c1.1024 1.09538 1.3294 1.26936 1.6584 1.27115.5686.00316 1.044-.47226 1.0409-1.04089-.0018-.32887-.1758-.55593-1.2708-1.65781l-1.0743-1.08113 1.0743-1.08114c1.095-1.10188 1.269-1.32894 1.2708-1.65781.0031-.568632-.4723-1.04404542-1.0409-1.04089443-.3323.00179365-.559.17548743-1.66 1.27208443l-1.0781 1.07391z" fill="url(#c)"/><path d="m55.0789 54.8267c-1.135-1.1278-1.7196-1.6563-1.9459-1.7589-.1779-.0807-.438-.146-.5779-.1451-.8321.0052-1.5297.7181-1.5251 1.5586.0027.4934.2637.8338 1.9068 2.4874l1.6123 1.6225-1.6109 1.6171c-1.695 1.7017-1.907 1.9866-1.907 2.5625 0 .7773.7232 1.4936 1.5034 1.4891.5606-.0033.8561-.2248 2.5467-1.9086l1.6172-1.6108 1.6226 1.6122c1.6536 1.6431 1.9941 1.9041 2.4875 1.9068.853.0047 1.5661-.7084 1.5614-1.5614-.0027-.4933-.2637-.8339-1.9062-2.4867l-1.6115-1.6217 1.6115-1.6217c1.6425-1.6528 1.9035-1.9934 1.9062-2.4867.0047-.853-.7084-1.5661-1.5614-1.5614-.4984.0027-.8384.2633-2.4899 1.9082l-1.6172 1.6108z" fill="#ff6771"/><path d="m55.0789 54.8267c-1.135-1.1278-1.7196-1.6563-1.9459-1.7589-.1779-.0807-.438-.146-.5779-.1451-.8321.0052-1.5297.7181-1.5251 1.5586.0027.4934.2637.8338 1.9068 2.4874l1.6123 1.6225-1.6109 1.6171c-1.695 1.7017-1.907 1.9866-1.907 2.5625 0 .7773.7232 1.4936 1.5034 1.4891.5606-.0033.8561-.2248 2.5467-1.9086l1.6172-1.6108 1.6226 1.6122c1.6536 1.6431 1.9941 1.9041 2.4875 1.9068.853.0047 1.5661-.7084 1.5614-1.5614-.0027-.4933-.2637-.8339-1.9062-2.4867l-1.6115-1.6217 1.6115-1.6217c1.6425-1.6528 1.9035-1.9934 1.9062-2.4867.0047-.853-.7084-1.5661-1.5614-1.5614-.4984.0027-.8384.2633-2.4899 1.9082l-1.6172 1.6108z" fill="url(#d)"/><path clip-rule="evenodd" d="m50.4 30.5551c0 10.6121-8.6029 19.215-19.215 19.215-10.6122 0-19.215-8.6029-19.215-19.215 0-10.6122 8.6028-19.215 19.215-19.215 10.6121 0 19.215 8.6028 19.215 19.215zm2.52 0c0 12.0039-9.7311 21.735-21.735 21.735s-21.735-9.7311-21.735-21.735 9.7311-21.73503 21.735-21.73503 21.735 9.73113 21.735 21.73503zm-27.4172-8.8926c.3714.1681 1.3313 1.0345 3.1947 2.8831l2.6639 2.6427 2.6552-2.6405c2.7115-2.6963 3.2696-3.1234 4.0879-3.1278 1.4004-.0077 2.5713 1.1612 2.5635 2.5594-.0044.8086-.4329 1.3669-3.1295 4.0762l-2.6458 2.6583 2.6458 2.6583c2.6966 2.7093 3.1251 3.2677 3.1295 4.0763.0078 1.3981-1.1631 2.5671-2.5635 2.5593-.8101-.0044-1.369-.4322-4.0839-3.1255l-2.664-2.6428-2.6552 2.6405c-2.7755 2.7601-3.2607 3.1232-4.1812 3.1286-1.2808.0073-2.4682-1.1668-2.4682-2.4409 0-.9441.348-1.4111 3.1309-4.2005l2.6448-2.6509-2.647-2.6596c-2.6978-2.7105-3.1262-3.2686-3.1307-4.0773-.0076-1.3777 1.1378-2.5463 2.5039-2.5549.2298-.0014.6567.1056.9489.238z" fill="url(#e)" fill-rule="evenodd"/></svg>