<svg fill="none" height="51" viewBox="0 0 173 51" width="173" xmlns="http://www.w3.org/2000/svg" xmlns:xlink="http://www.w3.org/1999/xlink"><linearGradient id="a" gradientUnits="userSpaceOnUse" x1="126.241" x2="126.241" y1="51.1354" y2="-132.795"><stop offset="0" stop-color="#1a1a1a" stop-opacity=".1"/><stop offset=".123" stop-color="#212121" stop-opacity=".151"/><stop offset=".308" stop-color="#353535" stop-opacity=".227"/><stop offset=".532" stop-color="#575757" stop-opacity=".318"/><stop offset=".783" stop-color="#858585" stop-opacity=".421"/><stop offset="1" stop-color="#b3b3b3" stop-opacity=".51"/></linearGradient><path d="m170.984 44.979c0 .6419-.126 1.2775-.372 1.8704-.246.593-.606 1.1317-1.06 1.5853-.455.4537-.994.8134-1.587 1.0586-.594.2451-1.229.371-1.872.3703h-160.05891c-1.29729.0014-2.542-.5125-3.4604-1.4285s-1.43528-2.1591-1.43697-3.4561v-38.95302c.00169-1.29753.51837-2.54136 1.43658-3.45838.91822-.91701 2.16291-1.43225 3.46079-1.43259h160.05791c.643 0 1.279.12652 1.872.37233.594.24581 1.133.60609 1.587 1.06028.454.45418.815.99337 1.06 1.58676.246.5934.372 1.22937.372 1.8716z" fill="#fff"/><path d="m166.092 51h-160.05927c-1.59811-.0003-3.13082-.6345-4.26181-1.7632-1.130988-1.1288-1.76787923-2.66-1.77092-4.2577v-38.95179c.00236417-1.59848.638835-3.13076 1.76979-4.26069 1.13095-1.129941 2.66404-1.76527082 4.26294-1.76662h160.05827c1.599.00202238 3.131.637568 4.262 1.76736 1.131 1.12979 1.768 2.66168 1.771 4.25995v38.95179c.002 3.321-2.709 6.0209-6.032 6.0209z" fill="#a6a6a6"/><path d="m170.984 44.979c0 .6419-.126 1.2775-.372 1.8704-.246.593-.606 1.1317-1.06 1.5853-.455.4537-.994.8134-1.587 1.0586-.594.2451-1.229.371-1.872.3703h-160.05891c-1.29729.0014-2.542-.5125-3.4604-1.4285s-1.43528-2.1591-1.43697-3.4561v-38.95302c.00169-1.29753.51837-2.54136 1.43658-3.45838.91822-.91701 2.16291-1.43225 3.46079-1.43259h160.05791c.643 0 1.279.12652 1.872.37233.594.24581 1.133.60609 1.587 1.06028.454.45418.815.99337 1.06 1.58676.246.5934.372 1.22937.372 1.8716z" fill="#000"/><path d="m38.4358 25.2314c-.037-4.1105 3.3665-6.1102 3.5221-6.2033-1.9275-2.8096-4.9152-3.1935-5.9651-3.2241-2.5093-.264-4.9433 1.5011-6.2215 1.5011-1.3038 0-3.2721-1.4756-5.3936-1.4322-2.73.0421-5.2839 1.6222-6.6846 4.076-2.8907 5.0032-.7348 12.3556 2.0347 16.3997 1.3854 1.9819 3.0042 4.1921 5.1232 4.1143 2.073-.0842 2.8473-1.32 5.3489-1.32 2.4787 0 3.2058 1.32 5.3668 1.2703 2.2248-.0345 3.6256-1.9896 4.9625-3.9881 1.601-2.2688 2.2439-4.5058 2.2694-4.6205-.051-.0179-4.3195-1.6478-4.3628-6.5732zm-4.0822-12.0878c1.1149-1.3939 1.8778-3.29038 1.666-5.21489-1.6137.07142-3.6319 1.11593-4.794 2.47929-1.0282 1.2014-1.9467 3.1705-1.7094 5.0223 1.8127.1352 3.6739-.9144 4.8374-2.2867z" fill="#fff"/><path d="m166.092 0h-85.7326l33.5796 51h52.153c1.598-.0014 3.131-.6363 4.262-1.7657s1.768-2.661 1.771-4.2591v-38.94789c-.003-1.59838-.64-3.13046-1.77-4.26032-1.131-1.129866-2.664-1.76530409-4.263-1.76699z" fill="url(#a)"/><g fill="#fff"><path d="m68.4613 40.1787h-2.8971l-1.587-4.9854h-5.5161l-1.5116 4.9854h-2.8206l5.4663-16.9724h3.3755zm-4.9625-7.0769-1.4351-4.4319c-.1518-.4527-.4376-1.5189-.856-3.1973h-.051c-.1684.7219-.4376 1.7881-.8063 3.1973l-1.4109 4.4319zm18.9925.8073c0 2.0813-.5651 3.7265-1.6967 4.9343-1.0129 1.0751-2.272 1.612-3.7735 1.612-1.6214 0-2.7873-.5777-3.4954-1.7357v6.4214h-2.7197v-13.1782c0-1.3073-.0345-2.6476-.1008-4.0225h2.3919l.1518 1.9398h.0511c.907-1.4615 2.2834-2.1923 4.1306-2.1923 1.4441 0 2.6496.5701 3.6141 1.7115.9631 1.144 1.4466 2.6464 1.4466 4.5097zm-2.7708.0994c0-1.1911-.2679-2.1732-.8062-2.9473-.5881-.8047-1.3778-1.2078-2.3677-1.2078-.671 0-1.2808.2245-1.8255.6671-.546.4463-.9032 1.0292-1.0703 1.751-.0746.27-.117.5478-.1263.8277v2.0419c0 .8889.273 1.6401.819 2.2548.546.6121 1.2552.9195 2.1278.9195 1.0244 0 1.8217-.3966 2.3919-1.1835.5715-.7895.8573-1.8302.8573-3.1234zm16.8506-.0994c0 2.0813-.5652 3.7265-1.6967 4.9343-1.0142 1.0751-2.272 1.612-3.7748 1.612-1.6214 0-2.7873-.5777-3.4954-1.7357v6.4214h-2.7197v-13.1782c0-1.3073-.0345-2.6476-.1008-4.0225h2.3919l.1518 1.9398h.0511c.9057-1.4615 2.2822-2.1923 4.1306-2.1923 1.4428 0 2.6484.5701 3.6153 1.7115.9619 1.144 1.4467 2.6464 1.4467 4.5097zm-2.7721.0994c0-1.1911-.2692-2.1732-.8075-2.9473-.5881-.8047-1.3752-1.2078-2.3651-1.2078-.6711 0-1.2808.2245-1.8281.6671-.546.4463-.9019 1.0292-1.069 1.751-.083.3367-.1276.6109-.1276.8277v2.0419c0 .8889.2743 1.6401.8177 2.2548.546.6109 1.2553.9195 2.1304.9195 1.0257 0 1.823-.3966 2.3919-1.1835.5715-.7895.8573-1.8302.8573-3.1234zm18.514 1.4093c0 1.445-.505 2.6196-1.509 3.5263-1.105.9897-2.647 1.4858-4.624 1.4858-1.827 0-3.292-.352-4.396-1.0572l.628-2.2663c1.193.7065 2.503 1.0585 3.93 1.0585 1.025 0 1.823-.2321 2.391-.6925.571-.4617.859-1.079.859-1.8493 0-.6899-.239-1.2677-.707-1.7383-.47-.4693-1.249-.9067-2.342-1.3085-2.972-1.1083-4.46-2.7292-4.46-4.8616 0-1.3927.526-2.5329 1.575-3.4243 1.048-.8902 2.439-1.3353 4.168-1.3353 1.545 0 2.832.2691 3.854.806l-.682 2.2166c-.962-.5204-2.048-.7806-3.262-.7806-.959 0-1.712.236-2.25.7053-.453.4196-.683.931-.683 1.5381 0 .6695.262 1.2256.782 1.6618.452.4017 1.276.8391 2.467 1.3085 1.462.5892 2.536 1.2753 3.224 2.0635.693.7882 1.037 1.7715 1.037 2.9435zm9.015-5.4368h-2.998v5.9418c0 1.5113.529 2.2651 1.587 2.2651.486 0 .89-.0408 1.209-.1263l.075 2.0648c-.536.2002-1.241.301-2.115.301-1.074 0-1.914-.3278-2.52-.9833-.603-.6555-.907-1.7536-.907-3.2993v-6.1689h-1.786v-2.0406h1.786v-2.2408l2.671-.806v3.0468h2.998zm13.5 3.9778c0 1.8811-.539 3.4256-1.613 4.6334-1.124 1.2434-2.619 1.8632-4.483 1.8632-1.798 0-3.228-.5956-4.295-1.7855-1.066-1.1924-1.6-2.6948-1.6-4.507 0-1.8965.552-3.4499 1.65-4.6576 1.101-1.2091 2.583-1.8136 4.447-1.8136 1.796 0 3.239.5969 4.331 1.7881 1.043 1.1554 1.563 2.6476 1.563 4.479zm-2.82.0625c0-1.121-.242-2.0827-.728-2.8874-.57-.9718-1.387-1.4577-2.444-1.4577-1.09 0-1.925.4859-2.494 1.4577-.487.8047-.73 1.7829-.73 2.9384 0 1.1223.243 2.0865.73 2.8887.588.9718 1.408 1.4577 2.471 1.4577 1.04 0 1.855-.4961 2.444-1.482.5-.8238.751-1.7918.751-2.9154zm11.664-3.6896c-.283-.051-.57-.0762-.857-.0752-.957 0-1.697.3596-2.217 1.084-.452.6377-.679 1.4437-.679 2.4168v6.4214h-2.72v-8.3842c.003-1.2847-.024-2.5693-.079-3.8528h2.369l.1 2.3415h.075c.288-.8047.74-1.4539 1.36-1.9398.567-.4246 1.257-.6545 1.966-.6555.251 0 .478.0179.679.0497zm12.164 3.1488c.007.4134-.027.8264-.1 1.2333h-8.159c.031 1.209.426 2.1349 1.184 2.7726.687.5688 1.577.8545 2.669.8545 1.208 0 2.31-.1913 3.301-.5777l.426 1.8862c-1.158.5051-2.526.7563-4.104.7563-1.898 0-3.388-.5586-4.472-1.6733-1.082-1.1159-1.624-2.6157-1.624-4.4943 0-1.8442.504-3.381 1.513-4.6066 1.056-1.3085 2.483-1.9627 4.28-1.9627 1.764 0 3.099.6542 4.006 1.9627.719 1.0369 1.08 2.3225 1.08 3.849zm-2.594-.7052c.019-.8073-.159-1.5024-.528-2.0903-.471-.7576-1.195-1.1351-2.166-1.1351-.889 0-1.614.3686-2.165 1.1083-.453.5879-.722 1.2945-.805 2.1145z"/><path d="m57.6744 17.2058c-.7565 0-1.4109-.037-1.9556-.0995v-8.20558c.7618-.11766 1.5317-.17565 2.3026-.17345 3.119 0 4.5555 1.53423 4.5555 4.03523 0 2.8848-1.6967 4.4433-4.9025 4.4433zm.4567-7.42636c-.421 0-.7795.02551-1.0767.08672v6.23774c.1607.0255.4694.037.9032.037 2.0436 0 3.2071-1.1631 3.2071-3.3414 0-1.9424-1.0525-3.02006-3.0336-3.02006zm8.9221 7.48886c-1.7579 0-2.897-1.3123-2.897-3.094 0-1.8569 1.1634-3.1807 2.9965-3.1807 1.7324 0 2.8971 1.2498 2.8971 3.0825 0 1.8799-1.2004 3.1922-2.9966 3.1922zm.0511-5.2978c-.9657 0-1.5844.9029-1.5844 2.1655 0 1.2384.6314 2.1413 1.5716 2.1413s1.5717-.9654 1.5717-2.1668c0-1.2243-.6187-2.14-1.5589-2.14zm12.9699-.8532-1.8817 6.0145h-1.2259l-.7794-2.6119c-.1938-.6389-.3552-1.2872-.4835-1.9423h-.0255c-.0983.6555-.2845 1.3123-.4822 1.9423l-.8292 2.6119h-1.2387l-1.7707-6.0145h1.3739l.6812 2.8593c.1608.6811.296 1.3238.4083 1.9309h.0255c.0982-.5063.2589-1.1389.4949-1.9181l.8548-2.8708h1.0894l.8177 2.8096c.1977.681.3585 1.3493.4835 1.9806h.0357c.0868-.6186.2233-1.2754.4082-1.9806l.731-2.8096zm6.927 6.0145h-1.3369v-3.4536c0-1.0637-.4083-1.5968-1.2132-1.5968-.7922 0-1.3369.6811-1.3369 1.4731v3.5773h-1.337v-4.2953c0-.5319-.0127-1.1019-.0497-1.7205h1.1762l.0625.9285h.037c.3597-.6428 1.0894-1.0509 1.9071-1.0509 1.263 0 2.0922.9654 2.0922 2.5366zm3.6867 0h-1.3382v-8.77438h1.3382zm4.8744.1365c-1.7566 0-2.8971-1.3123-2.8971-3.094 0-1.8569 1.1635-3.1807 2.9954-3.1807 1.7336 0 2.897 1.2498 2.897 3.0825.0013 1.8799-1.2004 3.1922-2.9953 3.1922zm.0498-5.2978c-.9657 0-1.5844.9029-1.5844 2.1655 0 1.2384.6327 2.1413 1.5703 2.1413.9415 0 1.5717-.9654 1.5717-2.1668.0013-1.2243-.6162-2.14-1.5576-2.14zm8.2169 5.1613-.097-.6925h-.036c-.408.5573-1.004.829-1.759.829-1.078 0-1.843-.755-1.843-1.7702 0-1.4845 1.287-2.2523 3.515-2.2523v-.1109c0-.792-.419-1.1886-1.249-1.1886-.593 0-1.113.1492-1.571.4463l-.272-.8787c.556-.3469 1.25-.5203 2.065-.5203 1.572 0 2.366.829 2.366 2.4882v2.2153c0 .607.026 1.0776.086 1.436zm-.184-2.9958c-1.485 0-2.23.3597-2.23 1.2129 0 .6313.384.9399.917.9399.68 0 1.313-.519 1.313-1.2243zm7.795 2.9958-.063-.9654h-.037c-.384.7295-1.029 1.1019-1.931 1.1019-1.451 0-2.525-1.2754-2.525-3.0698 0-1.8811 1.114-3.2062 2.634-3.2062.805 0 1.376.2716 1.697.8175h.027v-3.45238h1.338v7.15348c0 .5815.014 1.1261.05 1.6209zm-.198-3.5391c0-.8417-.558-1.5597-1.409-1.5597-.991 0-1.597.8787-1.597 2.1158 0 1.2128.629 2.0431 1.571 2.0431.84 0 1.435-.7308 1.435-1.5967zm9.823 3.6756c-1.757 0-2.896-1.3123-2.896-3.094 0-1.8569 1.163-3.1807 2.995-3.1807 1.734 0 2.897 1.2498 2.897 3.0825.001 1.8799-1.199 3.1922-2.996 3.1922zm.049-5.2978c-.964 0-1.583.9029-1.583 2.1655 0 1.2384.632 2.1413 1.571 2.1413.941 0 1.571-.9654 1.571-2.1668.003-1.2243-.616-2.14-1.559-2.14zm10.137 5.1613h-1.338v-3.4536c0-1.0637-.408-1.5968-1.213-1.5968-.793 0-1.336.6811-1.336 1.4731v3.5773h-1.338v-4.2953c0-.5319-.013-1.1019-.05-1.7205h1.176l.063.9285h.037c.358-.6428 1.089-1.0522 1.906-1.0522 1.263 0 2.093.9654 2.093 2.5367zm8.995-5.0121h-1.471v2.9206c0 .7435.258 1.1146.778 1.1146.236 0 .434-.0255.593-.0625l.037 1.0152c-.259.0995-.606.1492-1.037.1492-1.054 0-1.684-.5815-1.684-2.1043v-3.0328h-.877v-1.0024h.877v-1.1019l1.313-.39666v1.49726h1.471zm7.077 5.0121h-1.335v-3.4281c0-1.0764-.407-1.621-1.213-1.621-.693 0-1.339.4706-1.339 1.4233v3.6258h-1.335v-8.77438h1.335v3.61308h.027c.421-.6555 1.031-.9782 1.809-.9782 1.273 0 2.051.9897 2.051 2.5622zm7.251-2.6859h-4.012c.026 1.1389.78 1.7817 1.896 1.7817.593 0 1.139-.0995 1.621-.2844l.208.9285c-.569.2474-1.238.3711-2.018.3711-1.881 0-2.995-1.1886-2.995-3.0315 0-1.8442 1.14-3.2305 2.845-3.2305 1.537 0 2.501 1.1389 2.501 2.8594.009.203-.006.4063-.046.6057zm-1.226-.9526c0-.9285-.468-1.584-1.322-1.584-.768 0-1.376.6683-1.462 1.584z"/></g></svg>