<svg fill="none" height="124" viewBox="0 0 124 124" width="124" xmlns="http://www.w3.org/2000/svg"><rect fill="#fff" height="124" rx="12" width="124"/><path d="m119 5h-114v114h114z" fill="#fff"/><path d="m15.5294 12.0872h-3.4422v3.4422h3.4422z" fill="#000"/><path d="m18.9716 12.0872h-3.4423v3.4422h3.4423z" fill="#000"/><path d="m22.414 12.0872h-3.4423v3.4422h3.4423z" fill="#000"/><path d="m25.8561 12.0872h-3.4423v3.4422h3.4423z" fill="#000"/><path d="m29.2985 12.0872h-3.4423v3.4422h3.4423z" fill="#000"/><path d="m32.7409 12.0872h-3.4423v3.4422h3.4423z" fill="#000"/><path d="m36.183 12.0872h-3.4423v3.4422h3.4423z" fill="#000"/><path d="m39.6251 12.0872h-3.4422v3.4422h3.4422z" fill="#fff"/><path d="m43.0675 12.0872h-3.4423v3.4422h3.4423z" fill="#fff"/><path d="m46.5099 12.0872h-3.4423v3.4422h3.4423z" fill="#000"/><path d="m49.952 12.0872h-3.4422v3.4422h3.4422z" fill="#000"/><path d="m53.3944 12.0872h-3.4423v3.4422h3.4423z" fill="#fff"/><path d="m56.8366 12.0872h-3.4423v3.4422h3.4423z" fill="#000"/><path d="m60.2789 12.0872h-3.4422v3.4422h3.4422z" fill="#fff"/><path d="m63.7213 12.0872h-3.4422v3.4422h3.4422z" fill="#fff"/><path d="m67.1632 12.0872h-3.4423v3.4422h3.4423z" fill="#000"/><path d="m70.6056 12.0872h-3.4423v3.4422h3.4423z" fill="#000"/><path d="m74.048 12.0872h-3.4423v3.4422h3.4423z" fill="#000"/><path d="m77.4901 12.0872h-3.4422v3.4422h3.4422z" fill="#000"/><path d="m80.9325 12.0872h-3.4423v3.4422h3.4423z" fill="#000"/><path d="m84.3746 12.0872h-3.4422v3.4422h3.4422z" fill="#000"/><path d="m87.817 12.0872h-3.4422v3.4422h3.4422z" fill="#fff"/><path d="m91.2594 12.0872h-3.4423v3.4422h3.4423z" fill="#000"/><path d="m94.7016 12.0872h-3.4423v3.4422h3.4423z" fill="#000"/><path d="m98.1437 12.0872h-3.4423v3.4422h3.4423z" fill="#000"/><path d="m101.586 12.0872h-3.4422v3.4422h3.4422z" fill="#000"/><path d="m105.028 12.0872h-3.442v3.4422h3.442z" fill="#000"/><path d="m108.471 12.0872h-3.443v3.4422h3.443z" fill="#000"/><path d="m111.913 12.0872h-3.442v3.4422h3.442z" fill="#000"/><path d="m15.5294 15.5293h-3.4422v3.4423h3.4422z" fill="#000"/><path d="m18.9716 15.5293h-3.4423v3.4423h3.4423z" fill="#fff"/><path d="m22.414 15.5293h-3.4423v3.4423h3.4423z" fill="#fff"/><path d="m25.8561 15.5293h-3.4423v3.4423h3.4423z" fill="#fff"/><path d="m29.2985 15.5293h-3.4423v3.4423h3.4423z" fill="#fff"/><path d="m32.7409 15.5293h-3.4423v3.4423h3.4423z" fill="#fff"/><path d="m36.183 15.5293h-3.4423v3.4423h3.4423z" fill="#000"/><path d="m39.6251 15.5293h-3.4422v3.4423h3.4422z" fill="#fff"/><path d="m43.0675 15.5293h-3.4423v3.4423h3.4423z" fill="#fff"/><path d="m46.5099 15.5293h-3.4423v3.4423h3.4423z" fill="#fff"/><path d="m49.952 15.5293h-3.4422v3.4423h3.4422z" fill="#000"/><path d="m53.3944 15.5293h-3.4423v3.4423h3.4423z" fill="#000"/><path d="m56.8366 15.5293h-3.4423v3.4423h3.4423z" fill="#000"/><path d="m60.2789 15.5293h-3.4422v3.4423h3.4422z" fill="#000"/><path d="m63.7213 15.5293h-3.4422v3.4423h3.4422z" fill="#000"/><path d="m67.1632 15.5293h-3.4423v3.4423h3.4423z" fill="#000"/><path d="m70.6056 15.5293h-3.4423v3.4423h3.4423z" fill="#fff"/><path d="m74.048 15.5293h-3.4423v3.4423h3.4423z" fill="#fff"/><path d="m77.4901 15.5293h-3.4422v3.4423h3.4422z" fill="#000"/><path d="m80.9325 15.5293h-3.4423v3.4423h3.4423z" fill="#000"/><path d="m84.3746 15.5293h-3.4422v3.4423h3.4422z" fill="#000"/><path d="m87.817 15.5293h-3.4422v3.4423h3.4422z" fill="#fff"/><path d="m91.2594 15.5293h-3.4423v3.4423h3.4423z" fill="#000"/><path d="m94.7016 15.5293h-3.4423v3.4423h3.4423z" fill="#fff"/><path d="m98.1437 15.5293h-3.4423v3.4423h3.4423z" fill="#fff"/><path d="m101.586 15.5293h-3.4422v3.4423h3.4422z" fill="#fff"/><path d="m105.028 15.5293h-3.442v3.4423h3.442z" fill="#fff"/><path d="m108.471 15.5293h-3.443v3.4423h3.443z" fill="#fff"/><path d="m111.913 15.5293h-3.442v3.4423h3.442z" fill="#000"/><path d="m15.5294 18.9717h-3.4422v3.4423h3.4422z" fill="#000"/><path d="m18.9716 18.9717h-3.4423v3.4423h3.4423z" fill="#fff"/><path d="m22.414 18.9717h-3.4423v3.4423h3.4423z" fill="#000"/><path d="m25.8561 18.9717h-3.4423v3.4423h3.4423z" fill="#000"/><path d="m29.2985 18.9717h-3.4423v3.4423h3.4423z" fill="#000"/><path d="m32.7409 18.9717h-3.4423v3.4423h3.4423z" fill="#fff"/><path d="m36.183 18.9717h-3.4423v3.4423h3.4423z" fill="#000"/><path d="m39.6251 18.9717h-3.4422v3.4423h3.4422z" fill="#fff"/><path d="m43.0675 18.9717h-3.4423v3.4423h3.4423z" fill="#000"/><path d="m46.5099 18.9717h-3.4423v3.4423h3.4423z" fill="#000"/><path d="m49.952 18.9717h-3.4422v3.4423h3.4422z" fill="#000"/><path d="m53.3944 18.9717h-3.4423v3.4423h3.4423z" fill="#fff"/><path d="m56.8366 18.9717h-3.4423v3.4423h3.4423z" fill="#fff"/><path d="m60.2789 18.9717h-3.4422v3.4423h3.4422z" fill="#fff"/><path d="m63.7213 18.9717h-3.4422v3.4423h3.4422z" fill="#fff"/><path d="m67.1632 18.9717h-3.4423v3.4423h3.4423z" fill="#000"/><path d="m70.6056 18.9717h-3.4423v3.4423h3.4423z" fill="#fff"/><path d="m74.048 18.9717h-3.4423v3.4423h3.4423z" fill="#fff"/><path d="m77.4901 18.9717h-3.4422v3.4423h3.4422z" fill="#000"/><path d="m80.9325 18.9717h-3.4423v3.4423h3.4423z" fill="#000"/><path d="m84.3746 18.9717h-3.4422v3.4423h3.4422z" fill="#000"/><path d="m87.817 18.9717h-3.4422v3.4423h3.4422z" fill="#fff"/><path d="m91.2594 18.9717h-3.4423v3.4423h3.4423z" fill="#000"/><path d="m94.7016 18.9717h-3.4423v3.4423h3.4423z" fill="#fff"/><path d="m98.1437 18.9717h-3.4423v3.4423h3.4423z" fill="#000"/><path d="m101.586 18.9717h-3.4422v3.4423h3.4422z" fill="#000"/><path d="m105.028 18.9717h-3.442v3.4423h3.442z" fill="#000"/><path d="m108.471 18.9717h-3.443v3.4423h3.443z" fill="#fff"/><path d="m111.913 18.9717h-3.442v3.4423h3.442z" fill="#000"/><path d="m15.5294 22.4138h-3.4422v3.4423h3.4422z" fill="#000"/><path d="m18.9716 22.4138h-3.4423v3.4423h3.4423z" fill="#fff"/><path d="m22.414 22.4138h-3.4423v3.4423h3.4423z" fill="#000"/><path d="m25.8561 22.4138h-3.4423v3.4423h3.4423z" fill="#000"/><path d="m29.2985 22.4138h-3.4423v3.4423h3.4423z" fill="#000"/><path d="m32.7409 22.4138h-3.4423v3.4423h3.4423z" fill="#fff"/><path d="m36.183 22.4138h-3.4423v3.4423h3.4423z" fill="#000"/><path d="m39.6251 22.4138h-3.4422v3.4423h3.4422z" fill="#fff"/><path d="m43.0675 22.4138h-3.4423v3.4423h3.4423z" fill="#fff"/><path d="m46.5099 22.4138h-3.4423v3.4423h3.4423z" fill="#000"/><path d="m49.952 22.4138h-3.4422v3.4423h3.4422z" fill="#000"/><path d="m53.3944 22.4138h-3.4423v3.4423h3.4423z" fill="#000"/><path d="m56.8366 22.4138h-3.4423v3.4423h3.4423z" fill="#fff"/><path d="m60.2789 22.4138h-3.4422v3.4423h3.4422z" fill="#fff"/><path d="m63.7213 22.4138h-3.4422v3.4423h3.4422z" fill="#000"/><path d="m67.1632 22.4138h-3.4423v3.4423h3.4423z" fill="#fff"/><path d="m70.6056 22.4138h-3.4423v3.4423h3.4423z" fill="#fff"/><path d="m74.048 22.4138h-3.4423v3.4423h3.4423z" fill="#fff"/><path d="m77.4901 22.4138h-3.4422v3.4423h3.4422z" fill="#000"/><path d="m80.9325 22.4138h-3.4423v3.4423h3.4423z" fill="#fff"/><path d="m84.3746 22.4138h-3.4422v3.4423h3.4422z" fill="#fff"/><path d="m87.817 22.4138h-3.4422v3.4423h3.4422z" fill="#fff"/><path d="m91.2594 22.4138h-3.4423v3.4423h3.4423z" fill="#000"/><path d="m94.7016 22.4138h-3.4423v3.4423h3.4423z" fill="#fff"/><path d="m98.1437 22.4138h-3.4423v3.4423h3.4423z" fill="#000"/><path d="m101.586 22.4138h-3.4422v3.4423h3.4422z" fill="#000"/><path d="m105.028 22.4138h-3.442v3.4423h3.442z" fill="#000"/><path d="m108.471 22.4138h-3.443v3.4423h3.443z" fill="#fff"/><path d="m111.913 22.4138h-3.442v3.4423h3.442z" fill="#000"/><path d="m15.5294 25.8562h-3.4422v3.4423h3.4422z" fill="#000"/><path d="m18.9716 25.8562h-3.4423v3.4423h3.4423z" fill="#fff"/><path d="m22.414 25.8562h-3.4423v3.4423h3.4423z" fill="#000"/><path d="m25.8561 25.8562h-3.4423v3.4423h3.4423z" fill="#000"/><path d="m29.2985 25.8562h-3.4423v3.4423h3.4423z" fill="#000"/><path d="m32.7409 25.8562h-3.4423v3.4423h3.4423z" fill="#fff"/><path d="m36.183 25.8562h-3.4423v3.4423h3.4423z" fill="#000"/><path d="m39.6251 25.8562h-3.4422v3.4423h3.4422z" fill="#fff"/><path d="m43.0675 25.8562h-3.4423v3.4423h3.4423z" fill="#fff"/><path d="m46.5099 25.8562h-3.4423v3.4423h3.4423z" fill="#fff"/><path d="m49.952 25.8562h-3.4422v3.4423h3.4422z" fill="#000"/><path d="m53.3944 25.8562h-3.4423v3.4423h3.4423z" fill="#000"/><path d="m56.8366 25.8562h-3.4423v3.4423h3.4423z" fill="#fff"/><path d="m60.2789 25.8562h-3.4422v3.4423h3.4422z" fill="#fff"/><path d="m63.7213 25.8562h-3.4422v3.4423h3.4422z" fill="#000"/><path d="m67.1632 25.8562h-3.4423v3.4423h3.4423z" fill="#000"/><path d="m70.6056 25.8562h-3.4423v3.4423h3.4423z" fill="#fff"/><path d="m74.048 25.8562h-3.4423v3.4423h3.4423z" fill="#000"/><path d="m77.4901 25.8562h-3.4422v3.4423h3.4422z" fill="#000"/><path d="m80.9325 25.8562h-3.4423v3.4423h3.4423z" fill="#000"/><path d="m84.3746 25.8562h-3.4422v3.4423h3.4422z" fill="#fff"/><path d="m87.817 25.8562h-3.4422v3.4423h3.4422z" fill="#fff"/><path d="m91.2594 25.8562h-3.4423v3.4423h3.4423z" fill="#000"/><path d="m94.7016 25.8562h-3.4423v3.4423h3.4423z" fill="#fff"/><path d="m98.1437 25.8562h-3.4423v3.4423h3.4423z" fill="#000"/><path d="m101.586 25.8562h-3.4422v3.4423h3.4422z" fill="#000"/><path d="m105.028 25.8562h-3.442v3.4423h3.442z" fill="#000"/><path d="m108.471 25.8562h-3.443v3.4423h3.443z" fill="#fff"/><path d="m111.913 25.8562h-3.442v3.4423h3.442z" fill="#000"/><path d="m15.5294 29.2986h-3.4422v3.4423h3.4422z" fill="#000"/><path d="m18.9716 29.2986h-3.4423v3.4423h3.4423z" fill="#fff"/><path d="m22.414 29.2986h-3.4423v3.4423h3.4423z" fill="#fff"/><path d="m25.8561 29.2986h-3.4423v3.4423h3.4423z" fill="#fff"/><path d="m29.2985 29.2986h-3.4423v3.4423h3.4423z" fill="#fff"/><path d="m32.7409 29.2986h-3.4423v3.4423h3.4423z" fill="#fff"/><path d="m36.183 29.2986h-3.4423v3.4423h3.4423z" fill="#000"/><path d="m39.6251 29.2986h-3.4422v3.4423h3.4422z" fill="#fff"/><path d="m43.0675 29.2986h-3.4423v3.4423h3.4423z" fill="#fff"/><path d="m46.5099 29.2986h-3.4423v3.4423h3.4423z" fill="#000"/><path d="m49.952 29.2986h-3.4422v3.4423h3.4422z" fill="#fff"/><path d="m53.3944 29.2986h-3.4423v3.4423h3.4423z" fill="#000"/><path d="m56.8366 29.2986h-3.4423v3.4423h3.4423z" fill="#000"/><path d="m60.2789 29.2986h-3.4422v3.4423h3.4422z" fill="#000"/><path d="m63.7213 29.2986h-3.4422v3.4423h3.4422z" fill="#000"/><path d="m67.1632 29.2986h-3.4423v3.4423h3.4423z" fill="#000"/><path d="m70.6056 29.2986h-3.4423v3.4423h3.4423z" fill="#fff"/><path d="m74.048 29.2986h-3.4423v3.4423h3.4423z" fill="#000"/><path d="m77.4901 29.2986h-3.4422v3.4423h3.4422z" fill="#000"/><path d="m80.9325 29.2986h-3.4423v3.4423h3.4423z" fill="#000"/><path d="m84.3746 29.2986h-3.4422v3.4423h3.4422z" fill="#fff"/><path d="m87.817 29.2986h-3.4422v3.4423h3.4422z" fill="#fff"/><path d="m91.2594 29.2986h-3.4423v3.4423h3.4423z" fill="#000"/><path d="m94.7016 29.2986h-3.4423v3.4423h3.4423z" fill="#fff"/><path d="m98.1437 29.2986h-3.4423v3.4423h3.4423z" fill="#fff"/><path d="m101.586 29.2986h-3.4422v3.4423h3.4422z" fill="#fff"/><path d="m105.028 29.2986h-3.442v3.4423h3.442z" fill="#fff"/><path d="m108.471 29.2986h-3.443v3.4423h3.443z" fill="#fff"/><path d="m111.913 29.2986h-3.442v3.4423h3.442z" fill="#000"/><path d="m15.5294 32.7407h-3.4422v3.4423h3.4422z" fill="#000"/><path d="m18.9716 32.7407h-3.4423v3.4423h3.4423z" fill="#000"/><path d="m22.414 32.7407h-3.4423v3.4423h3.4423z" fill="#000"/><path d="m25.8561 32.7407h-3.4423v3.4423h3.4423z" fill="#000"/><path d="m29.2985 32.7407h-3.4423v3.4423h3.4423z" fill="#000"/><path d="m32.7409 32.7407h-3.4423v3.4423h3.4423z" fill="#000"/><path d="m36.183 32.7407h-3.4423v3.4423h3.4423z" fill="#000"/><path d="m39.6251 32.7407h-3.4422v3.4423h3.4422z" fill="#fff"/><path d="m43.0675 32.7407h-3.4423v3.4423h3.4423z" fill="#000"/><path d="m46.5099 32.7407h-3.4423v3.4423h3.4423z" fill="#fff"/><path d="m49.952 32.7407h-3.4422v3.4423h3.4422z" fill="#000"/><path d="m53.3944 32.7407h-3.4423v3.4423h3.4423z" fill="#fff"/><path d="m56.8366 32.7407h-3.4423v3.4423h3.4423z" fill="#000"/><path d="m60.2789 32.7407h-3.4422v3.4423h3.4422z" fill="#fff"/><path d="m63.7213 32.7407h-3.4422v3.4423h3.4422z" fill="#000"/><path d="m67.1632 32.7407h-3.4423v3.4423h3.4423z" fill="#fff"/><path d="m70.6056 32.7407h-3.4423v3.4423h3.4423z" fill="#000"/><path d="m74.048 32.7407h-3.4423v3.4423h3.4423z" fill="#fff"/><path d="m77.4901 32.7407h-3.4422v3.4423h3.4422z" fill="#000"/><path d="m80.9325 32.7407h-3.4423v3.4423h3.4423z" fill="#fff"/><path d="m84.3746 32.7407h-3.4422v3.4423h3.4422z" fill="#000"/><path d="m87.817 32.7407h-3.4422v3.4423h3.4422z" fill="#fff"/><path d="m91.2594 32.7407h-3.4423v3.4423h3.4423z" fill="#000"/><path d="m94.7016 32.7407h-3.4423v3.4423h3.4423z" fill="#000"/><path d="m98.1437 32.7407h-3.4423v3.4423h3.4423z" fill="#000"/><path d="m101.586 32.7407h-3.4422v3.4423h3.4422z" fill="#000"/><path d="m105.028 32.7407h-3.442v3.4423h3.442z" fill="#000"/><path d="m108.471 32.7407h-3.443v3.4423h3.443z" fill="#000"/><path d="m111.913 32.7407h-3.442v3.4423h3.442z" fill="#000"/><path d="m15.5294 36.1829h-3.4422v3.4422h3.4422z" fill="#fff"/><path d="m18.9716 36.1829h-3.4423v3.4422h3.4423z" fill="#fff"/><path d="m22.414 36.1829h-3.4423v3.4422h3.4423z" fill="#fff"/><path d="m25.8561 36.1829h-3.4423v3.4422h3.4423z" fill="#fff"/><path d="m29.2985 36.1829h-3.4423v3.4422h3.4423z" fill="#fff"/><path d="m32.7409 36.1829h-3.4423v3.4422h3.4423z" fill="#fff"/><path d="m36.183 36.1829h-3.4423v3.4422h3.4423z" fill="#fff"/><path d="m39.6251 36.1829h-3.4422v3.4422h3.4422z" fill="#fff"/><path d="m43.0675 36.1829h-3.4423v3.4422h3.4423z" fill="#000"/><path d="m46.5099 36.1829h-3.4423v3.4422h3.4423z" fill="#000"/><path d="m49.952 36.1829h-3.4422v3.4422h3.4422z" fill="#000"/><path d="m53.3944 36.1829h-3.4423v3.4422h3.4423z" fill="#000"/><path d="m56.8366 36.1829h-3.4423v3.4422h3.4423z" fill="#000"/><path d="m60.2789 36.1829h-3.4422v3.4422h3.4422z" fill="#000"/><path d="m63.7213 36.1829h-3.4422v3.4422h3.4422z" fill="#fff"/><path d="m67.1632 36.1829h-3.4423v3.4422h3.4423z" fill="#fff"/><path d="m70.6056 36.1829h-3.4423v3.4422h3.4423z" fill="#fff"/><path d="m74.048 36.1829h-3.4423v3.4422h3.4423z" fill="#000"/><path d="m77.4901 36.1829h-3.4422v3.4422h3.4422z" fill="#000"/><path d="m80.9325 36.1829h-3.4423v3.4422h3.4423z" fill="#fff"/><path d="m84.3746 36.1829h-3.4422v3.4422h3.4422z" fill="#000"/><path d="m87.817 36.1829h-3.4422v3.4422h3.4422z" fill="#fff"/><path d="m91.2594 36.1829h-3.4423v3.4422h3.4423z" fill="#fff"/><path d="m94.7016 36.1829h-3.4423v3.4422h3.4423z" fill="#fff"/><path d="m98.1437 36.1829h-3.4423v3.4422h3.4423z" fill="#fff"/><path d="m101.586 36.1829h-3.4422v3.4422h3.4422z" fill="#fff"/><path d="m105.028 36.1829h-3.442v3.4422h3.442z" fill="#fff"/><path d="m108.471 36.1829h-3.443v3.4422h3.443z" fill="#fff"/><path d="m111.913 36.1829h-3.442v3.4422h3.442z" fill="#fff"/><path d="m15.5294 39.6252h-3.4422v3.4423h3.4422z" fill="#000"/><path d="m18.9716 39.6252h-3.4423v3.4423h3.4423z" fill="#000"/><path d="m22.414 39.6252h-3.4423v3.4423h3.4423z" fill="#000"/><path d="m25.8561 39.6252h-3.4423v3.4423h3.4423z" fill="#fff"/><path d="m29.2985 39.6252h-3.4423v3.4423h3.4423z" fill="#000"/><path d="m32.7409 39.6252h-3.4423v3.4423h3.4423z" fill="#000"/><path d="m36.183 39.6252h-3.4423v3.4423h3.4423z" fill="#000"/><path d="m39.6251 39.6252h-3.4422v3.4423h3.4422z" fill="#000"/><path d="m43.0675 39.6252h-3.4423v3.4423h3.4423z" fill="#000"/><path d="m46.5099 39.6252h-3.4423v3.4423h3.4423z" fill="#fff"/><path d="m49.952 39.6252h-3.4422v3.4423h3.4422z" fill="#000"/><path d="m53.3944 39.6252h-3.4423v3.4423h3.4423z" fill="#fff"/><path d="m56.8366 39.6252h-3.4423v3.4423h3.4423z" fill="#fff"/><path d="m60.2789 39.6252h-3.4422v3.4423h3.4422z" fill="#000"/><path d="m63.7213 39.6252h-3.4422v3.4423h3.4422z" fill="#fff"/><path d="m67.1632 39.6252h-3.4423v3.4423h3.4423z" fill="#000"/><path d="m70.6056 39.6252h-3.4423v3.4423h3.4423z" fill="#fff"/><path d="m74.048 39.6252h-3.4423v3.4423h3.4423z" fill="#000"/><path d="m77.4901 39.6252h-3.4422v3.4423h3.4422z" fill="#fff"/><path d="m80.9325 39.6252h-3.4423v3.4423h3.4423z" fill="#000"/><path d="m84.3746 39.6252h-3.4422v3.4423h3.4422z" fill="#000"/><path d="m87.817 39.6252h-3.4422v3.4423h3.4422z" fill="#000"/><path d="m91.2594 39.6252h-3.4423v3.4423h3.4423z" fill="#000"/><path d="m94.7016 39.6252h-3.4423v3.4423h3.4423z" fill="#fff"/><path d="m98.1437 39.6252h-3.4423v3.4423h3.4423z" fill="#fff"/><path d="m101.586 39.6252h-3.4422v3.4423h3.4422z" fill="#fff"/><path d="m105.028 39.6252h-3.442v3.4423h3.442z" fill="#000"/><path d="m108.471 39.6252h-3.443v3.4423h3.443z" fill="#fff"/><path d="m111.913 39.6252h-3.442v3.4423h3.442z" fill="#fff"/><path d="m15.5294 43.0676h-3.4422v3.4423h3.4422z" fill="#fff"/><path d="m18.9716 43.0676h-3.4423v3.4423h3.4423z" fill="#000"/><path d="m22.414 43.0676h-3.4423v3.4423h3.4423z" fill="#fff"/><path d="m25.8561 43.0676h-3.4423v3.4423h3.4423z" fill="#000"/><path d="m29.2985 43.0676h-3.4423v3.4423h3.4423z" fill="#000"/><path d="m32.7409 43.0676h-3.4423v3.4423h3.4423z" fill="#000"/><path d="m36.183 43.0676h-3.4423v3.4423h3.4423z" fill="#fff"/><path d="m39.6251 43.0676h-3.4422v3.4423h3.4422z" fill="#fff"/><path d="m43.0675 43.0676h-3.4423v3.4423h3.4423z" fill="#fff"/><path d="m46.5099 43.0676h-3.4423v3.4423h3.4423z" fill="#fff"/><path d="m49.952 43.0676h-3.4422v3.4423h3.4422z" fill="#000"/><path d="m53.3944 43.0676h-3.4423v3.4423h3.4423z" fill="#fff"/><path d="m56.8366 43.0676h-3.4423v3.4423h3.4423z" fill="#000"/><path d="m60.2789 43.0676h-3.4422v3.4423h3.4422z" fill="#000"/><path d="m63.7213 43.0676h-3.4422v3.4423h3.4422z" fill="#fff"/><path d="m67.1632 43.0676h-3.4423v3.4423h3.4423z" fill="#fff"/><path d="m70.6056 43.0676h-3.4423v3.4423h3.4423z" fill="#000"/><path d="m74.048 43.0676h-3.4423v3.4423h3.4423z" fill="#000"/><path d="m77.4901 43.0676h-3.4422v3.4423h3.4422z" fill="#fff"/><path d="m80.9325 43.0676h-3.4423v3.4423h3.4423z" fill="#fff"/><path d="m84.3746 43.0676h-3.4422v3.4423h3.4422z" fill="#000"/><path d="m87.817 43.0676h-3.4422v3.4423h3.4422z" fill="#000"/><path d="m91.2594 43.0676h-3.4423v3.4423h3.4423z" fill="#000"/><path d="m94.7016 43.0676h-3.4423v3.4423h3.4423z" fill="#fff"/><path d="m98.1437 43.0676h-3.4423v3.4423h3.4423z" fill="#fff"/><path d="m101.586 43.0676h-3.4422v3.4423h3.4422z" fill="#000"/><path d="m105.028 43.0676h-3.442v3.4423h3.442z" fill="#fff"/><path d="m108.471 43.0676h-3.443v3.4423h3.443z" fill="#fff"/><path d="m111.913 43.0676h-3.442v3.4423h3.442z" fill="#000"/><path d="m15.5294 46.5098h-3.4422v3.4422h3.4422z" fill="#fff"/><path d="m18.9716 46.5098h-3.4423v3.4422h3.4423z" fill="#fff"/><path d="m22.414 46.5098h-3.4423v3.4422h3.4423z" fill="#000"/><path d="m25.8561 46.5098h-3.4423v3.4422h3.4423z" fill="#fff"/><path d="m29.2985 46.5098h-3.4423v3.4422h3.4423z" fill="#fff"/><path d="m32.7409 46.5098h-3.4423v3.4422h3.4423z" fill="#000"/><path d="m36.183 46.5098h-3.4423v3.4422h3.4423z" fill="#000"/><path d="m39.6251 46.5098h-3.4422v3.4422h3.4422z" fill="#000"/><path d="m43.0675 46.5098h-3.4423v3.4422h3.4423z" fill="#000"/><path d="m46.5099 46.5098h-3.4423v3.4422h3.4423z" fill="#000"/><path d="m49.952 46.5098h-3.4422v3.4422h3.4422z" fill="#fff"/><path d="m53.3944 46.5098h-3.4423v3.4422h3.4423z" fill="#fff"/><path d="m56.8366 46.5098h-3.4423v3.4422h3.4423z" fill="#000"/><path d="m60.2789 46.5098h-3.4422v3.4422h3.4422z" fill="#000"/><path d="m63.7213 46.5098h-3.4422v3.4422h3.4422z" fill="#fff"/><path d="m67.1632 46.5098h-3.4423v3.4422h3.4423z" fill="#fff"/><path d="m70.6056 46.5098h-3.4423v3.4422h3.4423z" fill="#fff"/><path d="m74.048 46.5098h-3.4423v3.4422h3.4423z" fill="#fff"/><path d="m77.4901 46.5098h-3.4422v3.4422h3.4422z" fill="#fff"/><path d="m80.9325 46.5098h-3.4423v3.4422h3.4423z" fill="#fff"/><path d="m84.3746 46.5098h-3.4422v3.4422h3.4422z" fill="#fff"/><path d="m87.817 46.5098h-3.4422v3.4422h3.4422z" fill="#fff"/><path d="m91.2594 46.5098h-3.4423v3.4422h3.4423z" fill="#fff"/><path d="m94.7016 46.5098h-3.4423v3.4422h3.4423z" fill="#000"/><path d="m98.1437 46.5098h-3.4423v3.4422h3.4423z" fill="#fff"/><path d="m101.586 46.5098h-3.4422v3.4422h3.4422z" fill="#fff"/><path d="m105.028 46.5098h-3.442v3.4422h3.442z" fill="#000"/><path d="m108.471 46.5098h-3.443v3.4422h3.443z" fill="#000"/><path d="m111.913 46.5098h-3.442v3.4422h3.442z" fill="#000"/><path d="m15.5294 49.9521h-3.4422v3.4423h3.4422z" fill="#fff"/><path d="m18.9716 49.9521h-3.4423v3.4423h3.4423z" fill="#000"/><path d="m22.414 49.9521h-3.4423v3.4423h3.4423z" fill="#000"/><path d="m25.8561 49.9521h-3.4423v3.4423h3.4423z" fill="#000"/><path d="m29.2985 49.9521h-3.4423v3.4423h3.4423z" fill="#000"/><path d="m32.7409 49.9521h-3.4423v3.4423h3.4423z" fill="#000"/><path d="m36.183 49.9521h-3.4423v3.4423h3.4423z" fill="#fff"/><path d="m39.6251 49.9521h-3.4422v3.4423h3.4422z" fill="#000"/><path d="m43.0675 49.9521h-3.4423v3.4423h3.4423z" fill="#fff"/><path d="m46.5099 49.9521h-3.4423v3.4423h3.4423z" fill="#fff"/><path d="m49.952 49.9521h-3.4422v3.4423h3.4422z" fill="#fff"/><path d="m53.3944 49.9521h-3.4423v3.4423h3.4423z" fill="#fff"/><path d="m56.8366 49.9521h-3.4423v3.4423h3.4423z" fill="#fff"/><path d="m60.2789 49.9521h-3.4422v3.4423h3.4422z" fill="#000"/><path d="m63.7213 49.9521h-3.4422v3.4423h3.4422z" fill="#fff"/><path d="m67.1632 49.9521h-3.4423v3.4423h3.4423z" fill="#fff"/><path d="m70.6056 49.9521h-3.4423v3.4423h3.4423z" fill="#fff"/><path d="m74.048 49.9521h-3.4423v3.4423h3.4423z" fill="#000"/><path d="m77.4901 49.9521h-3.4422v3.4423h3.4422z" fill="#000"/><path d="m80.9325 49.9521h-3.4423v3.4423h3.4423z" fill="#000"/><path d="m84.3746 49.9521h-3.4422v3.4423h3.4422z" fill="#fff"/><path d="m87.817 49.9521h-3.4422v3.4423h3.4422z" fill="#fff"/><path d="m91.2594 49.9521h-3.4423v3.4423h3.4423z" fill="#fff"/><path d="m94.7016 49.9521h-3.4423v3.4423h3.4423z" fill="#000"/><path d="m98.1437 49.9521h-3.4423v3.4423h3.4423z" fill="#000"/><path d="m101.586 49.9521h-3.4422v3.4423h3.4422z" fill="#fff"/><path d="m105.028 49.9521h-3.442v3.4423h3.442z" fill="#fff"/><path d="m108.471 49.9521h-3.443v3.4423h3.443z" fill="#000"/><path d="m111.913 49.9521h-3.442v3.4423h3.442z" fill="#fff"/><path d="m15.5294 53.3943h-3.4422v3.4423h3.4422z" fill="#000"/><path d="m18.9716 53.3943h-3.4423v3.4423h3.4423z" fill="#000"/><path d="m22.414 53.3943h-3.4423v3.4423h3.4423z" fill="#fff"/><path d="m25.8561 53.3943h-3.4423v3.4423h3.4423z" fill="#000"/><path d="m29.2985 53.3943h-3.4423v3.4423h3.4423z" fill="#000"/><path d="m32.7409 53.3943h-3.4423v3.4423h3.4423z" fill="#fff"/><path d="m36.183 53.3943h-3.4423v3.4423h3.4423z" fill="#000"/><path d="m39.6251 53.3943h-3.4422v3.4423h3.4422z" fill="#fff"/><path d="m43.0675 53.3943h-3.4423v3.4423h3.4423z" fill="#fff"/><path d="m46.5099 53.3943h-3.4423v3.4423h3.4423z" fill="#fff"/><path d="m49.952 53.3943h-3.4422v3.4423h3.4422z" fill="#fff"/><path d="m53.3944 53.3943h-3.4423v3.4423h3.4423z" fill="#fff"/><path d="m56.8366 53.3943h-3.4423v3.4423h3.4423z" fill="#fff"/><path d="m60.2789 53.3943h-3.4422v3.4423h3.4422z" fill="#000"/><path d="m63.7213 53.3943h-3.4422v3.4423h3.4422z" fill="#000"/><path d="m67.1632 53.3943h-3.4423v3.4423h3.4423z" fill="#fff"/><path d="m70.6056 53.3943h-3.4423v3.4423h3.4423z" fill="#fff"/><path d="m74.048 53.3943h-3.4423v3.4423h3.4423z" fill="#000"/><path d="m77.4901 53.3943h-3.4422v3.4423h3.4422z" fill="#000"/><path d="m80.9325 53.3943h-3.4423v3.4423h3.4423z" fill="#000"/><path d="m84.3746 53.3943h-3.4422v3.4423h3.4422z" fill="#000"/><path d="m87.817 53.3943h-3.4422v3.4423h3.4422z" fill="#000"/><path d="m91.2594 53.3943h-3.4423v3.4423h3.4423z" fill="#000"/><path d="m94.7016 53.3943h-3.4423v3.4423h3.4423z" fill="#fff"/><path d="m98.1437 53.3943h-3.4423v3.4423h3.4423z" fill="#fff"/><path d="m101.586 53.3943h-3.4422v3.4423h3.4422z" fill="#000"/><path d="m105.028 53.3943h-3.442v3.4423h3.442z" fill="#fff"/><path d="m108.471 53.3943h-3.443v3.4423h3.443z" fill="#000"/><path d="m111.913 53.3943h-3.442v3.4423h3.442z" fill="#000"/><path d="m15.5294 56.8367h-3.4422v3.4422h3.4422z" fill="#fff"/><path d="m18.9716 56.8367h-3.4423v3.4422h3.4423z" fill="#fff"/><path d="m22.414 56.8367h-3.4423v3.4422h3.4423z" fill="#000"/><path d="m25.8561 56.8367h-3.4423v3.4422h3.4423z" fill="#000"/><path d="m29.2985 56.8367h-3.4423v3.4422h3.4423z" fill="#fff"/><path d="m32.7409 56.8367h-3.4423v3.4422h3.4423z" fill="#000"/><path d="m36.183 56.8367h-3.4423v3.4422h3.4423z" fill="#fff"/><path d="m39.6251 56.8367h-3.4422v3.4422h3.4422z" fill="#000"/><path d="m43.0675 56.8367h-3.4423v3.4422h3.4423z" fill="#000"/><path d="m46.5099 56.8367h-3.4423v3.4422h3.4423z" fill="#000"/><path d="m49.952 56.8367h-3.4422v3.4422h3.4422z" fill="#fff"/><path d="m53.3944 56.8367h-3.4423v3.4422h3.4423z" fill="#fff"/><path d="m56.8366 56.8367h-3.4423v3.4422h3.4423z" fill="#000"/><path d="m60.2789 56.8367h-3.4422v3.4422h3.4422z" fill="#fff"/><path d="m63.7213 56.8367h-3.4422v3.4422h3.4422z" fill="#000"/><path d="m67.1632 56.8367h-3.4423v3.4422h3.4423z" fill="#fff"/><path d="m70.6056 56.8367h-3.4423v3.4422h3.4423z" fill="#000"/><path d="m74.048 56.8367h-3.4423v3.4422h3.4423z" fill="#fff"/><path d="m77.4901 56.8367h-3.4422v3.4422h3.4422z" fill="#fff"/><path d="m80.9325 56.8367h-3.4423v3.4422h3.4423z" fill="#fff"/><path d="m84.3746 56.8367h-3.4422v3.4422h3.4422z" fill="#000"/><path d="m87.817 56.8367h-3.4422v3.4422h3.4422z" fill="#fff"/><path d="m91.2594 56.8367h-3.4423v3.4422h3.4423z" fill="#000"/><path d="m94.7016 56.8367h-3.4423v3.4422h3.4423z" fill="#fff"/><path d="m98.1437 56.8367h-3.4423v3.4422h3.4423z" fill="#fff"/><path d="m101.586 56.8367h-3.4422v3.4422h3.4422z" fill="#000"/><path d="m105.028 56.8367h-3.442v3.4422h3.442z" fill="#fff"/><path d="m108.471 56.8367h-3.443v3.4422h3.443z" fill="#fff"/><path d="m111.913 56.8367h-3.442v3.4422h3.442z" fill="#000"/><path d="m15.5294 60.2791h-3.4422v3.4422h3.4422z" fill="#fff"/><path d="m18.9716 60.2791h-3.4423v3.4422h3.4423z" fill="#000"/><path d="m22.414 60.2791h-3.4423v3.4422h3.4423z" fill="#fff"/><path d="m25.8561 60.2791h-3.4423v3.4422h3.4423z" fill="#fff"/><path d="m29.2985 60.2791h-3.4423v3.4422h3.4423z" fill="#fff"/><path d="m32.7409 60.2791h-3.4423v3.4422h3.4423z" fill="#000"/><path d="m36.183 60.2791h-3.4423v3.4422h3.4423z" fill="#000"/><path d="m39.6251 60.2791h-3.4422v3.4422h3.4422z" fill="#fff"/><path d="m43.0675 60.2791h-3.4423v3.4422h3.4423z" fill="#fff"/><path d="m46.5099 60.2791h-3.4423v3.4422h3.4423z" fill="#000"/><path d="m49.952 60.2791h-3.4422v3.4422h3.4422z" fill="#fff"/><path d="m53.3944 60.2791h-3.4423v3.4422h3.4423z" fill="#fff"/><path d="m56.8366 60.2791h-3.4423v3.4422h3.4423z" fill="#000"/><path d="m60.2789 60.2791h-3.4422v3.4422h3.4422z" fill="#000"/><path d="m63.7213 60.2791h-3.4422v3.4422h3.4422z" fill="#fff"/><path d="m67.1632 60.2791h-3.4423v3.4422h3.4423z" fill="#fff"/><path d="m70.6056 60.2791h-3.4423v3.4422h3.4423z" fill="#fff"/><path d="m74.048 60.2791h-3.4423v3.4422h3.4423z" fill="#000"/><path d="m77.4901 60.2791h-3.4422v3.4422h3.4422z" fill="#fff"/><path d="m80.9325 60.2791h-3.4423v3.4422h3.4423z" fill="#fff"/><path d="m84.3746 60.2791h-3.4422v3.4422h3.4422z" fill="#000"/><path d="m87.817 60.2791h-3.4422v3.4422h3.4422z" fill="#000"/><path d="m91.2594 60.2791h-3.4423v3.4422h3.4423z" fill="#000"/><path d="m94.7016 60.2791h-3.4423v3.4422h3.4423z" fill="#000"/><path d="m98.1437 60.2791h-3.4423v3.4422h3.4423z" fill="#fff"/><path d="m101.586 60.2791h-3.4422v3.4422h3.4422z" fill="#000"/><path d="m105.028 60.2791h-3.442v3.4422h3.442z" fill="#fff"/><path d="m108.471 60.2791h-3.443v3.4422h3.443z" fill="#000"/><path d="m111.913 60.2791h-3.442v3.4422h3.442z" fill="#000"/><path d="m15.5294 63.7209h-3.4422v3.4423h3.4422z" fill="#fff"/><path d="m18.9716 63.7209h-3.4423v3.4423h3.4423z" fill="#000"/><path d="m22.414 63.7209h-3.4423v3.4423h3.4423z" fill="#fff"/><path d="m25.8561 63.7209h-3.4423v3.4423h3.4423z" fill="#fff"/><path d="m29.2985 63.7209h-3.4423v3.4423h3.4423z" fill="#fff"/><path d="m32.7409 63.7209h-3.4423v3.4423h3.4423z" fill="#fff"/><path d="m36.183 63.7209h-3.4423v3.4423h3.4423z" fill="#fff"/><path d="m39.6251 63.7209h-3.4422v3.4423h3.4422z" fill="#000"/><path d="m43.0675 63.7209h-3.4423v3.4423h3.4423z" fill="#000"/><path d="m46.5099 63.7209h-3.4423v3.4423h3.4423z" fill="#000"/><path d="m49.952 63.7209h-3.4422v3.4423h3.4422z" fill="#000"/><path d="m53.3944 63.7209h-3.4423v3.4423h3.4423z" fill="#000"/><path d="m56.8366 63.7209h-3.4423v3.4423h3.4423z" fill="#000"/><path d="m60.2789 63.7209h-3.4422v3.4423h3.4422z" fill="#000"/><path d="m63.7213 63.7209h-3.4422v3.4423h3.4422z" fill="#000"/><path d="m67.1632 63.7209h-3.4423v3.4423h3.4423z" fill="#000"/><path d="m70.6056 63.7209h-3.4423v3.4423h3.4423z" fill="#fff"/><path d="m74.048 63.7209h-3.4423v3.4423h3.4423z" fill="#000"/><path d="m77.4901 63.7209h-3.4422v3.4423h3.4422z" fill="#000"/><path d="m80.9325 63.7209h-3.4423v3.4423h3.4423z" fill="#000"/><path d="m84.3746 63.7209h-3.4422v3.4423h3.4422z" fill="#000"/><path d="m87.817 63.7209h-3.4422v3.4423h3.4422z" fill="#000"/><path d="m91.2594 63.7209h-3.4423v3.4423h3.4423z" fill="#fff"/><path d="m94.7016 63.7209h-3.4423v3.4423h3.4423z" fill="#000"/><path d="m98.1437 63.7209h-3.4423v3.4423h3.4423z" fill="#fff"/><path d="m101.586 63.7209h-3.4422v3.4423h3.4422z" fill="#000"/><path d="m105.028 63.7209h-3.442v3.4423h3.442z" fill="#fff"/><path d="m108.471 63.7209h-3.443v3.4423h3.443z" fill="#000"/><path d="m111.913 63.7209h-3.442v3.4423h3.442z" fill="#fff"/><path d="m15.5294 67.1633h-3.4422v3.4423h3.4422z" fill="#fff"/><path d="m18.9716 67.1633h-3.4423v3.4423h3.4423z" fill="#fff"/><path d="m22.414 67.1633h-3.4423v3.4423h3.4423z" fill="#000"/><path d="m25.8561 67.1633h-3.4423v3.4423h3.4423z" fill="#fff"/><path d="m29.2985 67.1633h-3.4423v3.4423h3.4423z" fill="#fff"/><path d="m32.7409 67.1633h-3.4423v3.4423h3.4423z" fill="#fff"/><path d="m36.183 67.1633h-3.4423v3.4423h3.4423z" fill="#000"/><path d="m39.6251 67.1633h-3.4422v3.4423h3.4422z" fill="#fff"/><path d="m43.0675 67.1633h-3.4423v3.4423h3.4423z" fill="#fff"/><path d="m46.5099 67.1633h-3.4423v3.4423h3.4423z" fill="#fff"/><path d="m49.952 67.1633h-3.4422v3.4423h3.4422z" fill="#000"/><path d="m53.3944 67.1633h-3.4423v3.4423h3.4423z" fill="#fff"/><path d="m56.8366 67.1633h-3.4423v3.4423h3.4423z" fill="#fff"/><path d="m60.2789 67.1633h-3.4422v3.4423h3.4422z" fill="#000"/><path d="m63.7213 67.1633h-3.4422v3.4423h3.4422z" fill="#fff"/><path d="m67.1632 67.1633h-3.4423v3.4423h3.4423z" fill="#000"/><path d="m70.6056 67.1633h-3.4423v3.4423h3.4423z" fill="#fff"/><path d="m74.048 67.1633h-3.4423v3.4423h3.4423z" fill="#fff"/><path d="m77.4901 67.1633h-3.4422v3.4423h3.4422z" fill="#fff"/><path d="m80.9325 67.1633h-3.4423v3.4423h3.4423z" fill="#000"/><path d="m84.3746 67.1633h-3.4422v3.4423h3.4422z" fill="#000"/><path d="m87.817 67.1633h-3.4422v3.4423h3.4422z" fill="#fff"/><path d="m91.2594 67.1633h-3.4423v3.4423h3.4423z" fill="#000"/><path d="m94.7016 67.1633h-3.4423v3.4423h3.4423z" fill="#fff"/><path d="m98.1437 67.1633h-3.4423v3.4423h3.4423z" fill="#fff"/><path d="m101.586 67.1633h-3.4422v3.4423h3.4422z" fill="#000"/><path d="m105.028 67.1633h-3.442v3.4423h3.442z" fill="#fff"/><path d="m108.471 67.1633h-3.443v3.4423h3.443z" fill="#000"/><path d="m111.913 67.1633h-3.442v3.4423h3.442z" fill="#000"/><path d="m15.5294 70.6057h-3.4422v3.4423h3.4422z" fill="#fff"/><path d="m18.9716 70.6057h-3.4423v3.4423h3.4423z" fill="#fff"/><path d="m22.414 70.6057h-3.4423v3.4423h3.4423z" fill="#000"/><path d="m25.8561 70.6057h-3.4423v3.4423h3.4423z" fill="#fff"/><path d="m29.2985 70.6057h-3.4423v3.4423h3.4423z" fill="#000"/><path d="m32.7409 70.6057h-3.4423v3.4423h3.4423z" fill="#000"/><path d="m36.183 70.6057h-3.4423v3.4423h3.4423z" fill="#fff"/><path d="m39.6251 70.6057h-3.4422v3.4423h3.4422z" fill="#000"/><path d="m43.0675 70.6057h-3.4423v3.4423h3.4423z" fill="#fff"/><path d="m46.5099 70.6057h-3.4423v3.4423h3.4423z" fill="#fff"/><path d="m49.952 70.6057h-3.4422v3.4423h3.4422z" fill="#000"/><path d="m53.3944 70.6057h-3.4423v3.4423h3.4423z" fill="#fff"/><path d="m56.8366 70.6057h-3.4423v3.4423h3.4423z" fill="#000"/><path d="m60.2789 70.6057h-3.4422v3.4423h3.4422z" fill="#000"/><path d="m63.7213 70.6057h-3.4422v3.4423h3.4422z" fill="#fff"/><path d="m67.1632 70.6057h-3.4423v3.4423h3.4423z" fill="#fff"/><path d="m70.6056 70.6057h-3.4423v3.4423h3.4423z" fill="#fff"/><path d="m74.048 70.6057h-3.4423v3.4423h3.4423z" fill="#000"/><path d="m77.4901 70.6057h-3.4422v3.4423h3.4422z" fill="#fff"/><path d="m80.9325 70.6057h-3.4423v3.4423h3.4423z" fill="#fff"/><path d="m84.3746 70.6057h-3.4422v3.4423h3.4422z" fill="#000"/><path d="m87.817 70.6057h-3.4422v3.4423h3.4422z" fill="#000"/><path d="m91.2594 70.6057h-3.4423v3.4423h3.4423z" fill="#000"/><path d="m94.7016 70.6057h-3.4423v3.4423h3.4423z" fill="#fff"/><path d="m98.1437 70.6057h-3.4423v3.4423h3.4423z" fill="#fff"/><path d="m101.586 70.6057h-3.4422v3.4423h3.4422z" fill="#000"/><path d="m105.028 70.6057h-3.442v3.4423h3.442z" fill="#000"/><path d="m108.471 70.6057h-3.443v3.4423h3.443z" fill="#fff"/><path d="m111.913 70.6057h-3.442v3.4423h3.442z" fill="#000"/><path d="m15.5294 74.0479h-3.4422v3.4422h3.4422z" fill="#000"/><path d="m18.9716 74.0479h-3.4423v3.4422h3.4423z" fill="#fff"/><path d="m22.414 74.0479h-3.4423v3.4422h3.4423z" fill="#000"/><path d="m25.8561 74.0479h-3.4423v3.4422h3.4423z" fill="#fff"/><path d="m29.2985 74.0479h-3.4423v3.4422h3.4423z" fill="#fff"/><path d="m32.7409 74.0479h-3.4423v3.4422h3.4423z" fill="#000"/><path d="m36.183 74.0479h-3.4423v3.4422h3.4423z" fill="#000"/><path d="m39.6251 74.0479h-3.4422v3.4422h3.4422z" fill="#fff"/><path d="m43.0675 74.0479h-3.4423v3.4422h3.4423z" fill="#fff"/><path d="m46.5099 74.0479h-3.4423v3.4422h3.4423z" fill="#fff"/><path d="m49.952 74.0479h-3.4422v3.4422h3.4422z" fill="#fff"/><path d="m53.3944 74.0479h-3.4423v3.4422h3.4423z" fill="#fff"/><path d="m56.8366 74.0479h-3.4423v3.4422h3.4423z" fill="#fff"/><path d="m60.2789 74.0479h-3.4422v3.4422h3.4422z" fill="#fff"/><path d="m63.7213 74.0479h-3.4422v3.4422h3.4422z" fill="#000"/><path d="m67.1632 74.0479h-3.4423v3.4422h3.4423z" fill="#fff"/><path d="m70.6056 74.0479h-3.4423v3.4422h3.4423z" fill="#000"/><path d="m74.048 74.0479h-3.4423v3.4422h3.4423z" fill="#000"/><path d="m77.4901 74.0479h-3.4422v3.4422h3.4422z" fill="#000"/><path d="m80.9325 74.0479h-3.4423v3.4422h3.4423z" fill="#fff"/><path d="m84.3746 74.0479h-3.4422v3.4422h3.4422z" fill="#fff"/><path d="m87.817 74.0479h-3.4422v3.4422h3.4422z" fill="#000"/><path d="m91.2594 74.0479h-3.4423v3.4422h3.4423z" fill="#fff"/><path d="m94.7016 74.0479h-3.4423v3.4422h3.4423z" fill="#000"/><path d="m98.1437 74.0479h-3.4423v3.4422h3.4423z" fill="#fff"/><path d="m101.586 74.0479h-3.4422v3.4422h3.4422z" fill="#fff"/><path d="m105.028 74.0479h-3.442v3.4422h3.442z" fill="#fff"/><path d="m108.471 74.0479h-3.443v3.4422h3.443z" fill="#000"/><path d="m111.913 74.0479h-3.442v3.4422h3.442z" fill="#000"/><path d="m15.5294 77.4902h-3.4422v3.4423h3.4422z" fill="#fff"/><path d="m18.9716 77.4902h-3.4423v3.4423h3.4423z" fill="#000"/><path d="m22.414 77.4902h-3.4423v3.4423h3.4423z" fill="#fff"/><path d="m25.8561 77.4902h-3.4423v3.4423h3.4423z" fill="#fff"/><path d="m29.2985 77.4902h-3.4423v3.4423h3.4423z" fill="#000"/><path d="m32.7409 77.4902h-3.4423v3.4423h3.4423z" fill="#000"/><path d="m36.183 77.4902h-3.4423v3.4423h3.4423z" fill="#fff"/><path d="m39.6251 77.4902h-3.4422v3.4423h3.4422z" fill="#fff"/><path d="m43.0675 77.4902h-3.4423v3.4423h3.4423z" fill="#fff"/><path d="m46.5099 77.4902h-3.4423v3.4423h3.4423z" fill="#000"/><path d="m49.952 77.4902h-3.4422v3.4423h3.4422z" fill="#fff"/><path d="m53.3944 77.4902h-3.4423v3.4423h3.4423z" fill="#000"/><path d="m56.8366 77.4902h-3.4423v3.4423h3.4423z" fill="#000"/><path d="m60.2789 77.4902h-3.4422v3.4423h3.4422z" fill="#000"/><path d="m63.7213 77.4902h-3.4422v3.4423h3.4422z" fill="#000"/><path d="m67.1632 77.4902h-3.4423v3.4423h3.4423z" fill="#fff"/><path d="m70.6056 77.4902h-3.4423v3.4423h3.4423z" fill="#000"/><path d="m74.048 77.4902h-3.4423v3.4423h3.4423z" fill="#000"/><path d="m77.4901 77.4902h-3.4422v3.4423h3.4422z" fill="#fff"/><path d="m80.9325 77.4902h-3.4423v3.4423h3.4423z" fill="#000"/><path d="m84.3746 77.4902h-3.4422v3.4423h3.4422z" fill="#000"/><path d="m87.817 77.4902h-3.4422v3.4423h3.4422z" fill="#000"/><path d="m91.2594 77.4902h-3.4423v3.4423h3.4423z" fill="#000"/><path d="m94.7016 77.4902h-3.4423v3.4423h3.4423z" fill="#fff"/><path d="m98.1437 77.4902h-3.4423v3.4423h3.4423z" fill="#000"/><path d="m101.586 77.4902h-3.4422v3.4423h3.4422z" fill="#000"/><path d="m105.028 77.4902h-3.442v3.4423h3.442z" fill="#fff"/><path d="m108.471 77.4902h-3.443v3.4423h3.443z" fill="#000"/><path d="m111.913 77.4902h-3.442v3.4423h3.442z" fill="#fff"/><path d="m15.5294 80.9324h-3.4422v3.4422h3.4422z" fill="#000"/><path d="m18.9716 80.9324h-3.4423v3.4422h3.4423z" fill="#fff"/><path d="m22.414 80.9324h-3.4423v3.4422h3.4423z" fill="#fff"/><path d="m25.8561 80.9324h-3.4423v3.4422h3.4423z" fill="#000"/><path d="m29.2985 80.9324h-3.4423v3.4422h3.4423z" fill="#000"/><path d="m32.7409 80.9324h-3.4423v3.4422h3.4423z" fill="#fff"/><path d="m36.183 80.9324h-3.4423v3.4422h3.4423z" fill="#000"/><path d="m39.6251 80.9324h-3.4422v3.4422h3.4422z" fill="#000"/><path d="m43.0675 80.9324h-3.4423v3.4422h3.4423z" fill="#fff"/><path d="m46.5099 80.9324h-3.4423v3.4422h3.4423z" fill="#000"/><path d="m49.952 80.9324h-3.4422v3.4422h3.4422z" fill="#fff"/><path d="m53.3944 80.9324h-3.4423v3.4422h3.4423z" fill="#000"/><path d="m56.8366 80.9324h-3.4423v3.4422h3.4423z" fill="#fff"/><path d="m60.2789 80.9324h-3.4422v3.4422h3.4422z" fill="#000"/><path d="m63.7213 80.9324h-3.4422v3.4422h3.4422z" fill="#fff"/><path d="m67.1632 80.9324h-3.4423v3.4422h3.4423z" fill="#fff"/><path d="m70.6056 80.9324h-3.4423v3.4422h3.4423z" fill="#fff"/><path d="m74.048 80.9324h-3.4423v3.4422h3.4423z" fill="#fff"/><path d="m77.4901 80.9324h-3.4422v3.4422h3.4422z" fill="#fff"/><path d="m80.9325 80.9324h-3.4423v3.4422h3.4423z" fill="#fff"/><path d="m84.3746 80.9324h-3.4422v3.4422h3.4422z" fill="#000"/><path d="m87.817 80.9324h-3.4422v3.4422h3.4422z" fill="#000"/><path d="m91.2594 80.9324h-3.4423v3.4422h3.4423z" fill="#000"/><path d="m94.7016 80.9324h-3.4423v3.4422h3.4423z" fill="#000"/><path d="m98.1437 80.9324h-3.4423v3.4422h3.4423z" fill="#000"/><g fill="#fff"><path d="m101.586 80.9324h-3.4422v3.4422h3.4422z"/><path d="m105.028 80.9324h-3.442v3.4422h3.442z"/><path d="m108.471 80.9324h-3.443v3.4422h3.443z"/><path d="m111.913 80.9324h-3.442v3.4422h3.442z"/><path d="m15.5294 84.3748h-3.4422v3.4422h3.4422z"/><path d="m18.9716 84.3748h-3.4423v3.4422h3.4423z"/><path d="m22.414 84.3748h-3.4423v3.4422h3.4423z"/><path d="m25.8561 84.3748h-3.4423v3.4422h3.4423z"/><path d="m29.2985 84.3748h-3.4423v3.4422h3.4423z"/><path d="m32.7409 84.3748h-3.4423v3.4422h3.4423z"/><path d="m36.183 84.3748h-3.4423v3.4422h3.4423z"/><path d="m39.6251 84.3748h-3.4422v3.4422h3.4422z"/></g><path d="m43.0675 84.3748h-3.4423v3.4422h3.4423z" fill="#000"/><path d="m46.5099 84.3748h-3.4423v3.4422h3.4423z" fill="#fff"/><path d="m49.952 84.3748h-3.4422v3.4422h3.4422z" fill="#000"/><path d="m53.3944 84.3748h-3.4423v3.4422h3.4423z" fill="#fff"/><path d="m56.8366 84.3748h-3.4423v3.4422h3.4423z" fill="#fff"/><path d="m60.2789 84.3748h-3.4422v3.4422h3.4422z" fill="#000"/><path d="m63.7213 84.3748h-3.4422v3.4422h3.4422z" fill="#fff"/><path d="m67.1632 84.3748h-3.4423v3.4422h3.4423z" fill="#fff"/><path d="m70.6056 84.3748h-3.4423v3.4422h3.4423z" fill="#000"/><path d="m74.048 84.3748h-3.4423v3.4422h3.4423z" fill="#fff"/><path d="m77.4901 84.3748h-3.4422v3.4422h3.4422z" fill="#fff"/><path d="m80.9325 84.3748h-3.4423v3.4422h3.4423z" fill="#000"/><path d="m84.3746 84.3748h-3.4422v3.4422h3.4422z" fill="#000"/><path d="m87.817 84.3748h-3.4422v3.4422h3.4422z" fill="#fff"/><path d="m91.2594 84.3748h-3.4423v3.4422h3.4423z" fill="#fff"/><path d="m94.7016 84.3748h-3.4423v3.4422h3.4423z" fill="#fff"/><path d="m98.1437 84.3748h-3.4423v3.4422h3.4423z" fill="#000"/><path d="m101.586 84.3748h-3.4422v3.4422h3.4422z" fill="#fff"/><path d="m105.028 84.3748h-3.442v3.4422h3.442z" fill="#000"/><path d="m108.471 84.3748h-3.443v3.4422h3.443z" fill="#000"/><path d="m111.913 84.3748h-3.442v3.4422h3.442z" fill="#000"/><path d="m15.5294 87.8171h-3.4422v3.4423h3.4422z" fill="#000"/><path d="m18.9716 87.8171h-3.4423v3.4423h3.4423z" fill="#000"/><path d="m22.414 87.8171h-3.4423v3.4423h3.4423z" fill="#000"/><path d="m25.8561 87.8171h-3.4423v3.4423h3.4423z" fill="#000"/><path d="m29.2985 87.8171h-3.4423v3.4423h3.4423z" fill="#000"/><path d="m32.7409 87.8171h-3.4423v3.4423h3.4423z" fill="#000"/><path d="m36.183 87.8171h-3.4423v3.4423h3.4423z" fill="#000"/><path d="m39.6251 87.8171h-3.4422v3.4423h3.4422z" fill="#fff"/><path d="m43.0675 87.8171h-3.4423v3.4423h3.4423z" fill="#000"/><path d="m46.5099 87.8171h-3.4423v3.4423h3.4423z" fill="#000"/><path d="m49.952 87.8171h-3.4422v3.4423h3.4422z" fill="#fff"/><path d="m53.3944 87.8171h-3.4423v3.4423h3.4423z" fill="#fff"/><path d="m56.8366 87.8171h-3.4423v3.4423h3.4423z" fill="#000"/><path d="m60.2789 87.8171h-3.4422v3.4423h3.4422z" fill="#000"/><path d="m63.7213 87.8171h-3.4422v3.4423h3.4422z" fill="#fff"/><path d="m67.1632 87.8171h-3.4423v3.4423h3.4423z" fill="#fff"/><path d="m70.6056 87.8171h-3.4423v3.4423h3.4423z" fill="#fff"/><path d="m74.048 87.8171h-3.4423v3.4423h3.4423z" fill="#000"/><path d="m77.4901 87.8171h-3.4422v3.4423h3.4422z" fill="#fff"/><path d="m80.9325 87.8171h-3.4423v3.4423h3.4423z" fill="#000"/><path d="m84.3746 87.8171h-3.4422v3.4423h3.4422z" fill="#000"/><path d="m87.817 87.8171h-3.4422v3.4423h3.4422z" fill="#fff"/><path d="m91.2594 87.8171h-3.4423v3.4423h3.4423z" fill="#000"/><path d="m94.7016 87.8171h-3.4423v3.4423h3.4423z" fill="#fff"/><path d="m98.1437 87.8171h-3.4423v3.4423h3.4423z" fill="#000"/><path d="m101.586 87.8171h-3.4422v3.4423h3.4422z" fill="#000"/><path d="m105.028 87.8171h-3.442v3.4423h3.442z" fill="#fff"/><path d="m108.471 87.8171h-3.443v3.4423h3.443z" fill="#000"/><path d="m111.913 87.8171h-3.442v3.4423h3.442z" fill="#000"/><path d="m15.5294 91.2593h-3.4422v3.4423h3.4422z" fill="#000"/><path d="m18.9716 91.2593h-3.4423v3.4423h3.4423z" fill="#fff"/><path d="m22.414 91.2593h-3.4423v3.4423h3.4423z" fill="#fff"/><path d="m25.8561 91.2593h-3.4423v3.4423h3.4423z" fill="#fff"/><path d="m29.2985 91.2593h-3.4423v3.4423h3.4423z" fill="#fff"/><path d="m32.7409 91.2593h-3.4423v3.4423h3.4423z" fill="#fff"/><path d="m36.183 91.2593h-3.4423v3.4423h3.4423z" fill="#000"/><path d="m39.6251 91.2593h-3.4422v3.4423h3.4422z" fill="#fff"/><path d="m43.0675 91.2593h-3.4423v3.4423h3.4423z" fill="#000"/><path d="m46.5099 91.2593h-3.4423v3.4423h3.4423z" fill="#fff"/><path d="m49.952 91.2593h-3.4422v3.4423h3.4422z" fill="#fff"/><path d="m53.3944 91.2593h-3.4423v3.4423h3.4423z" fill="#fff"/><path d="m56.8366 91.2593h-3.4423v3.4423h3.4423z" fill="#fff"/><path d="m60.2789 91.2593h-3.4422v3.4423h3.4422z" fill="#000"/><path d="m63.7213 91.2593h-3.4422v3.4423h3.4422z" fill="#fff"/><path d="m67.1632 91.2593h-3.4423v3.4423h3.4423z" fill="#fff"/><path d="m70.6056 91.2593h-3.4423v3.4423h3.4423z" fill="#000"/><path d="m74.048 91.2593h-3.4423v3.4423h3.4423z" fill="#000"/><path d="m77.4901 91.2593h-3.4422v3.4423h3.4422z" fill="#fff"/><path d="m80.9325 91.2593h-3.4423v3.4423h3.4423z" fill="#fff"/><path d="m84.3746 91.2593h-3.4422v3.4423h3.4422z" fill="#000"/><path d="m87.817 91.2593h-3.4422v3.4423h3.4422z" fill="#fff"/><path d="m91.2594 91.2593h-3.4423v3.4423h3.4423z" fill="#fff"/><path d="m94.7016 91.2593h-3.4423v3.4423h3.4423z" fill="#fff"/><path d="m98.1437 91.2593h-3.4423v3.4423h3.4423z" fill="#000"/><path d="m101.586 91.2593h-3.4422v3.4423h3.4422z" fill="#000"/><path d="m105.028 91.2593h-3.442v3.4423h3.442z" fill="#fff"/><path d="m108.471 91.2593h-3.443v3.4423h3.443z" fill="#000"/><path d="m111.913 91.2593h-3.442v3.4423h3.442z" fill="#000"/><path d="m15.5294 94.7014h-3.4422v3.4423h3.4422z" fill="#000"/><path d="m18.9716 94.7014h-3.4423v3.4423h3.4423z" fill="#fff"/><path d="m22.414 94.7014h-3.4423v3.4423h3.4423z" fill="#000"/><path d="m25.8561 94.7014h-3.4423v3.4423h3.4423z" fill="#000"/><path d="m29.2985 94.7014h-3.4423v3.4423h3.4423z" fill="#000"/><path d="m32.7409 94.7014h-3.4423v3.4423h3.4423z" fill="#fff"/><path d="m36.183 94.7014h-3.4423v3.4423h3.4423z" fill="#000"/><path d="m39.6251 94.7014h-3.4422v3.4423h3.4422z" fill="#fff"/><path d="m43.0675 94.7014h-3.4423v3.4423h3.4423z" fill="#000"/><path d="m46.5099 94.7014h-3.4423v3.4423h3.4423z" fill="#000"/><path d="m49.952 94.7014h-3.4422v3.4423h3.4422z" fill="#fff"/><path d="m53.3944 94.7014h-3.4423v3.4423h3.4423z" fill="#fff"/><path d="m56.8366 94.7014h-3.4423v3.4423h3.4423z" fill="#fff"/><path d="m60.2789 94.7014h-3.4422v3.4423h3.4422z" fill="#fff"/><path d="m63.7213 94.7014h-3.4422v3.4423h3.4422z" fill="#fff"/><path d="m67.1632 94.7014h-3.4423v3.4423h3.4423z" fill="#000"/><path d="m70.6056 94.7014h-3.4423v3.4423h3.4423z" fill="#000"/><path d="m74.048 94.7014h-3.4423v3.4423h3.4423z" fill="#000"/><path d="m77.4901 94.7014h-3.4422v3.4423h3.4422z" fill="#000"/><path d="m80.9325 94.7014h-3.4423v3.4423h3.4423z" fill="#fff"/><path d="m84.3746 94.7014h-3.4422v3.4423h3.4422z" fill="#000"/><path d="m87.817 94.7014h-3.4422v3.4423h3.4422z" fill="#000"/><path d="m91.2594 94.7014h-3.4423v3.4423h3.4423z" fill="#000"/><path d="m94.7016 94.7014h-3.4423v3.4423h3.4423z" fill="#000"/><path d="m98.1437 94.7014h-3.4423v3.4423h3.4423z" fill="#000"/><path d="m101.586 94.7014h-3.4422v3.4423h3.4422z" fill="#fff"/><path d="m105.028 94.7014h-3.442v3.4423h3.442z" fill="#fff"/><path d="m108.471 94.7014h-3.443v3.4423h3.443z" fill="#fff"/><path d="m111.913 94.7014h-3.442v3.4423h3.442z" fill="#000"/><path d="m15.5294 98.1438h-3.4422v3.4422h3.4422z" fill="#000"/><path d="m18.9716 98.1438h-3.4423v3.4422h3.4423z" fill="#fff"/><path d="m22.414 98.1438h-3.4423v3.4422h3.4423z" fill="#000"/><path d="m25.8561 98.1438h-3.4423v3.4422h3.4423z" fill="#000"/><path d="m29.2985 98.1438h-3.4423v3.4422h3.4423z" fill="#000"/><path d="m32.7409 98.1438h-3.4423v3.4422h3.4423z" fill="#fff"/><path d="m36.183 98.1438h-3.4423v3.4422h3.4423z" fill="#000"/><path d="m39.6251 98.1438h-3.4422v3.4422h3.4422z" fill="#fff"/><path d="m43.0675 98.1438h-3.4423v3.4422h3.4423z" fill="#fff"/><path d="m46.5099 98.1438h-3.4423v3.4422h3.4423z" fill="#000"/><path d="m49.952 98.1438h-3.4422v3.4422h3.4422z" fill="#000"/><path d="m53.3944 98.1438h-3.4423v3.4422h3.4423z" fill="#fff"/><path d="m56.8366 98.1438h-3.4423v3.4422h3.4423z" fill="#000"/><path d="m60.2789 98.1438h-3.4422v3.4422h3.4422z" fill="#fff"/><path d="m63.7213 98.1438h-3.4422v3.4422h3.4422z" fill="#000"/><path d="m67.1632 98.1438h-3.4423v3.4422h3.4423z" fill="#fff"/><path d="m70.6056 98.1438h-3.4423v3.4422h3.4423z" fill="#fff"/><path d="m74.048 98.1438h-3.4423v3.4422h3.4423z" fill="#000"/><path d="m77.4901 98.1438h-3.4422v3.4422h3.4422z" fill="#000"/><path d="m80.9325 98.1438h-3.4423v3.4422h3.4423z" fill="#000"/><path d="m84.3746 98.1438h-3.4422v3.4422h3.4422z" fill="#000"/><path d="m87.817 98.1438h-3.4422v3.4422h3.4422z" fill="#fff"/><path d="m91.2594 98.1438h-3.4423v3.4422h3.4423z" fill="#fff"/><path d="m94.7016 98.1438h-3.4423v3.4422h3.4423z" fill="#000"/><path d="m98.1437 98.1438h-3.4423v3.4422h3.4423z" fill="#000"/><path d="m101.586 98.1438h-3.4422v3.4422h3.4422z" fill="#fff"/><path d="m105.028 98.1438h-3.442v3.4422h3.442z" fill="#000"/><path d="m108.471 98.1438h-3.443v3.4422h3.443z" fill="#fff"/><path d="m111.913 98.1438h-3.442v3.4422h3.442z" fill="#000"/><path d="m15.5294 101.586h-3.4422v3.442h3.4422z" fill="#000"/><path d="m18.9716 101.586h-3.4423v3.442h3.4423z" fill="#fff"/><path d="m22.414 101.586h-3.4423v3.442h3.4423z" fill="#000"/><path d="m25.8561 101.586h-3.4423v3.442h3.4423z" fill="#000"/><path d="m29.2985 101.586h-3.4423v3.442h3.4423z" fill="#000"/><path d="m32.7409 101.586h-3.4423v3.442h3.4423z" fill="#fff"/><path d="m36.183 101.586h-3.4423v3.442h3.4423z" fill="#000"/><path d="m39.6251 101.586h-3.4422v3.442h3.4422z" fill="#fff"/><path d="m43.0675 101.586h-3.4423v3.442h3.4423z" fill="#000"/><path d="m46.5099 101.586h-3.4423v3.442h3.4423z" fill="#fff"/><path d="m49.952 101.586h-3.4422v3.442h3.4422z" fill="#000"/><path d="m53.3944 101.586h-3.4423v3.442h3.4423z" fill="#fff"/><path d="m56.8366 101.586h-3.4423v3.442h3.4423z" fill="#fff"/><path d="m60.2789 101.586h-3.4422v3.442h3.4422z" fill="#000"/><path d="m63.7213 101.586h-3.4422v3.442h3.4422z" fill="#fff"/><path d="m67.1632 101.586h-3.4423v3.442h3.4423z" fill="#fff"/><path d="m70.6056 101.586h-3.4423v3.442h3.4423z" fill="#fff"/><path d="m74.048 101.586h-3.4423v3.442h3.4423z" fill="#fff"/><path d="m77.4901 101.586h-3.4422v3.442h3.4422z" fill="#000"/><path d="m80.9325 101.586h-3.4423v3.442h3.4423z" fill="#000"/><path d="m84.3746 101.586h-3.4422v3.442h3.4422z" fill="#fff"/><path d="m87.817 101.586h-3.4422v3.442h3.4422z" fill="#fff"/><path d="m91.2594 101.586h-3.4423v3.442h3.4423z" fill="#fff"/><path d="m94.7016 101.586h-3.4423v3.442h3.4423z" fill="#000"/><path d="m98.1437 101.586h-3.4423v3.442h3.4423z" fill="#000"/><path d="m101.586 101.586h-3.4422v3.442h3.4422z" fill="#000"/><path d="m105.028 101.586h-3.442v3.442h3.442z" fill="#fff"/><path d="m108.471 101.586h-3.443v3.442h3.443z" fill="#fff"/><path d="m111.913 101.586h-3.442v3.442h3.442z" fill="#000"/><path d="m15.5294 105.028h-3.4422v3.443h3.4422z" fill="#000"/><path d="m18.9716 105.028h-3.4423v3.443h3.4423z" fill="#fff"/><path d="m22.414 105.028h-3.4423v3.443h3.4423z" fill="#fff"/><path d="m25.8561 105.028h-3.4423v3.443h3.4423z" fill="#fff"/><path d="m29.2985 105.028h-3.4423v3.443h3.4423z" fill="#fff"/><path d="m32.7409 105.028h-3.4423v3.443h3.4423z" fill="#fff"/><path d="m36.183 105.028h-3.4423v3.443h3.4423z" fill="#000"/><path d="m39.6251 105.028h-3.4422v3.443h3.4422z" fill="#fff"/><path d="m43.0675 105.028h-3.4423v3.443h3.4423z" fill="#000"/><path d="m46.5099 105.028h-3.4423v3.443h3.4423z" fill="#fff"/><path d="m49.952 105.028h-3.4422v3.443h3.4422z" fill="#fff"/><path d="m53.3944 105.028h-3.4423v3.443h3.4423z" fill="#000"/><path d="m56.8366 105.028h-3.4423v3.443h3.4423z" fill="#fff"/><path d="m60.2789 105.028h-3.4422v3.443h3.4422z" fill="#000"/><path d="m63.7213 105.028h-3.4422v3.443h3.4422z" fill="#000"/><path d="m67.1632 105.028h-3.4423v3.443h3.4423z" fill="#fff"/><path d="m70.6056 105.028h-3.4423v3.443h3.4423z" fill="#000"/><path d="m74.048 105.028h-3.4423v3.443h3.4423z" fill="#000"/><path d="m77.4901 105.028h-3.4422v3.443h3.4422z" fill="#000"/><path d="m80.9325 105.028h-3.4423v3.443h3.4423z" fill="#000"/><path d="m84.3746 105.028h-3.4422v3.443h3.4422z" fill="#000"/><path d="m87.817 105.028h-3.4422v3.443h3.4422z" fill="#fff"/><path d="m91.2594 105.028h-3.4423v3.443h3.4423z" fill="#000"/><path d="m94.7016 105.028h-3.4423v3.443h3.4423z" fill="#000"/><path d="m98.1437 105.028h-3.4423v3.443h3.4423z" fill="#fff"/><path d="m101.586 105.028h-3.4422v3.443h3.4422z" fill="#fff"/><path d="m105.028 105.028h-3.442v3.443h3.442z" fill="#fff"/><path d="m108.471 105.028h-3.443v3.443h3.443z" fill="#000"/><path d="m111.913 105.028h-3.442v3.443h3.442z" fill="#fff"/><path d="m15.5294 108.471h-3.4422v3.442h3.4422z" fill="#000"/><path d="m18.9716 108.471h-3.4423v3.442h3.4423z" fill="#000"/><path d="m22.414 108.471h-3.4423v3.442h3.4423z" fill="#000"/><path d="m25.8561 108.471h-3.4423v3.442h3.4423z" fill="#000"/><path d="m29.2985 108.471h-3.4423v3.442h3.4423z" fill="#000"/><path d="m32.7409 108.471h-3.4423v3.442h3.4423z" fill="#000"/><path d="m36.183 108.471h-3.4423v3.442h3.4423z" fill="#000"/><path d="m39.6251 108.471h-3.4422v3.442h3.4422z" fill="#fff"/><path d="m43.0675 108.471h-3.4423v3.442h3.4423z" fill="#000"/><path d="m46.5099 108.471h-3.4423v3.442h3.4423z" fill="#fff"/><path d="m49.952 108.471h-3.4422v3.442h3.4422z" fill="#fff"/><path d="m53.3944 108.471h-3.4423v3.442h3.4423z" fill="#fff"/><path d="m56.8366 108.471h-3.4423v3.442h3.4423z" fill="#fff"/><path d="m60.2789 108.471h-3.4422v3.442h3.4422z" fill="#000"/><path d="m63.7213 108.471h-3.4422v3.442h3.4422z" fill="#fff"/><path d="m67.1632 108.471h-3.4423v3.442h3.4423z" fill="#fff"/><path d="m70.6056 108.471h-3.4423v3.442h3.4423z" fill="#fff"/><path d="m74.048 108.471h-3.4423v3.442h3.4423z" fill="#fff"/><path d="m77.4901 108.471h-3.4422v3.442h3.4422z" fill="#fff"/><path d="m80.9325 108.471h-3.4423v3.442h3.4423z" fill="#000"/><path d="m84.3746 108.471h-3.4422v3.442h3.4422z" fill="#000"/><path d="m87.817 108.471h-3.4422v3.442h3.4422z" fill="#000"/><path d="m91.2594 108.471h-3.4423v3.442h3.4423z" fill="#fff"/><path d="m94.7016 108.471h-3.4423v3.442h3.4423z" fill="#fff"/><path d="m98.1437 108.471h-3.4423v3.442h3.4423z" fill="#000"/><path d="m101.586 108.471h-3.4422v3.442h3.4422z" fill="#000"/><path d="m105.028 108.471h-3.442v3.442h3.442z" fill="#fff"/><path d="m108.471 108.471h-3.443v3.442h3.443z" fill="#000"/><path d="m111.913 108.471h-3.442v3.442h3.442z" fill="#000"/></svg>