<svg fill="none" height="66" viewBox="0 0 71 66" width="71" xmlns="http://www.w3.org/2000/svg" xmlns:xlink="http://www.w3.org/1999/xlink"><linearGradient id="a"><stop offset="0" stop-color="#dd303c"/><stop offset="1" stop-color="#ff6771"/></linearGradient><linearGradient id="b" gradientUnits="userSpaceOnUse" x1="26.2762" x2="26.556" xlink:href="#a" y1="47.6939" y2="28.528"/><linearGradient id="c"><stop offset="0" stop-color="#f5a623"/><stop offset=".47394" stop-color="#fa8829"/><stop offset="1" stop-color="#ff692f"/></linearGradient><linearGradient id="d" gradientUnits="userSpaceOnUse" x1="39.9905" x2="29.5415" xlink:href="#c" y1="24.5104" y2="21.245"/><linearGradient id="e" gradientUnits="userSpaceOnUse" x1="26.9101" x2="40.329" xlink:href="#c" y1="34.1441" y2="34.1441"/><linearGradient id="f" gradientUnits="userSpaceOnUse" x1="56.317" x2="38.9147" y1="25.8164" y2="23.6498"><stop offset="0" stop-color="#fff500"/><stop offset="1" stop-color="#fd8d2c"/></linearGradient><linearGradient id="g"><stop offset=".148272" stop-color="#11998e"/><stop offset="1" stop-color="#7cdf7b"/><stop offset="1" stop-color="#38ef7d"/></linearGradient><linearGradient id="h" gradientUnits="userSpaceOnUse" x1="52.0721" x2="54.6843" xlink:href="#g" y1="45.4082" y2="30.7143"/><linearGradient id="i" gradientUnits="userSpaceOnUse" x1="4.86685" x2="4.86685" xlink:href="#c" y1="39.6955" y2="46.8827"/><linearGradient id="j" gradientUnits="userSpaceOnUse" x1="3.86765" x2="4.89915" xlink:href="#a" y1="49.503" y2="49.504"/><linearGradient id="k" gradientUnits="userSpaceOnUse" x1="64.6737" x2="64.6737" xlink:href="#c" y1="55.2041" y2="62.3913"/><linearGradient id="l" gradientUnits="userSpaceOnUse" x1="62.7145" x2="62.7145" xlink:href="#c" y1="1.00003" y2="10.1038"/><linearGradient id="m" gradientUnits="userSpaceOnUse" x1="61.7153" x2="62.7468" xlink:href="#a" y1="13.4228" y2="13.4236"/><linearGradient id="n" gradientUnits="userSpaceOnUse" x1="61.8383" x2="62.6539" xlink:href="#g" y1="2.86865" y2="2.87826"/><g clip-rule="evenodd" fill-rule="evenodd"><path d="m22.1388 28.8525 2.1917 2.2028-.2044.557c-.2482.6767-.2928 2.0786-.0853 2.6839.0764.2228.6072 1.4162 1.1795 2.652l1.0406 2.2468-.1953.6396c-.2832.9277-.4889 2.1055-.5857 3.3545-.0905 1.1671-.1913 1.4099-.7626 1.8364-.2739.2044-.3867.2088-5.3794.2088-4.9928 0-5.1056-.0044-5.3795-.2088-.7441-.5555-.849-1.0827-.6541-3.2866.4117-4.6564 1.9101-8.7691 4.5918-12.6035.7482-1.0698 1.8806-2.4857 1.988-2.4857.0347 0 1.0494.9912 2.2547 2.2028z" fill="#fb3f03"/><path d="m22.1388 28.8525 2.1917 2.2028-.2044.557c-.2482.6767-.2928 2.0786-.0853 2.6839.0764.2228.6072 1.4162 1.1795 2.652l1.0406 2.2468-.1953.6396c-.2832.9277-.4889 2.1055-.5857 3.3545-.0905 1.1671-.1913 1.4099-.7626 1.8364-.2739.2044-.3867.2088-5.3794.2088-4.9928 0-5.1056-.0044-5.3795-.2088-.7441-.5555-.849-1.0827-.6541-3.2866.4117-4.6564 1.9101-8.7691 4.5918-12.6035.7482-1.0698 1.8806-2.4857 1.988-2.4857.0347 0 1.0494.9912 2.2547 2.2028z" fill="url(#b)"/><path d="m37.6129 24.0852v6.1054l-.2279.0457c-.1254.0251-.5241.0985-.8862.1631-.362.0647-1.0815.2527-1.5988.418l-.9406.3005-.3761-.2291c-.2068-.126-.9001-.5686-1.5407-.9836-1.7153-1.1113-2.2979-1.3606-3.3043-1.4133-.6589-.0347-.9851.0027-1.5661.1791l-.7339.2229-2.2199-2.2198-2.2198-2.2199.7936-.6542c3.8318-3.1584 8.7044-5.1969 13.6189-5.6978l1.2018-.1225z" fill="#fb7003"/><path d="m37.6129 24.0852v6.1054l-.2279.0457c-.1254.0251-.5241.0985-.8862.1631-.362.0647-1.0815.2527-1.5988.418l-.9406.3005-.3761-.2291c-.2068-.126-.9001-.5686-1.5407-.9836-1.7153-1.1113-2.2979-1.3606-3.3043-1.4133-.6589-.0347-.9851.0027-1.5661.1791l-.7339.2229-2.2199-2.2198-2.2198-2.2199.7936-.6542c3.8318-3.1584 8.7044-5.1969 13.6189-5.6978l1.2018-.1225z" fill="url(#d)"/><path d="m29.9848 32.2038c3.6328 2.2785 12.5307 7.9964 12.9726 8.3363 1.4593 1.1226 2.364 3.1971 2.2289 5.1107-.2243 3.1784-2.8222 5.6203-5.9951 5.6349-1.0501.0047-1.7218-.1518-2.734-.6373-.9964-.4779-1.7217-1.1053-2.3101-1.9985-.6284-.9538-7.1758-15.0541-7.2295-15.5691-.0875-.8391.6048-1.5698 1.4871-1.5698.4125 0 .6218.0917 1.5801.6928z" fill="#fb3f03"/><path d="m29.9848 32.2038c3.6328 2.2785 12.5307 7.9964 12.9726 8.3363 1.4593 1.1226 2.364 3.1971 2.2289 5.1107-.2243 3.1784-2.8222 5.6203-5.9951 5.6349-1.0501.0047-1.7218-.1518-2.734-.6373-.9964-.4779-1.7217-1.1053-2.3101-1.9985-.6284-.9538-7.1758-15.0541-7.2295-15.5691-.0875-.8391.6048-1.5698 1.4871-1.5698.4125 0 .6218.0917 1.5801.6928z" fill="url(#e)"/><path d="m29.9848 32.2038c3.6328 2.2785 12.5307 7.9964 12.9726 8.3363 1.4593 1.1226 2.364 3.1971 2.2289 5.1107-.2243 3.1784-2.8222 5.6203-5.9951 5.6349-1.0501.0047-1.7218-.1518-2.734-.6373-.9964-.4779-1.7217-1.1053-2.3101-1.9985-.6284-.9538-7.1758-15.0541-7.2295-15.5691-.0875-.8391.6048-1.5698 1.4871-1.5698.4125 0 .6218.0917 1.5801.6928z" fill="#fb3f03"/><path d="m29.9848 32.2038c3.6328 2.2785 12.5307 7.9964 12.9726 8.3363 1.4593 1.1226 2.364 3.1971 2.2289 5.1107-.2243 3.1784-2.8222 5.6203-5.9951 5.6349-1.0501.0047-1.7218-.1518-2.734-.6373-.9964-.4779-1.7217-1.1053-2.3101-1.9985-.6284-.9538-7.1758-15.0541-7.2295-15.5691-.0875-.8391.6048-1.5698 1.4871-1.5698.4125 0 .6218.0917 1.5801.6928z" fill="url(#e)"/><path d="m41.8671 18.105c4.8483.4775 9.78 2.5418 13.6053 5.6948l.7936.6541-4.2873 4.2881c-2.3579 2.3585-4.318 4.2881-4.3555 4.2881-.0376 0-.4252-.245-.8613-.5445-1.488-1.0217-3.1411-1.7108-5.026-2.0948-.5665-.1155-1.0426-.2225-1.0579-.2378s-.0161-2.7581-.0018-6.0953l.0262-6.0675z" fill="#fbcf01"/><path d="m41.8671 18.105c4.8483.4775 9.78 2.5418 13.6053 5.6948l.7936.6541-4.2873 4.2881c-2.3579 2.3585-4.318 4.2881-4.3555 4.2881-.0376 0-.4252-.245-.8613-.5445-1.488-1.0217-3.1411-1.7108-5.026-2.0948-.5665-.1155-1.0426-.2225-1.0579-.2378s-.0161-2.7581-.0018-6.0953l.0262-6.0675z" fill="url(#f)"/><path d="m59.0612 27.3839c3.4352 4.158 5.4385 9.0238 5.9099 14.355.1948 2.2039.0899 2.731-.6542 3.2866-.2738.2044-.3867.2088-5.3794.2088s-5.1056-.0044-5.3794-.2088c-.5713-.4265-.6721-.6693-.7627-1.8364-.0987-1.2729-.311-2.4832-.605-3.449-.2992-.9826-1.195-2.7806-1.8537-3.7208l-.5668-.8089 4.2795-4.2804c2.3538-2.3541 4.3078-4.2803 4.3423-4.2803s.3357.3303.6695.7342z" fill="#55dc8d"/><path d="m59.0612 27.3839c3.4352 4.158 5.4385 9.0238 5.9099 14.355.1948 2.2039.0899 2.731-.6542 3.2866-.2738.2044-.3867.2088-5.3794.2088s-5.1056-.0044-5.3794-.2088c-.5713-.4265-.6721-.6693-.7627-1.8364-.0987-1.2729-.311-2.4832-.605-3.449-.2992-.9826-1.195-2.7806-1.8537-3.7208l-.5668-.8089 4.2795-4.2804c2.3538-2.3541 4.3078-4.2803 4.3423-4.2803s.3357.3303.6695.7342z" fill="url(#h)"/><path d="m29.9848 32.2038c3.6328 2.2785 12.5307 7.9964 12.9726 8.3363 1.4593 1.1226 2.364 3.1971 2.2289 5.1107-.2243 3.1784-2.8222 5.6203-5.9951 5.6349-1.0501.0047-1.7218-.1518-2.734-.6373-.9964-.4779-1.7217-1.1053-2.3101-1.9985-.6284-.9538-7.1758-15.0541-7.2295-15.5691-.0875-.8391.6048-1.5698 1.4871-1.5698.4125 0 .6218.0917 1.5801.6928z" fill="#fb3f03"/><path d="m29.9848 32.2038c3.6328 2.2785 12.5307 7.9964 12.9726 8.3363 1.4593 1.1226 2.364 3.1971 2.2289 5.1107-.2243 3.1784-2.8222 5.6203-5.9951 5.6349-1.0501.0047-1.7218-.1518-2.734-.6373-.9964-.4779-1.7217-1.1053-2.3101-1.9985-.6284-.9538-7.1758-15.0541-7.2295-15.5691-.0875-.8391.6048-1.5698 1.4871-1.5698.4125 0 .6218.0917 1.5801.6928z" fill="url(#e)"/></g><path d="m5.65306 49.4915c0 .3606-.29238.653-.65306.653s-.65306-.2924-.65306-.653zm-1.11484-10.2578c.25503-.255.66853-.255.92356 0l4.15606 4.1561c.25504.255.25504.6685 0 .9236-.25503.255-.66853.255-.92357 0l-3.69427-3.6943-3.69428 3.6943c-.25503.255-.668528.255-.923564 0-.255037-.2551-.255037-.6686 0-.9236zm-.19128 10.2578v-9.796h1.30612v9.796z" fill="#fb3f03"/><path d="m5.65306 49.4915c0 .3606-.29238.653-.65306.653s-.65306-.2924-.65306-.653zm-1.11484-10.2578c.25503-.255.66853-.255.92356 0l4.15606 4.1561c.25504.255.25504.6685 0 .9236-.25503.255-.66853.255-.92357 0l-3.69427-3.6943-3.69428 3.6943c-.25503.255-.668528.255-.923564 0-.255037-.2551-.255037-.6686 0-.9236zm-.19128 10.2578v-9.796h1.30612v9.796z" fill="url(#i)"/><path d="m5.65306 49.4915c0 .3606-.29238.653-.65306.653s-.65306-.2924-.65306-.653zm-1.11484-10.2578c.25503-.255.66853-.255.92356 0l4.15606 4.1561c.25504.255.25504.6685 0 .9236-.25503.255-.66853.255-.92357 0l-3.69427-3.6943-3.69428 3.6943c-.25503.255-.668528.255-.923564 0-.255037-.2551-.255037-.6686 0-.9236zm-.19128 10.2578v-9.796h1.30612v9.796z" fill="url(#j)"/><path d="m65.4599 65c0 .3607-.2924.6531-.653.6531-.3607 0-.6531-.2924-.6531-.6531zm-1.1148-10.2577c.255-.255.6685-.255.9236 0l4.156 4.156c.255.2551.255.6686 0 .9236-.255.2551-.6685.2551-.9236 0l-3.6942-3.6943-3.6943 3.6943c-.255.2551-.6685.2551-.9236 0-.255-.255-.255-.6685 0-.9236zm-.1913 10.2577v-9.7959h1.3061v9.7959z" fill="#fb3f03"/><path d="m65.4599 65c0 .3607-.2924.6531-.653.6531-.3607 0-.6531-.2924-.6531-.6531zm-1.1148-10.2577c.255-.255.6685-.255.9236 0l4.156 4.156c.255.2551.255.6686 0 .9236-.255.2551-.6685.2551-.9236 0l-3.6942-3.6943-3.6943 3.6943c-.255.2551-.6685.2551-.9236 0-.255-.255-.255-.6685 0-.9236zm-.1913 10.2577v-9.7959h1.3061v9.7959z" fill="url(#k)"/><path d="m63.8273 13.4082c0 .541-.4386.9796-.9796.9796s-.9796-.4386-.9796-.9796zm-1.6723-13.100848c.3826-.3825547 1.0028-.3825547 1.3854 0l6.2341 6.234088c.3825.38256.3825 1.0028 0 1.38535-.3826.38256-1.0028.38256-1.3854 0l-5.5414-5.54141-5.5414 5.54141c-.3826.38256-1.0028.38256-1.3854 0-.3825-.38255-.3825-1.00279 0-1.38535zm-.2869 13.100848v-12.40817h1.9592v12.40817z" fill="#fb3f03"/><path d="m63.8273 13.4082c0 .541-.4386.9796-.9796.9796s-.9796-.4386-.9796-.9796zm-1.6723-13.100848c.3826-.3825547 1.0028-.3825547 1.3854 0l6.2341 6.234088c.3825.38256.3825 1.0028 0 1.38535-.3826.38256-1.0028.38256-1.3854 0l-5.5414-5.54141-5.5414 5.54141c-.3826.38256-1.0028.38256-1.3854 0-.3825-.38255-.3825-1.00279 0-1.38535zm-.2869 13.100848v-12.40817h1.9592v12.40817z" fill="url(#l)"/><path d="m63.8273 13.4082c0 .541-.4386.9796-.9796.9796s-.9796-.4386-.9796-.9796zm-1.6723-13.100848c.3826-.3825547 1.0028-.3825547 1.3854 0l6.2341 6.234088c.3825.38256.3825 1.0028 0 1.38535-.3826.38256-1.0028.38256-1.3854 0l-5.5414-5.54141-5.5414 5.54141c-.3826.38256-1.0028.38256-1.3854 0-.3825-.38255-.3825-1.00279 0-1.38535zm-.2869 13.100848v-12.40817h1.9592v12.40817z" fill="url(#m)"/><path d="m63.8273 13.4082c0 .541-.4386.9796-.9796.9796s-.9796-.4386-.9796-.9796zm-1.6723-13.100848c.3826-.3825547 1.0028-.3825547 1.3854 0l6.2341 6.234088c.3825.38256.3825 1.0028 0 1.38535-.3826.38256-1.0028.38256-1.3854 0l-5.5414-5.54141-5.5414 5.54141c-.3826.38256-1.0028.38256-1.3854 0-.3825-.38255-.3825-1.00279 0-1.38535zm-.2869 13.100848v-12.40817h1.9592v12.40817z" fill="url(#n)"/></svg>