<svg fill="none" height="64" viewBox="0 0 62 64" width="62" xmlns="http://www.w3.org/2000/svg" xmlns:xlink="http://www.w3.org/1999/xlink"><linearGradient id="a"><stop offset="0" stop-color="#f5a623"/><stop offset=".47394" stop-color="#fa8829"/><stop offset="1" stop-color="#ff692f"/></linearGradient><linearGradient id="b" gradientUnits="userSpaceOnUse" x1="49.0063" x2="21.3374" xlink:href="#a" y1="14.07" y2="14.07"/><linearGradient id="c" gradientUnits="userSpaceOnUse" x1="5.75954" x2="1.5338" xlink:href="#a" y1="14.2632" y2="14.2632"/><linearGradient id="d" gradientUnits="userSpaceOnUse" x1="54.7029" x2="50.4772" xlink:href="#a" y1="1.08616" y2="1.08616"/><linearGradient id="e" gradientUnits="userSpaceOnUse" x1="61.4929" x2="55.9684" xlink:href="#a" y1="54.7554" y2="54.7554"/><path clip-rule="evenodd" d="m25.4557 7.54525-9.7486.05131-.7183.28528c-1.5536.61683-2.8421 1.92447-3.4098 3.46026l-.2844.7696v20.0103 20.0104l.2844.7696c.5796 1.568 1.8931 2.8815 3.4611 3.461l.7696.2845h14.3151 14.3151l.667-.2432c1.4272-.5206 2.621-1.5737 3.2933-2.9055.632-1.2519.6029-.4238.6046-17.2704l.0015-15.391-6.5931-6.5948c-4.7726-4.774-6.6781-6.61618-6.901-6.6718-.1693-.04228-4.6948-.05377-10.0565-.02555zm8.5685 5.93295c0 2.1598.0453 3.9264.1097 4.2842.2972 1.6502 1.5742 3.3441 3.0791 4.0847 1.2618.621 1.7367.6764 5.8172.6785l3.6187.0017-.0271 14.6999-.027 14.6999-.2736.5131c-.3294.6178-.996 1.2765-1.6248 1.6054l-.4618.2417h-14.1098-14.1099l-.513-.2736c-.6931-.3695-1.3153-1.0353-1.6623-1.7787l-.2875-.6157-.0286-19.0355c-.0171-11.409.0097-19.2844.0671-19.6569.2328-1.5127 1.1839-2.571 2.6809-2.98308.3493-.09615 2.5675-.12878 9.1072-.13412l8.6455-.00687zm10.4426 6.6703c-.2969.0179-1.6483.0179-3.0028 0-2.4381-.0324-2.4685-.0354-3.028-.3102-.7376-.3623-1.3992-1.0205-1.7326-1.7235-.2673-.5635-.2677-.5695-.2965-3.5916l-.0287-3.0272 4.3144 4.3099 4.3144 4.3099z" fill="#fb8903" fill-rule="evenodd"/><path clip-rule="evenodd" d="m25.4557 7.54525-9.7486.05131-.7183.28528c-1.5536.61683-2.8421 1.92447-3.4098 3.46026l-.2844.7696v20.0103 20.0104l.2844.7696c.5796 1.568 1.8931 2.8815 3.4611 3.461l.7696.2845h14.3151 14.3151l.667-.2432c1.4272-.5206 2.621-1.5737 3.2933-2.9055.632-1.2519.6029-.4238.6046-17.2704l.0015-15.391-6.5931-6.5948c-4.7726-4.774-6.6781-6.61618-6.901-6.6718-.1693-.04228-4.6948-.05377-10.0565-.02555zm8.5685 5.93295c0 2.1598.0453 3.9264.1097 4.2842.2972 1.6502 1.5742 3.3441 3.0791 4.0847 1.2618.621 1.7367.6764 5.8172.6785l3.6187.0017-.0271 14.6999-.027 14.6999-.2736.5131c-.3294.6178-.996 1.2765-1.6248 1.6054l-.4618.2417h-14.1098-14.1099l-.513-.2736c-.6931-.3695-1.3153-1.0353-1.6623-1.7787l-.2875-.6157-.0286-19.0355c-.0171-11.409.0097-19.2844.0671-19.6569.2328-1.5127 1.1839-2.571 2.6809-2.98308.3493-.09615 2.5675-.12878 9.1072-.13412l8.6455-.00687zm10.4426 6.6703c-.2969.0179-1.6483.0179-3.0028 0-2.4381-.0324-2.4685-.0354-3.028-.3102-.7376-.3623-1.3992-1.0205-1.7326-1.7235-.2673-.5635-.2677-.5695-.2965-3.5916l-.0287-3.0272 4.3144 4.3099 4.3144 4.3099z" fill="url(#b)" fill-rule="evenodd"/><rect fill="#fb8903" height="4.39235" rx="1.75694" width="4.39235" x="34.2613" y="32.0015"/><rect fill="#fb8903" height="4.39235" rx="1.75694" width="4.39235" x="28.1091" y="32.0015"/><rect fill="#fb8903" height="4.39235" rx="1.75694" width="4.39235" x="21.9617" y="32.0015"/><g clip-rule="evenodd" fill-rule="evenodd"><path d="m2.46407 13.1932c-.36738.0315-.7994.1493-1.09982.3001-.20694.1038-.32586.182-.516926.3396-.437086.3606-.734496.8498-.83873812 1.3796-.02950348.15.01796352.2719.12800812.3288.063422.0328.796069.124.926416.1154.20466-.0136.34536-.1295.45285-.373.17591-.3984.38937-.6282.73028-.786.24868-.1152.5576-.1628.85152-.1312.23763.0255.35311.0573.53795.1477.37117.1816.59101.4991.61018.8813.01143.2275-.03081.3895-.15086.579-.07559.1193-.21863.255-.65856.6247-.78955.6635-1.05875.975-1.19339 1.381-.06629.1999-.09514.3479-.11642.5977-.01602.1879-.01506.2263.00749.3028.04885.1659.17505.2905.34532.3411.11689.0347.56529.036.67988.002.22589-.0671.34715-.2321.38098-.5184.04582-.3879.1536-.5331.82746-1.1148.67462-.5823 1.01972-.9524 1.18467-1.2701.38892-.7492.22117-1.6541-.4266-2.3012-.28502-.2847-.57097-.4724-.94428-.6198-.46047-.1818-1.10219-.2589-1.71741-.2063zm.01594 6.611c-.13857.0423-.26229.1513-.32457.286-.03193.069-.03406.0987-.03406.4721 0 .3906.00078.4001.03902.4778.04978.1012.14724.1986.2483.2482.07273.0357.10166.0394.35009.0447.1763.0037.30144-.0011.35863-.0138.10706-.0238.23684-.107.29228-.1873.09047-.131.09694-.1631.10333-.5129.00836-.457-.02161-.5775-.1766-.7102-.11966-.1024-.19679-.1197-.52629-.1182-.15964.0008-.30821.0069-.33013.0136z" fill="#fb8903"/><path d="m2.46407 13.1932c-.36738.0315-.7994.1493-1.09982.3001-.20694.1038-.32586.182-.516926.3396-.437086.3606-.734496.8498-.83873812 1.3796-.02950348.15.01796352.2719.12800812.3288.063422.0328.796069.124.926416.1154.20466-.0136.34536-.1295.45285-.373.17591-.3984.38937-.6282.73028-.786.24868-.1152.5576-.1628.85152-.1312.23763.0255.35311.0573.53795.1477.37117.1816.59101.4991.61018.8813.01143.2275-.03081.3895-.15086.579-.07559.1193-.21863.255-.65856.6247-.78955.6635-1.05875.975-1.19339 1.381-.06629.1999-.09514.3479-.11642.5977-.01602.1879-.01506.2263.00749.3028.04885.1659.17505.2905.34532.3411.11689.0347.56529.036.67988.002.22589-.0671.34715-.2321.38098-.5184.04582-.3879.1536-.5331.82746-1.1148.67462-.5823 1.01972-.9524 1.18467-1.2701.38892-.7492.22117-1.6541-.4266-2.3012-.28502-.2847-.57097-.4724-.94428-.6198-.46047-.1818-1.10219-.2589-1.71741-.2063zm.01594 6.611c-.13857.0423-.26229.1513-.32457.286-.03193.069-.03406.0987-.03406.4721 0 .3906.00078.4001.03902.4778.04978.1012.14724.1986.2483.2482.07273.0357.10166.0394.35009.0447.1763.0037.30144-.0011.35863-.0138.10706-.0238.23684-.107.29228-.1873.09047-.131.09694-.1631.10333-.5129.00836-.457-.02161-.5775-.1766-.7102-.11966-.1024-.19679-.1197-.52629-.1182-.15964.0008-.30821.0069-.33013.0136z" fill="url(#c)"/><path d="m51.4074.0162331c-.3674.0314321-.7994.1492869-1.0998.3000399-.2069.103844-.3259.181978-.5169.339601-.4371.360576-.7345.849796-.8388 1.379666-.0295.14994.018.27183.1281.32875.0634.03279.796.12404.9264.11537.2046-.0136.3453-.12946.4528-.37295.1759-.3984.3894-.62818.7303-.78606.2487-.11518.5576-.16275.8515-.13115.2377.02554.3531.05726.538.1477.3711.18162.591.49912.6102.88132.0114.22744-.0309.3895-.1509.57898-.0756.11931-.2186.255-.6586.62471-.7895.66352-1.0587.97502-1.1934 1.38096-.0663.19989-.0951.34797-.1164.59772-.016.18787-.015.2263.0075.30284.0489.16583.1751.29046.3453.34102.1169.03472.5653.03606.6799.00203.2259-.06709.3472-.23208.381-.51838.0458-.38786.1536-.53305.8275-1.11479.6746-.58235 1.0197-.95237 1.1846-1.27015.3889-.74921.2212-1.65404-.4266-2.30116-.285-.284723-.571-.472423-.9443-.619813-.4604-.1818191-1.1021-.2588852-1.7174-.2062539zm.016 6.6109369c-.1386.0423-.2623.15131-.3246.286-.0319.06903-.0341.09874-.0341.47215 0 .39056.0008.40006.0391.47776.0497.10119.1472.19861.2483.24823.0727.0357.1016.0394.35.04467.1764.00375.3015-.00107.3587-.0138.107-.02383.2368-.10697.2923-.18724.0904-.131.0969-.16315.1033-.51297.0083-.45701-.0216-.57748-.1766-.71014-.1197-.10243-.1968-.11975-.5263-.11819-.1596.00075-.3082.00684-.3301.01353z" fill="#fb8903"/><path d="m51.4074.0162331c-.3674.0314321-.7994.1492869-1.0998.3000399-.2069.103844-.3259.181978-.5169.339601-.4371.360576-.7345.849796-.8388 1.379666-.0295.14994.018.27183.1281.32875.0634.03279.796.12404.9264.11537.2046-.0136.3453-.12946.4528-.37295.1759-.3984.3894-.62818.7303-.78606.2487-.11518.5576-.16275.8515-.13115.2377.02554.3531.05726.538.1477.3711.18162.591.49912.6102.88132.0114.22744-.0309.3895-.1509.57898-.0756.11931-.2186.255-.6586.62471-.7895.66352-1.0587.97502-1.1934 1.38096-.0663.19989-.0951.34797-.1164.59772-.016.18787-.015.2263.0075.30284.0489.16583.1751.29046.3453.34102.1169.03472.5653.03606.6799.00203.2259-.06709.3472-.23208.381-.51838.0458-.38786.1536-.53305.8275-1.11479.6746-.58235 1.0197-.95237 1.1846-1.27015.3889-.74921.2212-1.65404-.4266-2.30116-.285-.284723-.571-.472423-.9443-.619813-.4604-.1818191-1.1021-.2588852-1.7174-.2062539zm.016 6.6109369c-.1386.0423-.2623.15131-.3246.286-.0319.06903-.0341.09874-.0341.47215 0 .39056.0008.40006.0391.47776.0497.10119.1472.19861.2483.24823.0727.0357.1016.0394.35.04467.1764.00375.3015-.00107.3587-.0138.107-.02383.2368-.10697.2923-.18724.0904-.131.0969-.16315.1033-.51297.0083-.45701-.0216-.57748-.1766-.71014-.1197-.10243-.1968-.11975-.5263-.11819-.1596.00075-.3082.00684-.3301.01353z" fill="url(#d)"/><path d="m57.1846 53.3567c-.4803.0411-1.0451.1951-1.4379.3922-.2705.1358-.426.2379-.6758.444-.5714.4714-.9602 1.111-1.0965 1.8037-.0386.196.0235.3554.1674.4298.0829.0429 1.0407.1622 1.2111.1508.2676-.0177.4515-.1692.5921-.4875.2299-.5209.509-.8213.9547-1.0277.3251-.1506.729-.2128 1.1132-.1715.3107.0334.4617.0749.7033.1931.4853.2375.7727.6526.7977 1.1522.015.2974-.0402.5092-.1972.757-.0988.1559-.2858.3333-.861.8167-1.0322.8674-1.3841 1.2747-1.5601 1.8054-.0867.2613-.1244.4549-.1522.7814-.021.2456-.0197.2959.0097.3959.0639.2168.2289.3798.4515.4459.1528.0453.739.0471.8888.0026.2954-.0877.4539-.3034.4981-.6777.0599-.5071.2008-.6969 1.0818-1.4574.882-.7614 1.3331-1.2451 1.5488-1.6605.5084-.9795.2891-2.1625-.5577-3.0085-.3727-.3722-.7465-.6176-1.2345-.8103-.602-.2377-1.441-.3384-2.2453-.2696zm.0208 8.6428c-.1811.0553-.3429.1978-.4243.3739-.0417.0902-.0445.1291-.0445.6173 0 .5105.001.523.051.6246.0651.1322.1925.2596.3246.3245.0951.0466.1329.0515.4577.0584.2305.0049.3941-.0014.4689-.0181.1399-.0311.3096-.1398.3821-.2448.1182-.1712.1267-.2133.1351-.6706.0109-.5975-.0283-.755-.2309-.9284-.1565-.1339-.2573-.1566-.6881-.1545-.2087.001-.4029.0089-.4316.0177z" fill="#fb8903"/><path d="m57.1846 53.3567c-.4803.0411-1.0451.1951-1.4379.3922-.2705.1358-.426.2379-.6758.444-.5714.4714-.9602 1.111-1.0965 1.8037-.0386.196.0235.3554.1674.4298.0829.0429 1.0407.1622 1.2111.1508.2676-.0177.4515-.1692.5921-.4875.2299-.5209.509-.8213.9547-1.0277.3251-.1506.729-.2128 1.1132-.1715.3107.0334.4617.0749.7033.1931.4853.2375.7727.6526.7977 1.1522.015.2974-.0402.5092-.1972.757-.0988.1559-.2858.3333-.861.8167-1.0322.8674-1.3841 1.2747-1.5601 1.8054-.0867.2613-.1244.4549-.1522.7814-.021.2456-.0197.2959.0097.3959.0639.2168.2289.3798.4515.4459.1528.0453.739.0471.8888.0026.2954-.0877.4539-.3034.4981-.6777.0599-.5071.2008-.6969 1.0818-1.4574.882-.7614 1.3331-1.2451 1.5488-1.6605.5084-.9795.2891-2.1625-.5577-3.0085-.3727-.3722-.7465-.6176-1.2345-.8103-.602-.2377-1.441-.3384-2.2453-.2696zm.0208 8.6428c-.1811.0553-.3429.1978-.4243.3739-.0417.0902-.0445.1291-.0445.6173 0 .5105.001.523.051.6246.0651.1322.1925.2596.3246.3245.0951.0466.1329.0515.4577.0584.2305.0049.3941-.0014.4689-.0181.1399-.0311.3096-.1398.3821-.2448.1182-.1712.1267-.2133.1351-.6706.0109-.5975-.0283-.755-.2309-.9284-.1565-.1339-.2573-.1566-.6881-.1545-.2087.001-.4029.0089-.4316.0177z" fill="url(#e)"/></g></svg>