<svg fill="none" height="64" viewBox="0 0 64 64" width="64" xmlns="http://www.w3.org/2000/svg" xmlns:xlink="http://www.w3.org/1999/xlink"><linearGradient id="a" gradientUnits="userSpaceOnUse" x1="64" x2="-.000003" y1="73.5" y2="-22"><stop offset="0" stop-color="#f7ebdf"/><stop offset="1" stop-color="#d3a478"/></linearGradient><path clip-rule="evenodd" d="m1.40593 1.40891-1.40490663 1.40879 2.56218663 2.55981c1.40916 1.40791 2.56219 2.59631 2.56219 2.64094 0 .0445-.21088.11988-.46876.1675-1.42141.26251-3.26583 1.67905-3.953724 3.03645-.7381436 1.4568-.70264265.4053-.70264265 20.7804 0 20.3701-.03525085 19.3241.70101765 20.7771.446509.8813 1.532159 1.988 2.407939 2.4547 1.53966.8207-.22614.7688 26.13607.7688h23.9424l4.0021 4.0007 4.0023 4.0009 1.404-1.4081 1.4039-1.4079-30.5946-30.5945-30.59468-30.5945zm19.12797 2.78594c-1.0571.28464-1.9117.78765-2.7323 1.60817-.4226.42276-.9218 1.0709-1.1089 1.44041l-.3404.67164 1.6232 1.62317c1.8318 1.83176 1.7936 1.82506 2.0311.36513.1234-.75764.3594-1.1644.9173-1.58091.3424-.25563.433-.25776 11.0772-.25776 10.6441 0 10.7347.00213 11.0771.25776.5784.43176.805.84427.9232 1.67984.1181.8353.3446 1.2477.923 1.6797.3359.2509.523.2594 7.0772.3203 6.5541.0609 6.7413.0694 7.0772.3203.1897.1417.461.413.6027.6028.2573.3446.2578.3806.2903 18.8376.0289 16.4475.0111 18.5436-.1608 18.9549l-.1932.4625 1.429 1.429 1.429 1.4292.4549-.6851c.2503-.3768.5795-.9894.7318-1.3614l.2769-.6763.0336-18.938c.0236-13.3316-.0067-19.1327-.103-19.5959-.3371-1.624-1.6403-3.34329-3.0916-4.07868-1.3299-.67389-1.6226-.70102-7.5843-.70152l-5.5051-.00037-.4138-.80015c-.744-1.43904-2.2094-2.58256-3.8605-3.01258-1.0355-.26975-21.8773-.264-22.8808.00625zm-6.2526 12.90075c2.8019 2.8013 5.0945 5.1272 5.0945 5.1685s-.308.5353-.6846 1.0979c-1.1747 1.7551-1.9389 3.5609-2.3978 5.6662-.314 1.4411-.3096 4.6175.0084 6.0997.6878 3.2049 2.1117 5.8201 4.4329 8.1413 2.322 2.3219 4.9433 3.749 8.1413 4.4317 1.3312.2842 4.5207.3216 5.8126.0682 2.1407-.42 4.3185-1.3279 6.1651-2.5702l.9147-.6155 3.7104 3.7107 3.7102 3.7107-21.9602-.032c-21.9599-.032-21.96015-.032-22.30528-.2898-.18988-.1417-.46114-.413-.60289-.6028-.25726-.3446-.25788-.3841-.29363-18.7428-.01963-10.1186-.00338-18.5787.03625-18.8002.08975-.5012.61527-1.1399 1.1184-1.359.25713-.112.97115-.1676 2.19318-.171l1.81205-.0049zm15.6167-.9678c-1.0098.1424-2.5039.5231-3.4441.8775l-.7345.2769 1.5652 1.5651 1.5651 1.5652 1.3543-.2221c3.7989-.6232 7.4696.5802 10.2494 3.3601 2.7795 2.7794 3.9832 6.4506 3.3602 10.2482l-.2219 1.3533 1.5433 1.547c1.0577 1.0602 1.5748 1.4991 1.6434 1.3943.055-.0841.2679-.6837.4732-1.3326 1.0293-3.2542.9591-6.944-.1928-10.133-.8182-2.2655-2.0016-4.103-3.7913-5.8871-2.3216-2.3141-4.748-3.6598-7.8913-4.3764-1.2272-.2798-4.247-.41-5.4782-.2364zm23.2849.0505c-1.2612.5492-1.5591 2.2258-.5711 3.2139.8109.8108 1.9687.8108 2.7796 0 1.5514-1.5515-.194-4.0914-2.2085-3.2139zm-14.628 25.7765c-.4854.3915-2.248 1.233-3.193 1.5245-3.2791 1.0118-6.9267.4868-9.8945-1.4241-1.1764-.7574-2.8857-2.494-3.6196-3.6772-.6626-1.0682-1.2455-2.4536-1.559-3.7048-.3217-1.284-.2894-4.1608.061-5.4452.2954-1.083.966-2.6027 1.5505-3.5135l.3905-.6086 8.296 8.2923 8.2959 8.2923z" fill="url(#a)" fill-rule="evenodd"/></svg>