<svg fill="none" height="33" viewBox="0 0 95 33" width="95" xmlns="http://www.w3.org/2000/svg" xmlns:xlink="http://www.w3.org/1999/xlink"><clipPath id="a"><path d="m16.0234 1.70483h62.3965v28.641h-62.3965z"/></clipPath><g fill="#000" opacity=".4"><path d="m17.9121 28.4215s-.3921 1.1685-2.757 1.4205c-2.3649.2523-3.3739-.252-3.3739-.252s1.5767-1.2292 3.0902-1.2926c1.5136-.0631 3.0407.1241 3.0407.1241z"/><path d="m17.9138 28.4215s.178-1.2223-1.7805-2.5715c-1.9589-1.3489-3.0864-1.3864-3.0864-1.3864s.6471 1.6656 2.2234 2.6408c1.2882.7968 2.6435 1.3171 2.6435 1.3171z"/><path d="m15.1102 27.5561s-1.206-.5441-3.0271-.5441-3.19248.9461-3.19248.9461 1.34788.5435 3.28728.5435c1.939.0004 2.9323-.9455 2.9323-.9455z"/><path d="m12.8806 26.3975s-.0978-1.3195-.967-2.9193c-.8691-1.6005-2.35501-2.3541-2.35501-2.3541s.16537 1.444 1.09111 3.1482c.9257 1.7038 2.2309 2.1252 2.2309 2.1252z"/><path d="m11.9725 26.2329s-1.0451-.8115-2.81538-1.2377c-1.77029-.4266-3.32509.1718-3.32509.1718s1.18315.8449 3.06868 1.2991c1.88489.4538 3.07179-.2332 3.07179-.2332z"/><path d="m10.4042 24.8261s-.65054-1.1518-2.11873-2.2292c-1.4682-1.0775-3.13313-1.1266-3.13313-1.1266s.76513 1.236 2.32811 2.3837c1.56332 1.1474 2.92375.9721 2.92375.9721z"/><path d="m8.84729 22.457s.44052-1.1794.32528-2.9077c-.11491-1.7287-1.09927-2.9712-1.09927-2.9712s-.43166 1.3141-.30926 3.1553c.12275 1.8402 1.08325 2.7236 1.08325 2.7236z"/><path d="m7.61254 21.3396s-.4528-1.0495-1.61446-2.1099c-1.16201-1.0607-2.58792-1.2561-2.58792-1.2561s.54315 1.1324 1.78051 2.2617c1.23702 1.1292 2.42187 1.1043 2.42187 1.1043z"/><path d="m6.9109 19.0136s-.05592-1.1419-.77194-2.5425c-.71603-1.4007-1.98271-2.084-1.98271-2.084s.11184 1.2506.87423 2.7424c.7624 1.492 1.88042 1.8841 1.88042 1.8841z"/><path d="m6.42527 15.6068s.0982-1.1389-.42279-2.6231c-.52134-1.4845-1.68437-2.3318-1.68437-2.3318s-.05762 1.2544.49713 2.8347c.55475 1.5814 1.61003 2.1202 1.61003 2.1202z"/><path d="m6.89621 13.3617s.5227-1.0164.6035-2.5875c.08081-1.57121-.67442-2.79629-.67442-2.79629s-.52918 1.13848-.61544 2.81159c-.08627 1.6735.68636 2.5722.68636 2.5722z"/><path d="m8.18277 10.6604s.68091-.91791 1.01608-2.45498c.33483-1.53706-.21106-2.86887-.21106-2.86887s-.7075 1.03755-1.06415 2.67452.25913 2.64933.25913 2.64933z"/><path d="m6.97285 17.5485s.85139-.7624 1.48763-2.2013.36858-2.8532.36858-2.8532-.90117.8749-1.57867 2.4069c-.67783 1.5323-.27754 2.6476-.27754 2.6476z"/><path d="m7.91016 12.4058s1.08801-.3502 2.25514-1.4051c1.1668-1.05497 1.4979-2.45566 1.4979-2.45566s-1.1791.43235-2.42158 1.55586c-1.24315 1.1234-1.33146 2.3049-1.33146 2.3049z"/><path d="m9.52064 9.2583s1.02976-.49713 2.03996-1.7021c1.0107-1.20565 1.1457-2.63872 1.1457-2.63872s-1.1082.59021-2.1846 1.87428c-1.07573 1.28373-1.00106 2.46654-1.00106 2.46654z"/><path d="m18.0759 29.1611c0 1.5824-2.6032 3.3043-2.6032 2.4635s2.6032-1.9026 2.6032-2.4635z"/><path d="m75.5039 29.1611c0 1.5824 2.6033 3.3043 2.6033 2.4635s-2.6033-1.9026-2.6033-2.4635z"/><path d="m75.668 28.4215s.3921 1.1685 2.757 1.4205c2.3649.2523 3.3739-.252 3.3739-.252s-1.5767-1.2292-3.0902-1.2926c-1.5136-.0631-3.0407.1241-3.0407.1241z"/><path d="m75.6683 28.4215s-.178-1.2223 1.7805-2.5715c1.9588-1.3489 3.0864-1.3864 3.0864-1.3864s-.6468 1.6656-2.2234 2.6408c-1.2885.7968-2.6435 1.3171-2.6435 1.3171z"/><path d="m78.4727 27.5561s1.2063-.5441 3.0267-.5441c1.8214 0 3.1931.9461 3.1931.9461s-1.3481.5435-3.2875.5435c-1.9391.0004-2.9323-.9455-2.9323-.9455z"/><path d="m80.6992 26.3975s.0979-1.3195.9667-2.9193c.8691-1.6005 2.355-2.3541 2.355-2.3541s-.1654 1.444-1.0904 3.1482c-.9261 1.7038-2.2313 2.1252-2.2313 2.1252z"/><path d="m81.6094 26.2329s1.0447-.8115 2.8153-1.2377c1.7703-.4266 3.3251.1718 3.3251.1718s-1.1831.8449-3.0683 1.2991c-1.8852.4538-3.0721-.2332-3.0721-.2332z"/><path d="m83.1758 24.8261s.6509-1.1518 2.1187-2.2292c1.4686-1.0775 3.1335-1.1266 3.1335-1.1266s-.7648 1.236-2.3281 2.3837c-1.5633 1.1474-2.9241.9721-2.9241.9721z"/><path d="m84.7354 22.457s-.4406-1.1794-.3257-2.9077c.1153-1.7287 1.0997-2.9712 1.0997-2.9712s.4316 1.3141.3089 3.1553c-.1224 1.8402-1.0829 2.7236-1.0829 2.7236z"/><path d="m85.9688 21.3396s.4528-1.0495 1.6144-2.1099c1.162-1.0607 2.5883-1.2561 2.5883-1.2561s-.5439 1.1324-1.7809 2.2617c-1.2373 1.1292-2.4218 1.1043-2.4218 1.1043z"/><path d="m86.668 19.0136s.0555-1.1419.7719-2.5425c.7164-1.4007 1.9827-2.084 1.9827-2.084s-.1115 1.2506-.8739 2.7424c-.7624 1.492-1.8807 1.8841-1.8807 1.8841z"/><path d="m87.1598 15.6068s-.0986-1.1389.4224-2.6231c.521-1.4845 1.6844-2.3318 1.6844-2.3318s.0579 1.2544-.4975 2.8347c-.5544 1.5814-1.6093 2.1202-1.6093 2.1202z"/><path d="m86.688 13.3617s-.5227-1.0164-.6039-2.5875c-.0804-1.57121.6745-2.79629.6745-2.79629s.5295 1.13848.6157 2.81159c.086 1.6735-.6863 2.5722-.6863 2.5722z"/><path d="m85.3979 10.6604s-.6809-.91791-1.0158-2.45498c-.3348-1.53706.2108-2.86887.2108-2.86887s.7071 1.03755 1.0641 2.67452c.3573 1.63697-.2591 2.64933-.2591 2.64933z"/><path d="m86.612 17.5485s-.8521-.7624-1.4883-2.2013c-.6363-1.4389-.3686-2.8532-.3686-2.8532s.9012.8749 1.579 2.4069c.6775 1.5323.2779 2.6476.2779 2.6476z"/><path d="m85.6671 12.4058s-1.0881-.3502-2.2548-1.4051c-1.1675-1.05497-1.4982-2.45566-1.4982-2.45566s1.1787.43235 2.4218 1.55586c1.2425 1.1234 1.3312 2.3049 1.3312 2.3049z"/><path d="m84.0606 9.2583s-1.0293-.49713-2.0396-1.7021c-1.0106-1.20565-1.146-2.63872-1.146-2.63872s1.1088.59021 2.1849 1.87428c1.0761 1.28373 1.0007 2.46654 1.0007 2.46654z"/><g clip-path="url(#a)"><path d="m30.3008 24.3554c-.0273-.1746-.101-.3164-.221-.4255-.1145-.1091-.3-.1637-.5564-.1637-.1473 0-.2783.0273-.3928.0818-.1091.0546-.1991.1282-.2701.221-.0709.0927-.1254.2018-.1636.3273-.0328.12-.0491.2482-.0491.3846s.0163.2673.0491.3928c.0382.12.0927.2264.1636.3191.0764.0928.1719.1664.2865.221.12.0545.2618.0818.4255.0818.2182 0 .3819-.0436.491-.1309.1091-.0927.1909-.2237.2455-.3928h1.252c-.0328.2237-.0982.4337-.1964.6301-.0982.1909-.2319.3573-.401.4992-.1691.1418-.3764.2537-.6219.3355-.24.0818-.5155.1227-.8265.1227-.3437 0-.6492-.0572-.9165-.1718-.2619-.1146-.4828-.2673-.6629-.4583-.18-.1909-.3164-.4119-.4091-.6628-.0873-.251-.1309-.5128-.1309-.7856s.0436-.5346.1309-.7856c.0927-.2509.2291-.4719.4091-.6628.1801-.1909.401-.3437.6629-.4583.2673-.1145.5728-.1718.9165-.1718.3328 0 .6219.0464.8674.1391s.4501.2155.6137.3682c.1692.1528.2974.3301.3847.532.0927.1963.15.4009.1718.6137zm5.8924-1.5466v3.9443h-1.252v-.5647c-.1091.2073-.2755.371-.4992.491-.2182.1146-.4828.1718-.7938.1718-.2564 0-.4773-.0381-.6628-.1145-.1855-.0818-.3328-.1937-.4419-.3355-.1255-.1528-.2073-.3273-.2455-.5237-.0382-.2019-.0573-.4447-.0573-.7283v-2.3404h1.2439v2.0212c0 .2837.0491.5156.1473.6956.1036.1746.2864.2618.5482.2618.2619 0 .4528-.09.5729-.27.1254-.18.1882-.4228.1882-.7283v-1.9803zm3.0629 1.6202c.1746.0491.3382.1037.491.1637.1528.0546.2864.1255.401.2128.1145.0818.2046.1854.27.3109.0709.1255.1064.2837.1064.4746 0 .2346-.0464.4338-.1391.5974-.0928.1582-.221.2892-.3846.3928-.1637.0982-.3546.1691-.5728.2128-.2128.0436-.4419.0654-.6874.0654-.5619 0-1.0066-.1227-1.3339-.3682-.3219-.2455-.4828-.5974-.4828-1.0556h1.2275c0 .2073.0573.3573.1718.45.1201.0873.2728.131.4583.131.1527 0 .2755-.0273.3682-.0819.0982-.06.1473-.1554.1473-.2864 0-.0763-.0218-.1364-.0654-.18-.0382-.0491-.101-.0927-.1883-.1309-.0818-.0437-.1909-.0846-.3273-.1228-.1309-.0436-.2891-.0955-.4746-.1555-.1637-.0491-.3191-.1009-.4664-.1554-.1473-.06-.2783-.131-.3928-.2128-.1091-.0818-.1964-.1855-.2619-.311-.0655-.1254-.0982-.2836-.0982-.4746 0-.4091.1555-.7119.4665-.9083.3164-.1964.7419-.2946 1.2765-.2946.2837 0 .5319.0355.7447.1064.2182.0654.3955.1582.5319.2782.1418.12.2482.2619.3191.4255.071.1637.1064.3383.1064.5237h-1.2356c0-.1636-.0437-.2891-.131-.3764-.0818-.0927-.21-.1391-.3846-.1391-.1255 0-.2346.03-.3273.09-.0927.0546-.1391.1419-.1391.2619 0 .0709.0218.1309.0654.18.0437.0437.1064.0846.1883.1228.0872.0381.1936.0763.3191.1145s.27.0846.4337.1391zm4.3697 2.3241c-.0927.0163-.21.03-.3518.0409-.1364.0163-.2974.0245-.4829.0245-.1472 0-.3027-.0109-.4664-.0327s-.3164-.0764-.4582-.1637c-.1364-.0927-.251-.2318-.3437-.4173-.0873-.191-.131-.4501-.131-.7774v-1.6857h-.6219v-.9329h.6219v-1.1702h1.2439v1.1702h.9001v.9329h-.9001v1.4075c0 .1473.0136.2645.0409.3518s.0655.1555.1145.2046c.0491.0437.1064.0737.1719.09.0655.0164.1364.0246.2128.0246h.2373c.0818-.0055.1527-.0137.2127-.0246zm2.4697.1063c-.3382 0-.6437-.0545-.9165-.1636-.2673-.1146-.4964-.2646-.6874-.4501-.1855-.1909-.33-.4119-.4337-.6628-.0982-.251-.1473-.5183-.1473-.802s.0491-.551.1473-.8019c.1037-.251.2482-.4692.4337-.6547.191-.1909.4201-.341.6874-.4501.2728-.1145.5783-.1718.9165-.1718.3437 0 .6492.0573.9165.1718.2728.1091.5019.2592.6874.4501.191.1855.3355.4037.4337.6547.1037.2509.1555.5182.1555.8019s-.0518.551-.1555.802c-.0982.2509-.2427.4719-.4337.6628-.1855.1855-.4146.3355-.6874.4501-.2673.1091-.5728.1636-.9165.1636zm0-1.072c.1419 0 .2701-.0245.3846-.0736.1201-.0546.221-.1282.3028-.221.0818-.0927.1446-.1991.1882-.3191.0491-.12.0737-.2509.0737-.3928 0-.1364-.0246-.2646-.0737-.3846-.0436-.1255-.1064-.2319-.1882-.3191-.0818-.0928-.1827-.1664-.3028-.221-.1145-.0545-.2427-.0818-.3846-.0818-.1418 0-.27.0273-.3846.0818-.1145.0546-.2127.1282-.2946.221-.0818.0872-.1445.1936-.1882.3191-.0436.12-.0655.2482-.0655.3846 0 .1419.0219.2728.0655.3928.0437.12.1064.2264.1882.3191.0819.0928.1801.1664.2946.221.1146.0491.2428.0736.3846.0736zm7.8682.9657v-2.1277c0-.2673-.0491-.4746-.1473-.6219-.0928-.1527-.2455-.2291-.4583-.2291-.0927 0-.18.0164-.2618.0491-.0819.0327-.1528.0873-.2128.1636-.06.0764-.1064.1801-.1391.311-.0328.1255-.0491.2837-.0491.4746v1.9804h-1.2111v-2.1358c0-.2674-.0464-.4747-.1391-.622-.0928-.1473-.2428-.2209-.4501-.2209-.0982 0-.1882.0164-.2701.0491-.0818.0327-.1527.09-.2127.1718-.06.0764-.1091.1801-.1473.311-.0327.1309-.0491.2946-.0491.491v1.9558h-1.2111v-3.9443h1.2111v.5728c.0873-.1855.2291-.3437.4255-.4746.1964-.131.4337-.1964.7119-.1964.3437 0 .6083.0682.7938.2046.1855.1363.3192.3055.401.5073.1036-.2073.2618-.3764.4746-.5073.2128-.1364.4664-.2046.761-.2046.2837 0 .5156.0463.6956.1391.18.0873.3219.2073.4255.36.1037.1473.1719.3192.2046.5156.0382.1909.0573.3901.0573.5974v2.4304zm3.1407-1.6694c.0054.12.0218.2346.0491.3437.0327.1036.0818.1964.1473.2782.0709.0764.1609.1391.27.1882.1091.0437.2455.0655.4092.0655.2182 0 .3819-.0437.491-.1309.1145-.0873.1936-.1937.2373-.3192h1.2275c-.0273.1855-.0928.3601-.1964.5237-.0982.1637-.2319.3083-.401.4337-.1637.1201-.3601.2155-.5892.2865-.2237.0709-.4774.1063-.761.1063-.3437 0-.6492-.0491-.9165-.1473-.2619-.1036-.4829-.2482-.6629-.4337s-.3164-.4037-.4091-.6546c-.0928-.2564-.1392-.5374-.1392-.8429 0-.2891.0437-.5592.131-.8101.0927-.251.2264-.4692.401-.6547.18-.1909.3982-.3409.6546-.45.2619-.1092.5646-.1637.9083-.1637.311 0 .5892.0491.8347.1473.251.0982.4637.2291.6383.3928.18.1636.3164.3546.4092.5728.0982.2182.1473.4473.1473.6874 0 .0818-.0028.1691-.0082.2618 0 .0928-.0109.1992-.0328.3192zm.8429-1.5466c-.2455 0-.4474.0709-.6056.2127-.1582.1419-.2373.3465-.2373.6138h1.653c0-.2564-.0764-.4583-.2291-.6056-.1473-.1473-.341-.2209-.581-.2209zm5.6465.4091c-.0873-.0218-.1609-.0354-.2209-.0409-.0601-.0109-.1337-.0164-.221-.0164-.3437 0-.6192.101-.8265.3028-.2073.2019-.311.5428-.311 1.0229v1.5385h-1.252v-3.9443h1.252v.6383c.0928-.1855.2455-.3492.4583-.491.2182-.1419.4664-.2128.7447-.2128.1473 0 .2727.0218.3764.0655zm2.4967.4828c.1745.0491.3382.1037.491.1637.1527.0546.2864.1255.4009.2128.1146.0818.2046.1854.2701.3109.0709.1255.1064.2837.1064.4746 0 .2346-.0464.4338-.1392.5974-.0927.1582-.2209.2892-.3846.3928-.1636.0982-.3546.1691-.5728.2128-.2127.0436-.4419.0654-.6874.0654-.5619 0-1.0065-.1227-1.3338-.3682-.3219-.2455-.4828-.5974-.4828-1.0556h1.2274c0 .2073.0573.3573.1719.45.12.0873.2728.131.4583.131.1527 0 .2754-.0273.3682-.0819.0982-.06.1473-.1554.1473-.2864 0-.0763-.0218-.1364-.0655-.18-.0382-.0491-.1009-.0927-.1882-.1309-.0818-.0437-.1909-.0846-.3273-.1228-.1309-.0436-.2892-.0955-.4746-.1555-.1637-.0491-.3192-.1009-.4665-.1554-.1473-.06-.2782-.131-.3928-.2128-.1091-.0818-.1964-.1855-.2618-.311-.0655-.1254-.0982-.2836-.0982-.4746 0-.4091.1555-.7119.4664-.9083.3164-.1964.742-.2946 1.2766-.2946.2837 0 .5319.0355.7447.1064.2182.0654.3955.1582.5319.2782.1418.12.2482.2619.3191.4255.0709.1637.1064.3383.1064.5237h-1.2357c0-.1636-.0436-.2891-.1309-.3764-.0818-.0927-.21-.1391-.3846-.1391-.1255 0-.2346.03-.3273.09-.0928.0546-.1392.1419-.1392.2619 0 .0709.0219.1309.0655.18.0437.0437.1064.0846.1882.1228.0873.0381.1937.0763.3192.1145.1254.0382.27.0846.4337.1391z"/><path d="m20.259 5.90386c.6219 0 1.1702.09001 1.6448.27004.4746.17185.8715.40916 1.1907.71194.3273.29459.5728.64646.7365 1.05562.1636.40098.2454.83059.2454 1.28885 0 .33551-.0409.65465-.1227.95739-.0737.3028-.1964.581-.3682.8347l-2.5286 3.6824h-3.4492l1.5343-2.2462c-.4337-.0819-.8183-.2251-1.1538-.4297-.3355-.2045-.6178-.45-.847-.7364-.2291-.2864-.405-.6056-.5278-.9575-.1146-.35184-.1718-.72008-.1718-1.10469 0-.45826.0818-.88787.2455-1.28885.1636-.40916.405-.76103.7242-1.05562.3273-.30278.7283-.54009 1.2029-.71194.4746-.18003 1.0229-.27004 1.6448-.27004zm0 2.43039c-.2619 0-.4746.08593-.6383.25777-.1555.16367-.2332.37643-.2332.63829s.0777.47871.2332.65056c.1637.16363.3764.24553.6383.24553s.4705-.0819.626-.24553c.1637-.17185.2455-.3887.2455-.65056s-.0818-.47462-.2455-.63829c-.1555-.17184-.3641-.25777-.626-.25777zm4.3696.72421c0-.43371.0859-.84286.2578-1.22747.1718-.38461.4173-.72012.7364-1.00653.3274-.29459.7243-.52781 1.1907-.69966.4746-.17184 1.0106-.25777 1.608-.25777.581 0 1.1047.08593 1.5711.25777.4665.17185.8634.40507 1.1907.69966.3355.28641.5892.62192.761 1.00653.1801.38461.2701.79376.2701 1.22747v2.70044c0 .4337-.09.8429-.2701 1.2275-.1718.3846-.4255.7242-.761 1.0188-.3273.2864-.7242.5155-1.1907.6874-.4664.1718-.9901.2577-1.5711.2577-.5974 0-1.1334-.0859-1.608-.2577-.4664-.1719-.8633-.401-1.1907-.6874-.3191-.2946-.5646-.6342-.7364-1.0188-.1719-.3846-.2578-.7938-.2578-1.2275zm4.4557 0c0-.18821-.0614-.35187-.1841-.49099-.1146-.13911-.2741-.20867-.4787-.20867-.2128 0-.3764.06956-.491.20867-.1146.13912-.1719.30278-.1719.49099v2.70044c0 .1882.0573.3519.1719.491s.2782.2087.491.2087c.2046 0 .3641-.0696.4787-.2087.1227-.1391.1841-.3028.1841-.491zm3.8831 0c0-.43371.0859-.84286.2578-1.22747.1718-.38461.4173-.72012.7365-1.00653.3273-.29459.7242-.52781 1.1906-.69966.4746-.17184 1.0106-.25777 1.608-.25777.581 0 1.1047.08593 1.5712.25777.4664.17185.8633.40507 1.1906.69966.3355.28641.5892.62192.7611 1.00653.18.38461.27.79376.27 1.22747v2.70044c0 .4337-.09.8429-.27 1.2275-.1719.3846-.4256.7242-.7611 1.0188-.3273.2864-.7242.5155-1.1906.6874-.4665.1718-.9902.2577-1.5712.2577-.5974 0-1.1334-.0859-1.608-.2577-.4664-.1719-.8633-.401-1.1906-.6874-.3192-.2946-.5647-.6342-.7365-1.0188-.1719-.3846-.2578-.7938-.2578-1.2275zm4.4557 0c0-.18821-.0613-.35187-.1841-.49099-.1145-.13911-.2741-.20867-.4787-.20867-.2128 0-.3764.06956-.491.20867-.1145.13912-.1718.30278-.1718.49099v2.70044c0 .1882.0573.3519.1718.491.1146.1391.2782.2087.491.2087.2046 0 .3642-.0696.4787-.2087.1228-.1391.1841-.3028.1841-.491zm3.5909 4.13654c0-.2373.0409-.4623.1227-.6751.09-.2127.2128-.3968.3682-.5523.1555-.1555.3356-.2783.5401-.3683.2046-.09.4256-.135.6629-.135.2864 0 .5482.0532.7855.1596.2374.1064.4419.2577.6138.4541.1718.1883.3028.4174.3928.6874.0982.2701.1473.5688.1473.8961 0 .6546-.0819 1.2029-.2455 1.6448-.1555.4501-.3887.8142-.6997 1.0924-.3028.2865-.6751.491-1.117.6138-.4337.1309-.9288.1964-1.4852.1964v-1.0556c.3682 0 .6751-.041.9206-.1228.2537-.0818.4623-.1882.626-.3191.1637-.1392.2864-.2946.3682-.4665.0819-.1636.131-.3314.1473-.5032-.0245.0327-.0818.0654-.1718.0982-.09.0327-.1841.0491-.2823.0491-.2619 0-.4992-.0451-.712-.1351-.2045-.09-.3805-.2127-.5278-.3682s-.2618-.3355-.3437-.5401c-.0736-.2046-.1104-.4214-.1104-.6506zm4.3157-4.13654c0-.43371.086-.84286.2578-1.22747.1719-.38461.4174-.72012.7365-1.00653.3273-.29459.7242-.52781 1.1906-.69966.4747-.17184 1.0107-.25777 1.608-.25777.581 0 1.1048.08593 1.5712.25777.4664.17185.8633.40507 1.1906.69966.3356.28641.5892.62192.7611 1.00653.18.38461.27.79376.27 1.22747v2.70044c0 .4337-.09.8429-.27 1.2275-.1719.3846-.4255.7242-.7611 1.0188-.3273.2864-.7242.5155-1.1906.6874-.4664.1718-.9902.2577-1.5712.2577-.5973 0-1.1333-.0859-1.608-.2577-.4664-.1719-.8633-.401-1.1906-.6874-.3191-.2946-.5646-.6342-.7365-1.0188-.1718-.3846-.2578-.7938-.2578-1.2275zm4.4558 0c0-.18821-.0614-.35187-.1842-.49099-.1145-.13911-.2741-.20867-.4787-.20867-.2127 0-.3764.06956-.491.20867-.1145.13912-.1718.30278-.1718.49099v2.70044c0 .1882.0573.3519.1718.491.1146.1391.2783.2087.491.2087.2046 0 .3642-.0696.4787-.2087.1228-.1391.1842-.3028.1842-.491zm3.8831 0c0-.43371.0859-.84286.2577-1.22747.1719-.38461.4174-.72012.7365-1.00653.3273-.29459.7242-.52781 1.1907-.69966.4746-.17184 1.0106-.25777 1.608-.25777.581 0 1.1047.08593 1.5711.25777.4665.17185.8633.40507 1.1907.69966.3355.28641.5892.62192.761 1.00653.18.38461.27.79376.27 1.22747v2.70044c0 .4337-.09.8429-.27 1.2275-.1718.3846-.4255.7242-.761 1.0188-.3274.2864-.7242.5155-1.1907.6874-.4664.1718-.9901.2577-1.5711.2577-.5974 0-1.1334-.0859-1.608-.2577-.4665-.1719-.8634-.401-1.1907-.6874-.3191-.2946-.5646-.6342-.7365-1.0188-.1718-.3846-.2577-.7938-.2577-1.2275zm4.4557 0c0-.18821-.0614-.35187-.1841-.49099-.1146-.13911-.2742-.20867-.4787-.20867-.2128 0-.3765.06956-.491.20867-.1146.13912-.1719.30278-.1719.49099v2.70044c0 .1882.0573.3519.1719.491.1145.1391.2782.2087.491.2087.2045 0 .3641-.0696.4787-.2087.1227-.1391.1841-.3028.1841-.491zm3.8831 0c0-.43371.0859-.84286.2578-1.22747.1718-.38461.4173-.72012.7364-1.00653.3274-.29459.7243-.52781 1.1907-.69966.4746-.17184 1.0106-.25777 1.608-.25777.581 0 1.1047.08593 1.5712.25777.4664.17185.8633.40507 1.1906.69966.3355.28641.5892.62192.761 1.00653.1801.38461.2701.79376.2701 1.22747v2.70044c0 .4337-.09.8429-.2701 1.2275-.1718.3846-.4255.7242-.761 1.0188-.3273.2864-.7242.5155-1.1906.6874-.4665.1718-.9902.2577-1.5712.2577-.5974 0-1.1334-.0859-1.608-.2577-.4664-.1719-.8633-.401-1.1907-.6874-.3191-.2946-.5646-.6342-.7364-1.0188-.1719-.3846-.2578-.7938-.2578-1.2275zm4.4557 0c0-.18821-.0614-.35187-.1841-.49099-.1146-.13911-.2741-.20867-.4787-.20867-.2128 0-.3764.06956-.491.20867-.1146.13912-.1718.30278-.1718.49099v2.70044c0 .1882.0572.3519.1718.491s.2782.2087.491.2087c.2046 0 .3641-.0696.4787-.2087.1227-.1391.1841-.3028.1841-.491zm6.5713 5.06944v-1.8535h-1.8535v-2.1235h1.8535v-1.8412h2.1235v1.8412h1.8412v2.1235h-1.8412v1.8535z"/></g></g></svg>