<svg fill="none" height="65" viewBox="0 0 64 65" width="64" xmlns="http://www.w3.org/2000/svg" xmlns:xlink="http://www.w3.org/1999/xlink"><linearGradient id="a" gradientUnits="userSpaceOnUse" x1="-31.3846" x2="29.8562" y1="31.1684" y2="94.6502"><stop offset="0" stop-color="#d91cc2"/><stop offset="1" stop-color="#7d2cfd"/></linearGradient><path clip-rule="evenodd" d="m30.337.0468041c-2.171.2080729-3.7612.5192899-5.5088 1.0779059-5.5001 1.75843-10.062 5.30871-13.1436 10.22919l-.492.7854-.0023-1.924c-.0022-1.81528-.0142-1.94518-.2124-2.29938-.2458-.43942-.869-.79775-1.38756-.79775-.52774 0-1.12173.36349-1.3742.84092l-.21614.40873.0015 4.18508c.0016 4.1651.00263 4.187.21267 4.5578.27856.4919.71751.7748 1.31564.8479.26842.0328 2.11719.0462 4.10839.0296l3.6204-.03.3992-.2643c.4339-.2873.7558-.8541.7558-1.3312 0-.477-.3219-1.0439-.7557-1.3312-.399-.2641-.4002-.2643-2.2599-.2962-1.0234-.0177-1.8601-.0599-1.8594-.0939.0028-.1268.7616-1.4506 1.2598-2.1979 1.0759-1.6135 2.71-3.41138 4.1824-4.60163 8.2757-6.68985 20.2637-6.0707 27.7824 1.43492 3.0708 3.06541 5.0578 6.89071 5.8257 11.21541.2853 1.6074.3494 4.3743.1393 6.0243-.9408 7.3916-5.6383 13.5615-12.2356 16.4836h-16.7979c-.3271-.1465-.6574-.3032-.9925-.4707-3.3858-1.6918-6.3756-4.4513-8.3776-7.7321-1.8703-3.065-3.0397-7.1066-3.0397-10.5055 0-.8272-.2683-1.3567-.841-1.6594-.79725-.4216-1.72039-.1489-2.14357.6335-.2183.4034-.22403.4644-.17128 1.8251.28039 7.2414 3.81455 13.6979 9.28395 17.9091h-12.413c-2.76147 0-5 2.2385-5 5v12c0 2.7614 2.23853 5 5 5h54c2.7615 0 5-2.2386 5-5v-12c0-2.7615-2.2385-5-5-5h-12.2585c.7927-.6153 1.5504-1.2835 2.2701-2.0032 3.7784-3.7783 6.081-8.4797 6.8709-14.0288.1587-1.1149.156-4.802-.0042-5.9597-1.0649-7.6926-5.3726-14.11717-12.0086-17.90977-3.5739-2.04253-7.853-3.1487762-11.9841-3.09818932-.671.00816523-1.3679.02909442-1.5486.04636342zm-19.5639 50.0154959c-.0475.0039-.096.0076-.1455.0107-.1929.012-.402.0181-.6276.0181v1.938h2.448v7.8709h2.8051v-11.8999h-2.4311c0 .3625-.0397.6743-.119.935-.0793.2605-.2209.4758-.425.646-.204.1699-.493.3003-.867.3909-.1847.0405-.3973.0705-.6379.0903zm17.8834-1.5522c-.7594-.3401-1.6321-.51-2.618-.51h-4.3691v11.8999h4.3691c.9859 0 1.8642-.1644 2.635-.493.7706-.3401 1.4166-.7876 1.938-1.343.5327-.5552.9349-1.1899 1.207-1.904.272-.7139.4079-1.4507.4079-2.21s-.1417-1.4958-.425-2.21c-.272-.7141-.6743-1.3486-1.2069-1.904-.5214-.5552-1.1674-.9973-1.938-1.3259zm-4.233 9.01v-7.1402h1.479c.5553 0 1.0483.1021 1.479.3062.442.1926.8103.459 1.105.7991.0806.0866.1562.1767.2266.2705.0458.0608.0894.1233.1308.1872.0428.0662.0835.1338.1217.2031.0837.1517.1563.3111.2179.4781.1587.4306.2379.8725.2379 1.3259 0 .4646-.0792.9124-.2379 1.343-.1587.4195-.391.7991-.697 1.1389-.2947.3289-.663.5953-1.105.7991-.2226.0996-.4617.1733-.7176.2214-.2392.0452-.493.0677-.7614.0677zm13.4538-6.1201-1.462 4.8959h2.89zm2.567 8.5-.4589-1.4449h-4.2331l-.459 1.4449h-2.941l4.25-11.8999h2.5331l4.301 11.8999zm3.8422 0h3.043l5.899-11.8999h-3.0431l-2.1759 4.675-2.5331-4.675h-3.213l4.2161 7.4289zm-12.1282-38.0143h-2.6432c-.3548-1.159-.6031-2.0283-.7451-2.6078-.1419-.5913-.2128-1.224-.2128-1.8981 0-1.1117.3311-2.0165.9934-2.7142.6741-.7096 1.5552-1.0644 2.6432-1.0644 1.0053 0 1.8036.2956 2.3949.887.6032.5795 1.0762 1.4842 1.4192 2.7142.3784 1.2772 1.1412 1.9159 2.2884 1.9159.6505 0 1.2004-.2247 1.6498-.6741.4494-.4495.6741-.9639.6741-1.5434 0-1.6202-.6859-3.1459-2.0578-4.5769-.8042-.8278-1.7267-1.4192-2.7674-1.774-1.0407-.3666-2.2884-.5499-3.7431-.5499-1.6439 0-3.1045.3252-4.3817.9757-1.2773.6386-2.2589 1.5256-2.9448 2.661-.686 1.1353-1.0289 2.4303-1.0289 3.885 0 1.0644.2897 2.519.8692 4.364h-1.0466c-1.502 0-2.253.5795-2.253 1.7385 0 .6386.2188 1.0644.6564 1.2772.4494.2129 1.1117.3194 1.9868.3194h1.4902c.1182.7332.1774 1.2536.1774 1.5611 0 .887-.207 1.7917-.6209 2.7142-.4021.9106-.9048 1.6202-1.5079 2.1287-.6623.5677-1.159 1.0289-1.4901 1.3837-.3312.343-.5736.6505-.7274.9225-.1537.272-.2306.5322-.2306.7806 0 .6622.2129 1.2004.6386 1.6143.4376.4021.8811.6031 1.3305.6031.3312 0 .958-.1892 1.8804-.5676.9343-.3785 1.5907-.6387 1.9692-.7806.3784-.1419.816-.2129 1.3127-.2129.4612 0 .8574.0237 1.1886.071.3311.0473.609.1064.8337.1774s.3844.1183.479.1419c3.5953.8279 5.7773 1.2418 6.546 1.2418 1.2536 0 2.4304-.2602 3.5302-.7806 1.1117-.5321 1.6676-1.289 1.6676-2.2706 0-.5796-.207-1.0822-.6209-1.5079-.4139-.4258-.887-.6387-1.4192-.6387-.2011 0-.6919.1242-1.4724.3726-.7687.2365-1.4902.3548-2.1643.3548-.4612 0-1.4014-.0887-2.8206-.2661-1.4192-.1893-2.525-.2839-3.3173-.2839-.5677 0-1.094.0355-1.5789.1065-.473.0591-.9047.1301-1.295.2128-.3784.0828-.7628.1715-1.1531.2661 1.3364-1.5019 2.2707-2.7496 2.8029-3.7431.544-1.0052.816-2.1051.816-3.2996v-.3015h3.14c.5677 0 1.0289-.1538 1.3837-.4613s.5322-.7096.5322-1.2063c0-.7214-.2661-1.1767-.7983-1.3659-.5322-.2011-1.2832-.3016-2.253-.3016z" fill="url(#a)" fill-rule="evenodd"/></svg>