<svg fill="none" height="366" viewBox="0 0 441 366" width="441" xmlns="http://www.w3.org/2000/svg" xmlns:xlink="http://www.w3.org/1999/xlink"><filter id="a" color-interpolation-filters="sRGB" filterUnits="userSpaceOnUse" height="303.667" width="401.529" x="35.0015" y="62.1811"><feFlood flood-opacity="0" result="BackgroundImageFix"/><feBlend in="SourceGraphic" in2="BackgroundImageFix" mode="normal" result="shape"/><feGaussianBlur result="effect1_foregroundBlur_696_44268" stdDeviation="30.8611"/></filter><linearGradient id="b" gradientUnits="userSpaceOnUse" x1="53.3525" x2="355.405" y1="113.169" y2="309.312"><stop offset="0" stop-color="#fff" stop-opacity=".38"/><stop offset="1" stop-color="#fff" stop-opacity="0"/></linearGradient><linearGradient id="c" gradientUnits="userSpaceOnUse" x1="50.7979" x2="358.357" y1="304.87" y2="112.637"><stop offset="0"/><stop offset="1" stop-opacity=".05"/></linearGradient><linearGradient id="d" gradientUnits="userSpaceOnUse" x1="95.9992" x2="150.336" y1="162.646" y2="191.568"><stop offset=".135" stop-color="#fff"/><stop offset=".695" stop-color="#d9d9d9"/><stop offset="1" stop-color="#ececec"/></linearGradient><linearGradient id="e" gradientUnits="userSpaceOnUse" x1="150.001" x2="96.001" y1="191.499" y2="162.999"><stop offset="0" stop-color="#c2b39a" stop-opacity=".76"/><stop offset="1" stop-color="#c2b39a" stop-opacity=".49"/></linearGradient><linearGradient id="f" gradientUnits="userSpaceOnUse" x1="45" x2=".000001" y1=".000003" y2="42"><stop offset=".135" stop-color="#fff"/><stop offset=".5" stop-color="#d9d9d9"/><stop offset="1" stop-color="#f5f5f5"/></linearGradient><linearGradient id="g" gradientUnits="userSpaceOnUse" x1="96.9995" x2="148.888" y1="162.999" y2="191.956"><stop offset="0" stop-color="#bdab8d" stop-opacity=".8608"/><stop offset="1" stop-color="#bdab8d"/></linearGradient><mask id="h" height="52" maskUnits="userSpaceOnUse" width="54" x="96" y="151"><rect fill="url(#f)" height="42" rx="4" transform="matrix(-.965926 .258819 .258819 .965926 139.468 150.999)" width="45"/></mask><g filter="url(#a)"><rect fill="#000" fill-opacity=".2" height="122.771" rx="13.2753" transform="matrix(.96592583 -.25881905 .25881905 .96592583 -45.598085 30.686155)" width="261.169" x="93.7432" y="188.519"/></g><rect fill="#fde92c" height="192" rx="14" transform="matrix(.96592583 -.25881905 .25881905 .96592583 -27.47235 17.664783)" width="303" x="53.3525" y="113.169"/><rect fill="url(#b)" height="192" rx="14" transform="matrix(.96592583 -.25881905 .25881905 .96592583 -27.47235 17.664783)" width="303" x="53.3525" y="113.169"/><rect height="191" rx="13.5" stroke="url(#c)" stroke-opacity=".04" transform="matrix(.96592583 -.25881905 .25881905 .96592583 -27.542846 17.835312)" width="302" x="53.9649" y="113.522"/><path d="m335.368 189.196 16.83-4.509 8.016 29.916-8.135 2.298-8.695 2.211z" fill="#ff5f00"/><path d="m340.467 203.997c-1.652-6.168.058-12.388 3.567-17.122-3.966-1.697-8.794-2.171-13.305-.962-10.687 2.863-17.02 13.815-14.16 24.487 2.86 10.673 13.82 16.991 24.507 14.127 4.511-1.209 8.417-4.174 11.003-7.626-5.391-2.291-9.959-6.737-11.612-12.904z" fill="#eb001b"/><path d="m379.582 193.516c2.859 10.673-3.474 21.624-14.161 24.488-4.511 1.209-9.376.594-13.342-1.102 3.563-4.749 5.257-10.815 3.604-16.982-1.652-6.168-6.244-10.7-11.649-13.045 2.586-3.452 6.529-6.277 11.041-7.485 10.687-2.864 21.661 3.507 24.507 14.126z" fill="#f79e1b"/><path d="m379.767 206.736-.231.062-.028-.105.58-.156.028.105-.233.063.213.792-.116.031z" fill="#000"/><path d="m379.767 206.736-.231.062-.028-.105.58-.156.028.105-.233.063.213.792-.116.031z" fill="#000"/><path d="m381.281 207.179-.118.032-.167-.626-.089.695-.09.024-.425-.557.167.626-.116.031-.24-.898.112-.03.499.636.114-.8.113-.03z" fill="#000"/><path d="m381.281 207.179-.118.032-.167-.626-.089.695-.09.024-.425-.557.167.626-.116.031-.24-.898.112-.03.499.636.114-.8.113-.03z" fill="#000"/><path clip-rule="evenodd" d="m263.054 77.3853 7.581-2.0314c1.128-.3022 2.201-.3824 3.221-.2408s1.948.4622 2.783.9619c.835.4996 1.547 1.1439 2.137 1.9329.589.789 1.014 1.6698 1.274 2.6426.266.9926.34 1.9728.222 2.9408-.119.9679-.415 1.877-.888 2.7273-.474.8503-1.117 1.5918-1.929 2.2244-.813.6326-1.783 1.1-2.91 1.4021l-4.108 1.1007 1.675 6.2534-3.473.9307zm10.669 9.4927c.604-.1618 1.122-.423 1.554-.7835s.768-.7801 1.006-1.259c.239-.4788.386-.997.442-1.5544.055-.5575.006-1.1241-.148-1.6998-.155-.5757-.395-1.0911-.722-1.546-.327-.455-.713-.8302-1.16-1.1256-.446-.2954-.946-.4911-1.5-.5872-.555-.0962-1.134-.0633-1.738.0986l-4.108 1.1007 2.266 8.4569zm17.67 5.6381c-1.128.3021-2.197.381-3.206.2367-1.01-.1443-1.928-.4676-2.753-.97-.825-.5023-1.531-1.143-2.118-1.922-.586-.7791-1.012-1.6649-1.278-2.6575-.261-.9728-.333-1.9481-.218-2.9259.116-.9779.406-1.8906.869-2.7382.464-.8476 1.097-1.5864 1.899-2.2163s1.767-1.0959 2.895-1.3981c1.128-.3021 2.201-.3824 3.221-.2408 1.02.1417 1.948.4623 2.783.9619s1.548 1.1439 2.137 1.9329 1.014 1.6699 1.274 2.6426c.266.9926.34 1.9729.222 2.9408-.119.9679-.415 1.877-.888 2.7273-.474.8504-1.117 1.5918-1.929 2.2244-.813.6326-1.783 1.1-2.91 1.4022zm-.774-2.8884c.624-.1673 1.161-.4388 1.611-.8146.449-.3758.802-.8108 1.058-1.305.256-.4941.413-1.0362.471-1.6262.058-.5899.007-1.1827-.153-1.7782-.159-.5956-.412-1.1344-.757-1.6164-.345-.4821-.752-.8731-1.22-1.173-.469-.2999-.992-.5002-1.57-.6009-.577-.1006-1.178-.0673-1.802.1-.624.1672-1.156.4374-1.596.8105-.439.3731-.787.8068-1.043 1.3009-.256.4942-.408 1.0349-.456 1.6222-.047.5872.009 1.1786.168 1.7742.16.5956.407 1.1357.742 1.6205.335.4847.737.877 1.206 1.177.468.2999.986.5015 1.554.6049.567.1033 1.163.0713 1.787-.0959zm17.893-11.529c-.302-.7274-.763-1.2582-1.381-1.5926-.619-.3343-1.492-.3504-2.619-.0483-.645.1727-1.166.4402-1.566.8025-.399.3623-.705.7901-.918 1.2834s-.325 1.0232-.335 1.5898c-.01.5665.065 1.1476.224 1.7431.16.5956.387 1.1411.681 1.6367.295.4955.657.8986 1.085 1.2094.429.3107.927.5177 1.494.621.567.1034 1.203.0606 1.908-.1282.967-.259 1.623-.6477 1.97-1.1661.346-.5185.537-1.1548.573-1.909l3.292-.8821c.071.747.029 1.4764-.126 2.1881-.155.7116-.446 1.3749-.875 1.9898s-.996 1.1552-1.702 1.621c-.706.4659-1.573.8363-2.6 1.1115-1.147.3075-2.214.3752-3.199.2029s-1.865-.5163-2.64-1.0321c-.774-.5158-1.43-1.17-1.966-1.9625-.536-.7926-.932-1.6653-1.187-2.6182-.25-.9331-.342-1.8818-.277-2.8461.065-.9644.304-1.8636.718-2.6977.413-.8342.998-1.5707 1.755-2.2097.756-.639 1.709-1.1122 2.856-1.4197 1.148-.3076 2.172-.4118 3.073-.3127s1.685.3303 2.355.6936c.669.3632 1.226.831 1.671 1.4034.444.5723.787 1.1879 1.029 1.8467zm13.315-1.5567 7.718 5.3682-4.107 1.1006-6.801-4.7205 1.636 6.1045-3.293.8821-5.585-20.8446 3.292-.8822 3.511 13.1024 3.521-7.5182 4.108-1.1007zm5.878-9.0117 3.292-.8821 3.718 13.8765-3.292.8822zm18.584 9.8934c-.252.1098-.593.244-1.026.4024-.432.1584-.89.3023-1.373.4318-.403.1079-.875.1973-1.417.2681-.543.0708-1.093.0108-1.651-.1801-.558-.1908-1.086-.5706-1.584-1.1394s-.904-1.4388-1.217-2.6101l-1.732-6.4619-2.386.6394-.726-2.7098 2.386-.6394-1.125-4.1987 3.292-.8821 1.125 4.1987 3.232-.866.726 2.7098-3.232.866 1.532 5.7174c.16.5955.333 1.0598.519 1.3929.187.3331.396.5696.627.7096.232.1401.482.2062.749.1983.268-.0079.563-.055.885-.1414.262-.0701.561-.161.898-.2725.337-.1116.581-.2088.732-.2917z" fill="#000" fill-rule="evenodd"/><path clip-rule="evenodd" d="m325.563 62.6786c-.181-.6749-.097-1.3091.251-1.9024s.854-.979 1.519-1.157c.684-.1835 1.326-.1054 1.924.2344.598.3397.988.8471 1.169 1.522.175.6551.089 1.2794-.259 1.8727-.349.5933-.865.9817-1.55 1.1651-.664.1781-1.295.0972-1.894-.2425-.598-.3397-.985-.8372-1.16-1.4923z" fill="#000" fill-rule="evenodd"/><path d="m229.288 92.5052 2.394-2.1033c1.841 2.189 5.568 3.1136 9.326 2.1065 3.72-.9968 6.47-3.6175 7.009-6.4075l3.116.6736c-.789 4.0845-4.47 7.5923-9.281 8.8814-4.865 1.3035-9.86.0642-12.564-3.1507z" fill="#000"/><path clip-rule="evenodd" d="m243.81 80.9461-11.064 2.9645c-3.432.9196-5.493 4.3536-4.605 7.67l2.898 10.8144c.597 2.228 2.422 3.931 4.74 4.424l6.287 1.335c2.061.438 4.229-.143 5.795-1.553l4.777-4.3c1.761-1.585 2.49-3.9723 1.893-6.2004l-2.898-10.8147c-.888-3.3164-4.391-5.2594-7.823-4.3398zm-11.526 9.5244c-.296-1.1054.391-2.2501 1.535-2.5566l11.064-2.9645c1.144-.3065 2.311.3411 2.607 1.4466l2.898 10.8147c.199.7427-.044 1.5384-.631 2.0669l-4.777 4.3004c-.522.47-1.244.663-1.932.517l-6.286-1.335c-.773-.164-1.381-.732-1.58-1.475z" fill="#000" fill-rule="evenodd"/><path d="m129.309 261.322-1.52.408-1.118-4.174-.334 4.563-1.154.309-2.619-3.772 1.119 4.174-1.52.407-1.804-6.732 1.799-.482 3.053 4.202.524-5.16 1.77-.475zm3.485-4.294c.16-.043.299-.114.416-.214.118-.101.208-.214.27-.341.067-.134.107-.279.121-.434.013-.155-.001-.309-.042-.463s-.106-.294-.195-.422c-.089-.127-.196-.229-.319-.306-.119-.085-.255-.141-.407-.169-.151-.028-.307-.021-.468.022l-1.067.286.623 2.327zm-3.589-2.893 2.827-.758c.372-.099.727-.122 1.064-.068.336.047.639.155.911.323.276.159.512.371.706.635.195.264.336.559.423.886.128.475.125.939-.008 1.394-.127.447-.376.826-.746 1.138l1.916 1.765-1.808.484-1.693-1.546-.73.196.499 1.866-1.558.417zm9.189 2.362c.098.365.273.624.527.776s.541.185.862.099c.25-.067.439-.194.568-.379.134-.194.169-.41.105-.647-.036-.134-.095-.239-.177-.313-.077-.083-.173-.146-.288-.191-.109-.046-.234-.078-.376-.095-.144-.023-.297-.044-.46-.062-.338-.033-.664-.07-.977-.11-.307-.041-.584-.115-.832-.22-.25-.112-.467-.267-.651-.465-.183-.198-.321-.467-.412-.807-.082-.307-.091-.597-.026-.869.071-.273.194-.519.369-.738.175-.218.393-.404.655-.556.266-.161.553-.283.86-.365.398-.107.763-.143 1.095-.108s.624.125.876.27c.252.146.461.334.626.565.171.229.295.487.373.776l-1.558.417c-.081-.301-.218-.519-.412-.652-.188-.135-.416-.167-.685-.095-.225.06-.401.169-.531.328-.129.158-.163.353-.101.584.06.224.195.38.404.469.214.08.479.132.795.158.301.022.608.053.921.093.312.033.602.103.871.21.267.1.503.25.708.449.209.192.359.454.448.787.093.346.111.671.055.975-.05.302-.162.576-.336.822-.177.24-.407.446-.69.618-.282.178-.609.318-.981.417-.359.096-.71.132-1.054.107-.335-.02-.646-.102-.931-.245-.28-.145-.523-.348-.73-.608-.209-.267-.365-.593-.468-.978zm4.591.223c-.036-.135-.044-.267-.023-.396.02-.129.061-.246.122-.352.065-.114.149-.212.251-.294.108-.084.229-.144.364-.18.134-.036.266-.044.396-.024.135.019.257.062.364.129.112.06.209.14.291.242.083.102.142.22.178.354.036.135.044.267.023.396-.02.129-.063.251-.129.364-.061.106-.145.201-.253.285-.102.082-.22.141-.355.177-.134.036-.27.045-.405.026-.129-.02-.25-.06-.362-.119-.107-.067-.202-.152-.284-.254-.083-.101-.142-.219-.178-.354zm4.658-7.526 2.818-.755c.371-.099.726-.122 1.064-.068.335.047.639.155.911.323.276.159.511.371.706.635.194.264.335.56.423.886.088.327.113.654.077.98-.037.326-.134.63-.292.913-.153.274-.362.519-.627.735-.267.209-.587.363-.958.463l-1.26.337.5 1.866-1.558.418zm3.589 2.894c.16-.043.299-.115.417-.215.117-.1.207-.213.269-.34.067-.135.107-.28.121-.434.013-.155 0-.31-.042-.463-.041-.154-.106-.295-.195-.422-.089-.128-.196-.23-.319-.306-.119-.085-.255-.142-.406-.17-.152-.028-.308-.02-.469.022l-1.067.286.624 2.328zm8.008 1.4c-.557.149-1.083.187-1.577.113-.496-.08-.941-.242-1.337-.487-.395-.244-.73-.557-1.003-.937-.276-.387-.475-.811-.599-1.272-.124-.462-.162-.926-.115-1.392.045-.472.178-.913.398-1.323.22-.409.526-.769.916-1.08.39-.318.863-.551 1.421-.7.558-.15 1.081-.184 1.57-.102.494.074.939.233 1.334.478.396.244.731.56 1.006.946.274.381.473.802.596 1.263.124.462.163.929.118 1.401-.047.467-.18.904-.4 1.314-.22.409-.525.773-.914 1.09-.385.309-.856.538-1.414.688zm-.376-1.404c.308-.083.568-.214.781-.395.211-.187.373-.402.487-.646.119-.245.19-.508.211-.788.021-.281-.005-.559-.079-.835-.074-.275-.19-.529-.349-.762-.158-.232-.351-.425-.577-.577-.22-.154-.467-.256-.742-.306-.276-.057-.568-.044-.876.039-.308.082-.567.217-.778.404-.213.181-.379.394-.499.639-.113.243-.181.505-.202.786-.021.28.006.558.08.834.073.276.19.53.348.762.159.233.348.426.568.58.226.152.477.257.754.313.274.05.565.034.873-.048zm11.238-4.279c.032.376-.003.746-.105 1.11-.095.362-.255.701-.48 1.015-.227.308-.514.581-.863.819-.348.238-.754.418-1.215.542-.571.153-1.106.193-1.607.121-.494-.074-.941-.229-1.341-.465-.395-.245-.734-.559-1.015-.944-.276-.387-.477-.817-.604-1.292-.124-.461-.162-.925-.115-1.391s.177-.903.391-1.311c.22-.41.522-.769.906-1.078.383-.316.85-.547 1.402-.695.519-.139 1-.189 1.444-.15.45.038.849.144 1.198.318.356.173.662.407.92.702s.464.628.618.999l-1.625.436c-.092-.189-.208-.354-.349-.495-.134-.142-.292-.255-.472-.337-.175-.09-.372-.144-.589-.162-.212-.018-.436.004-.673.067-.327.088-.602.227-.826.418-.219.182-.389.396-.509.641-.121.239-.193.498-.214.779-.021.28.006.558.08.834.079.295.198.562.358.801.165.23.364.421.597.572.237.142.5.237.787.284.292.038.608.012.948-.079.192-.052.367-.13.525-.234.156-.11.291-.236.404-.376.119-.148.21-.307.275-.476.063-.174.095-.351.095-.53zm2.797-1.214.762 2.847-1.558.418-1.803-6.732 1.558-.418.765 2.856 1.408-3.438 1.875-.503-1.762 4.08 3.566 2.652-1.875.503zm4.152-5.276 1.577-.423 1.804 6.732-1.578.423zm4.656.195-1.52.407-.361-1.346 4.607-1.234.361 1.346-1.529.41 1.443 5.385-1.558.418z" fill="#000"/><path d="m140.745 154.797c-.608-2.267-2.938-3.612-5.205-3.005l-35.7396 9.577c-2.2672.607-3.6127 2.938-3.0052 5.205l8.7998 32.841c.608 2.267 2.938 3.613 5.205 3.005l35.739-9.576c2.268-.607 3.613-2.938 3.006-5.205z" fill="url(#d)" stroke="url(#e)" stroke-width=".5"/><g mask="url(#h)"><path d="m118.218 156.692 2.459 9.177-22.2166 5.953.1295.482 16.4211-4.399 1.941 7.244-16.421 4.4.129.483 16.421-4.4 1.941 7.244-16.42 4.4.129.483 16.421-4.4 1.941 7.245-16.421 4.4.13.483 22.216-5.953 2.07 7.727.483-.129-2.07-7.728 20.767-5.564-.129-.483-15.938 4.27-1.941-7.244 15.938-4.271-.13-.483-15.938 4.271-1.941-7.244 15.938-4.271-.129-.483-16.421 4.4 4.141 15.455-10.142 2.717-6.082-22.699 26.563-7.117-.13-.483-20.767 5.564-2.459-9.176z" fill="url(#g)"/></g><g fill="#ffa800"><path d="m42.9343 113.077c-.7669 1.279-1.7384 2.425-2.8758 3.391-1.1132.935-2.3387 1.727-3.6481 2.359-.9265.471-1.8913.864-2.8839 1.173-3.5079 1.027-7.2405.997-10.7298-.086-1.547-.483-3.008-1.207-4.329-2.145-.8555-.602-1.6266-1.316-2.2928-2.122-.6203-.84-1.0765-1.79-1.3447-2.799-.1667-.622.2797-.677.9211-.423.8195.342 1.5745.821 2.2328 1.416 1.0826 1.309 2.4465 2.359 3.9908 3.07 1.6179.757 3.3498 1.242 5.1262 1.437 2.1978.271 4.536-.252 6.656-1.026 2.3604-.802 4.4517-2.243 6.04-4.162.9548-1.197 1.6619-2.571 2.0804-4.043.6447-2.292.7643-4.7.3498-7.044-.3511-1.8-.9461-3.5447-1.7686-5.1847-.1746-.362-.3741-.7044-.5487-1.0665-.56-1.3819-.6427-1.8675-.1744-2.5008.0801-.1366.1687-.2681.2651-.3938.2733-.3314 1.111-.0524 1.816.9378.547.7303 1.0088 1.5204 1.3767 2.3551.3918.8467.725 1.7194.9972 2.6117.5624 1.8432.8674 3.7562.9063 5.6832.1004 3.001-.6288 5.973-2.1076 8.59z"/><path d="m19.6505 99.7272c.4973 1.2608 1.7457 2.6868 3.1502 2.9258.6056.104 1.3639-.267 1.3156-.994-.141-1.267-.7233-2.4435-1.6451-3.3246-.3917-.4354-.8877-.7644-1.4416-.9563-.3908-.0873-.8001.0122-1.1073.2691-.3071.2569-.477.642-.4596 1.0415-.0295 1.3373 2.0509 1.3483 2.0804.0106l.0012-.1724-.3011.7261-.2189.1319-.7783-.1056c.8248.3599 1.7332 1.4337 1.7969 2.3627l1.3145-.997c-.745-.223-1.3583-.7547-1.6841-1.4599-.1634-.5428-.7217-.8645-1.2743-.7343-.5523.1526-.8802.7194-.7365 1.2731z"/><path d="m25.0195 95.4097c.5089 1.288 1.8209 2.8385 3.26 3.0941.6056.1045 1.3669-.2716 1.3146-.9977-.1606-1.3161-.7722-2.5357-1.731-3.4522-.3947-.444-.8971-.7792-1.4591-.9732-.3869-.0886-.7932.0063-1.101.257s-.4825.6292-.4734 1.0255c-.0284 1.3417 2.056 1.3512 2.0815.0146l.0052-.1735-.3011.7262-.223.1329-.7904-.1024c.8595.3765 1.8414 1.5636 1.9097 2.5265l1.3157-.9938c-.6877-.1212-1.5572-.9856-1.798-1.6268-.4848-1.23-2.5039-.7062-2.0108.5388z"/><path d="m132.317 321.694c-.273.172-.591.258-.913.245-.147-.003-.283-.078-.365-.201-.361-.57-.647-1.185-.851-1.828-.188-.547-.133-1.106-.196-1.651-.047-.471-.088-.945-.112-1.422-.014-.238-.024-.475-.023-.714-.01-.24-.008-.48.006-.719.028-.282.085-.564.117-.844.014-.135.01-.272.02-.409l.013-.207.044-.2c.012-.045-.025-.094.05-.133.168-.09.653-.025 1.007.116.081.035.216.077.219.097-.009.199.684.456.645.643-.055.358.121.738.216 1.101.019.144.009.29-.028.429-.043.182-.154.364-.19.55-.038.322-.05.647-.035.972.015.547.063 1.093.142 1.635.05.584.126 1.132.203 1.539.076.407.153.649.152.667-.006.053-.023.104-.049.151-.031.058-.055.119-.072.183z"/><path d="m133.599 333.741c-.808.297-1.109.213-1.222.067-.206-.242-.396-.498-.569-.765-.087-.125-.166-.256-.237-.39-.056-.141-.108-.27-.153-.426-.115-.491-.189-.991-.223-1.494-.074-.419-.123-.842-.147-1.266-.024-.421-.05-.839-.041-1.259.022-.248.06-.495.067-.742-.005-.122.004-.245.027-.365l.032-.176c.003-.031.011-.06.024-.087l.06-.088c.028-.038.034-.081.099-.116.235-.1.497-.113.741-.038.058.018.164.037.169.057.024.176.663.321.709.503.037.173.089.342.156.505.077.165.169.332.234.496.042.128.051.265.026.397-.028.172-.116.33-.139.518-.007.296.006.592.039.886.022.488.069.974.142 1.456.04.25.082.495.133.718.05.222.05.443.081.623.03.181.056.332.078.437.022.104.046.17.049.181-.036.126-.081.249-.135.368z"/><path d="m141.534 322.978c-.15.279-.239.488-.303.625-.037.102-.1.192-.182.261-.095.071-.198.131-.306.181l-.328.177c-.225.123-.453.244-.691.362-.1.051-.204.093-.312.125-.108.029-.218.058-.332.074-.221.059-.454.083-.681.144-.386.103-.781.209-1.184.317-.417.077-.838.131-1.261.162-.259.006-.51.008-.775.01-.125-.011-.249-.011-.377-.013-.127-.001-.256-.018-.382-.035-.038.011-.094.025-.127-.032-.093-.16-.044-.684.071-1.073.026-.088.06-.238.078-.239.172-.008.349-.727.499-.732.149-.016.296-.055.433-.116.145-.066.286-.148.426-.198.112-.041.233-.054.351-.037.153.028.323.102.482.119.277-.001.553-.021.827-.06.409-.053.919-.148 1.434-.247s1.049-.126 1.48-.149c.102-.006.206-.007.295-.004.083-.007.166-.002.247.018.152.037.24.064.256.069.132.081.253.179.362.291z"/><path d="m122.566 325.601c-.047-.227-.056-.46-.025-.689.016-.123.071-.237.159-.324.111-.102.235-.189.369-.257l.383-.213c.257-.136.521-.258.79-.365.228-.088.468-.139.711-.151.24-.023.482-.036.721-.071.41-.059.826-.108 1.243-.153.422-.022.845-.021 1.267.004l.758.068c.118.023.241.038.362.05.122.012.246.035.368.06.041.007.089-.024.118.04.08.167 0 .687-.14 1.068-.03.086-.074.232-.092.231-.176-.004-.403.706-.572.691-.158.004-.314.029-.466.074-.16.043-.315.115-.466.146-.121.029-.247.027-.366-.006-.157-.045-.316-.14-.475-.172-.276-.043-.555-.064-.833-.064-.477.004-.952.032-1.425.083-.506.022-1.002.048-1.371.093-.15.024-.301.037-.452.037-.068-.002-.136-.008-.203-.017-.106-.031-.206-.106-.363-.163z"/><path d="m413.392 183.792c-.226.142-.489.213-.755.202-.121-.002-.234-.064-.301-.166-.298-.471-.535-.979-.703-1.511-.156-.452-.111-.913-.163-1.364-.038-.389-.072-.78-.092-1.175-.012-.197-.02-.392-.019-.59-.009-.198-.007-.396.004-.594.023-.233.071-.466.097-.698.012-.111.008-.224.017-.338l.011-.17.036-.166c.01-.037-.021-.078.041-.11.139-.074.54-.021.833.096.066.029.178.063.18.08-.007.165.566.377.534.531-.046.296.1.611.178.911.015.118.008.239-.023.354-.035.15-.127.301-.157.454-.032.267-.042.535-.029.803.013.453.052.904.118 1.352.041.483.103.935.167 1.271.063.336.126.537.125.552-.004.044-.018.086-.04.124-.026.048-.046.099-.059.152z"/><path d="m414.451 193.747c-.668.245-.916.176-1.01.055-.17-.2-.327-.411-.47-.632-.072-.103-.137-.211-.196-.322-.046-.117-.089-.223-.126-.352-.095-.406-.157-.819-.184-1.235-.061-.346-.102-.695-.122-1.046-.02-.348-.041-.693-.034-1.041.018-.205.049-.408.056-.612-.005-.101.003-.203.021-.302l.027-.146c.003-.025.009-.049.02-.072l.049-.072c.024-.031.029-.067.082-.096.194-.083.411-.094.613-.031.048.014.135.03.14.046.019.146.547.266.585.416.031.143.074.283.129.418.064.136.14.274.193.41.035.106.043.218.022.327-.023.142-.096.273-.115.429-.005.244.005.489.032.732.019.403.058.804.117 1.203.034.206.068.409.11.593s.042.367.068.516c.025.148.046.274.064.36.019.087.038.141.041.15-.03.104-.068.205-.112.304z"/><path d="m421.008 184.853c-.124.231-.197.404-.25.517-.03.084-.082.158-.15.215-.079.059-.164.109-.254.149l-.271.147c-.185.102-.374.202-.57.299-.083.042-.169.077-.258.103-.089.024-.18.049-.275.062-.182.049-.375.068-.562.118-.319.086-.646.173-.979.262-.344.064-.692.109-1.042.134-.214.005-.421.007-.641.009-.102-.01-.205-.009-.31-.011-.106-.001-.212-.015-.316-.029-.032.009-.078.021-.105-.026-.077-.132-.037-.566.058-.887.022-.073.05-.196.064-.198.143-.006.289-.601.413-.604.124-.014.244-.046.358-.096.12-.055.236-.123.352-.164.093-.034.193-.044.29-.031.126.023.267.084.398.099.229-.001.457-.018.684-.05.338-.044.759-.122 1.185-.204.425-.082.867-.104 1.223-.123.084-.005.17-.006.244-.003.068-.006.137-.002.204.014.126.031.198.053.211.057.109.068.21.149.299.241z"/><path d="m405.334 187.02c-.039-.187-.046-.38-.021-.57.013-.101.059-.195.131-.267.092-.084.195-.156.305-.212l.317-.177c.212-.112.43-.213.653-.301.188-.073.386-.115.588-.125.197-.018.397-.03.595-.058.339-.049.683-.089 1.027-.127.349-.018.698-.017 1.047.003l.627.057c.098.018.199.031.299.041.101.01.204.029.304.049.034.006.073-.019.097.033.066.138.001.568-.115.883-.025.071-.061.192-.076.191-.145-.003-.333.583-.473.571-.13.004-.26.024-.385.061-.132.036-.26.095-.385.121-.1.024-.204.022-.303-.005-.129-.037-.26-.116-.392-.142-.228-.036-.458-.053-.689-.053-.393.003-.786.026-1.177.069-.418.018-.828.039-1.133.076-.124.021-.248.031-.373.031-.057-.002-.112-.007-.168-.014-.088-.026-.17-.088-.3-.135z"/><path d="m346.678 255.502c-.225.143-.488.213-.755.203-.121-.003-.233-.065-.301-.167-.298-.471-.534-.978-.703-1.51-.155-.452-.11-.914-.162-1.364-.039-.39-.073-.781-.093-1.176-.011-.197-.019-.392-.019-.59-.008-.198-.007-.396.005-.594.023-.233.071-.466.097-.697.011-.112.008-.225.017-.338l.01-.171.037-.165c.009-.037-.021-.079.041-.11.139-.074.54-.021.832.095.067.03.179.064.181.08-.007.165.565.377.533.532-.045.296.1.61.178.91.016.119.008.239-.022.354-.036.151-.127.301-.157.455-.032.266-.042.535-.029.803.012.452.052.903.117 1.351.042.483.104.935.167 1.272.063.336.127.536.126.551-.005.044-.018.086-.04.125-.026.047-.046.098-.06.151z"/><path d="m347.737 265.457c-.667.246-.916.177-1.009.056-.17-.2-.327-.411-.47-.632-.072-.104-.138-.212-.197-.323-.045-.116-.089-.223-.126-.351-.095-.406-.156-.819-.184-1.235-.061-.346-.101-.696-.121-1.047-.02-.348-.042-.693-.034-1.04.018-.205.049-.409.055-.613-.004-.101.003-.202.022-.302l.027-.145c.002-.025.009-.05.02-.072l.049-.073c.023-.031.029-.067.082-.096.194-.082.411-.093.613-.031.047.015.135.031.139.047.02.145.548.265.586.416.03.143.074.282.129.417.063.136.139.274.193.41.035.106.042.219.022.328-.023.142-.096.272-.115.428-.006.245.005.489.032.732.018.403.057.805.117 1.204.033.206.068.409.11.593.042.183.042.366.067.515s.047.274.065.36c.018.087.038.141.04.15-.03.104-.067.206-.112.304z"/><path d="m354.295 256.563c-.124.231-.198.404-.251.517-.03.084-.082.158-.15.216-.079.058-.164.108-.253.149l-.271.147c-.186.101-.374.201-.57.298-.083.043-.17.077-.259.104-.089.024-.18.048-.274.061-.183.049-.375.069-.562.119-.32.085-.646.173-.979.262-.345.064-.693.108-1.042.134-.214.005-.421.006-.641.008-.103-.009-.205-.009-.311-.01-.105-.002-.212-.015-.316-.029-.032.008-.077.02-.104-.027-.077-.132-.037-.565.058-.887.022-.072.05-.196.064-.197.143-.007.289-.601.413-.605.123-.013.244-.046.358-.096.12-.054.236-.122.352-.163.093-.034.192-.045.29-.031.126.023.267.084.398.098.229-.001.457-.017.683-.05.338-.043.76-.122 1.185-.203.426-.082.867-.104 1.224-.123.084-.006.169-.006.243-.004.069-.006.138-.001.205.015.125.03.197.053.211.057.109.067.209.148.299.24z"/><path d="m338.62 258.731c-.039-.188-.046-.381-.02-.57.013-.102.059-.196.131-.267.092-.085.194-.156.305-.213l.317-.176c.212-.113.43-.213.653-.301.188-.073.386-.116.587-.125.198-.019.398-.03.596-.059.339-.049.682-.089 1.027-.127.348-.018.698-.017 1.047.004l.626.056c.098.019.199.031.3.041.1.01.203.03.304.05.033.005.073-.02.097.033.066.138 0 .568-.116.883-.025.071-.061.192-.076.191-.145-.004-.332.583-.472.571-.131.003-.26.024-.385.061-.132.035-.261.094-.386.12-.099.025-.203.023-.302-.005-.13-.037-.261-.115-.392-.142-.228-.035-.459-.053-.689-.052-.394.003-.786.025-1.177.068-.418.018-.828.039-1.134.077-.123.02-.248.03-.373.031-.056-.002-.112-.007-.167-.015-.088-.026-.171-.088-.301-.134z"/><path d="m85.8734 325.699c-.0292.118-.0755.231-.1373.335-.0641.109-.1495.203-.2511.277-.0907.066-.1913.117-.298.151-.1164.031-.2327.062-.3449.093-.1932-.007-.3811-.01-.5765-.024l-.6104-.117c-.1946-.028-.4203-.106-.5775-.144s-.2318-.067-.3452-.108c-.2969-.094-.5985-.156-.8844-.275-.2859-.12-.5013-.209-.7434-.331l-.708-.398c-.2311-.148-.464-.286-.6868-.435-.2227-.15-.4526-.293-.6692-.453-.3928-.269-.7825-.544-1.1498-.851-.5001-.384-.8878-.895-1.1228-1.48-.074-.176.0549-.211.2675-.166.2712.071.527.191.7542.355.8232.761 1.7555 1.394 2.766 1.878.3165.159.6488.285.9915.376.173.047.3399.105.5098.157l.488.159c.2853.084.6135.179.8578.242.1276.045.2579.081.39.11.0818.025.1676.035.2531.03.0619.002.1152-.043.1235-.105.0055-.054.0042-.109-.0038-.163-.0273-.117-.0666-.23-.1174-.339-.03-.112-.2611-.509-.4427-.821-.1817-.312-.3907-.644-.5995-.957-.3652-.473-.7051-.965-1.0183-1.473-.075-.116-.1416-.236-.1992-.361-.0899-.179-.1147-.383-.0702-.578.04-.146.1406-.267.2761-.333.063-.042.129-.079.1975-.111.2369-.063.4568.043.7015.258.3316.357.6383.72 1.0007 1.108.3624.389.5886.867.8824 1.332l.3127.535.1549.279.2028.391c.3783.714.6034 1.438.4599 1.966z"/><path d="m63.3415 312.174c.747.565 1.5251 1.088 2.3307 1.567l1.2364.724.4426.256c.1821.1.351.222.5029.364.1354.112.2179.275.2278.451l-.1061.518-.2635.463-.1629.306c-.0932.168-.1811.338-.2668.517-.3686.736-.6634 1.514-.9615 2.28-.5283 1.359-.9333 2.763-1.21 4.195-.0691.357-.1246.715-.1583 1.071-.0337.357-.0598.542-.0643.708-.0189.169.0071.34.0752.497.063.085.1557.016.1994-.054l.1586-.189 1.0107-1.215c.4381-.51.8879-1.009 1.3515-1.49.6001-.623 1.2439-1.204 1.9266-1.736l.5341-.384c.1805-.124.3822-.236.5578-.345.1885-.118.3905-.212.6016-.282.2049-.084.4154-.154.6299-.209.532-.142.482-.013.157.337-.0777.092-.1763.19-.2817.311l-.3343.415c-.2871.312-.5961.603-.9246.872-.6373.528-1.2408 1.096-1.8072 1.7-.5853.608-1.1534 1.231-1.7041 1.868-.3061.354-.4401.519-1.0727 1.317-.1309.159-.2654.289-.3955.435l-.0993.112c-.0232.033-.0543.059-.0906.077l-.1789.097c-.1003.053-.211.082-.3241.087-.1166.02-.2361.016-.3509-.013-.2537-.079-.4634-.26-.5793-.499-.0674-.128-.1175-.265-.1487-.406-.0223-.083-.0412-.154-.0646-.241l-.0275-.269c-.0291-.366-.0279-.735.0034-1.101.0092-.198.0257-.27.0372-.393s.0327-.227.0475-.338c.3353-2.158.9186-4.271 1.7382-6.296.1869-.433.379-.863.5869-1.284.1039-.211.2068-.425.3171-.629l.1598-.301.065-.106.0559-.091.0243-.042s-.0078-.029-.0111-.042c-.0033-.012-.114-.076-.1731-.114l-.8209-.47c-.6206-.355-1.2416-.728-1.8463-1.122-1.2507-.79-2.4-1.729-3.4221-2.798-.3927-.415-.7484-.864-1.0631-1.341-.0814-.121-.1513-.249-.2277-.384-.0919-.167-.1749-.338-.2487-.513-.0734-.175-.135-.355-.1844-.538-.0416-.172-.0676-.347-.0776-.523-.052-.311.0231-.629.2084-.884.2979-.075.611-.061.9013.039.3471.098.7181.253 1.0794.388l.7583.286c1.5266.573 3.1166.959 4.7356 1.15.3481.036.6854.048 1.0321.062.6392.025 1.0498-.005 1.3437.028.236.019.465.09.6703.207.083.036.163.079.2391.128.0963.077.0274.202-.2024.375-.3462.243-.7453.4-1.1643.459-.8015.13-1.6158.161-2.4249.093-.8144-.062-1.6215-.197-2.4114-.405-.7779-.211-1.5484-.476-2.2914-.723l-.5587-.206-.2531-.097.0144.054c.0603.108.1206.217.1903.327.1397.222.2906.435.4522.641.6975.857 1.5012 1.622 2.3917 2.277z"/><path d="m77.8236 299.198c.0084-.032.0131-.065.014-.098.0068-.028.0081-.057.0038-.085.0068-.026-.0004-.052-.0189-.071-.0392-.011-.0809-.008-.1178.009-.0508.019-.0996.043-.146.071l-.0415.011-.1553.135-.3289.302c-.3544.34-.6909.746-1.0374 1.115-1.2425 1.314-2.3501 2.75-3.3062 4.285-.4167.684-.7723 1.404-1.0628 2.151-.3943.938-.6786 1.905-1.0176 2.851-.1077.296-.3866.22-.6406-.113-.3229-.455-.4445-1.024-.3364-1.571.1177-.555.2684-1.103.4515-1.64.1964-.521.4263-1.029.6883-1.521.5036-.992 1.1015-1.934 1.7853-2.812.8193-1.048 1.5479-2.219 2.4427-3.252.2488-.284.4995-.579.7697-.834.1335-.134.2669-.267.4097-.399.2096-.199.4263-.404.6509-.58.3886-.33.8482-.566 1.343-.689.2217-.053.4544-.035.6647.053.1008.051.1832.131.2356.231l.1923.269c.0455.058.0834.121.1128.188l.1113.416c.0572.14.0965.286.117.436.025.31.0791.611.0792.928.0001.316-.0154.507-.0282.742l-.058.648c-.1438 1.375-.4094 2.711-.5009 4.032-.0599.99.0073 1.984.2 2.957.0535.2.1114.416.1593.595.1729.728.166.935-.2787 1.304-.0988.08-.1932.176-.2943.248-.3403.242-.8001.023-1.1088-.647-.3961-.976-.5929-2.022-.5787-3.075-.0033-1.01.0673-2.019.2111-3.018.1064-.712.2033-1.419.291-2.123.0525-.352.0585-.679.0883-1.017l.0033-.237-.001-.12-.0078-.029z"/><path d="m57.244 308.734c-.1908-.37-.3428-.759-.4537-1.161-.0368-.168-.0644-.337-.0826-.508-.0016-.155-.0073-.31-.0048-.466.0392-.245.128-.48.2608-.689.0754-.114.1769-.209.296-.276.0931-.054.1922-.097.2953-.128.2262-.065.461-.097.6966-.093.3242.016.6457.067.9585.153l.3222.105.3277.126.6641.268.6558.27c.1062.047.2154.089.3227.14l.1831.085c1.621.817 3.3196 1.471 5.0704 1.951.7672.182 1.5537.27 2.3422.263.9914.017 1.9819-.069 2.9554-.257.309-.061.3732.162.209.514-.2668.497-.7142.874-1.2503 1.052-.5645.172-1.1439.292-1.7306.357-.5832.036-1.1685.017-1.748-.058-1.1298-.141-2.2381-.42-3.3004-.83-.6261-.242-1.2704-.453-1.9147-.663l-.976-.318-.4901-.167-.1251-.051-.0757-.033c-.1852-.093-.4021-.204-.6492-.311-.1276-.064-.2653-.106-.407-.123-.0898-.003-.0958.075-.1001.125-.0081.057-.0047.115.0102.171.0115.084.0335.166.0657.245.0699.182.1556.357.2561.524.0547.088.1147.178.1758.273l.1665.223.1974.254c.8132 1.039 1.7361 1.986 2.7526 2.826.7911.605 1.6559 1.107 2.5737 1.493l.5986.223c.659.398.8089.625.8098 1.177-.0009.129.0148.254.0063.372-.0198.196-.1457.365-.3276.44-.2751.109-.5751.14-.8668.09-.5361-.054-1.0574-.208-1.5376-.452-.4716-.219-.9265-.473-1.3611-.758-.8639-.577-1.671-1.235-2.4105-1.964-.5525-.541-1.0743-1.112-1.5629-1.711-.1246-.149-.245-.299-.3666-.454l-.1749-.22-.2157-.29c-.4056-.549-.7718-1.127-1.0956-1.728z"/><path d="m82.4944 322.364c-.8577-1.106-1.6763-2.183-2.5225-3.413-.1772-.254-.3401-.518-.4882-.791-.1484-.251-.2678-.518-.3557-.795-.0817-.246-.1193-.505-.1109-.764.0017-.121.0218-.243.0597-.358 0 0-.0145-.054.0404-.083.0064-.032.0174-.064.0328-.093.0272-.054.06-.104.0977-.151.36-.397.8437-.66 1.3723-.746.2868-.077.6026-.162.8775-.2l.5669-.111c.9737-.19 1.9065-.449 2.8291-.696 1.0522-.264 2.0729-.64 3.0442-1.123.2307-.12.4581-.252.6749-.39l.3157-.219.2215-.17c.1834-.143.3405-.316.4642-.512.0757-.109.1323-.229.1672-.357-.0178-.066-.1012-.062-.1567-.069-.0593-.006-.119-.006-.1784-.001-.1201.001-.2461.012-.3764.025l-.4594.047c-1.5571.19-3.1451.397-4.7392.433-1.0352.011-2.0689-.082-3.0855-.278-1.0328-.198-2.0176-.593-2.9-1.165-.5481-.383-.3136-.522.2543-.514s1.5166.075 2.5666.203c.8998.106 1.8077.127 2.7114.062.9164-.054 1.8415-.092 2.7737-.204.4677-.05.9321-.112 1.406-.172l.7132-.097.5789-.084c.2244-.06.4611-.075.6891-.105.4218-.067.8493-.092 1.2762-.074.2927.019.575.116.8187.279.101.061.192.137.2699.226.1034.108.1701.246.1903.395.0568.293.0301.596-.0771.875-.1.259-.2335.508-.3615.779-.2522.433-.554.835-.8993 1.198l-.2771.28c-.0459.048-.0946.094-.1459.137l-.1296.114c-.1348.112-.2749.221-.4161.326-.553.405-1.1399.762-1.7542 1.067-1.1867.58-2.4299 1.037-3.7101 1.364-.6857.183-1.372.332-2.0489.482-.1953.052-.2701.072-.32.085l-.187.051-.1953.052c-.0582.015-.1496.04-.1631.106.0045.131.0388.259.1002.374l.098.183.0517.093.1244.198c.3579.555.7418 1.107 1.1704 1.642 1.0242 1.329 2.1044 2.634 3.1766 3.96.5077.647 1.2503 1.491 1.5036 2.153.0567.156.0996.315.1281.478.0454.156.024.323-.0591.461-.2593.264-.59.445-.9513.523-.8478.167-1.7211.157-2.5647-.03-.6673-.126-1.325-.298-1.9687-.515-1.9992-.607-3.8565-1.609-5.4618-2.946-.3614-.309-.6976-.647-1.0053-1.009-.4021-.504-.6859-1.092-.8305-1.72-.0821-.334-.0141-.687.1862-.967.0695-.121.1531-.233.2491-.334.3253-.265.8053.23 1.5075 1.021.1442.14.2719.284.414.415l.2183.2c.0638.072.1349.137.2059.203.2767.276.5693.535.8761.776.6335.498 1.3105.939 2.0228 1.316.7281.392 1.4873.723 2.2699.991.3904.127.7846.235 1.1841.346.1006.026.199.045.2986.067l.1413.029s.0328.022.0333-.009 0 0-.01-.037l-.1558-.199-.6594-.799-1.3234-1.614z"/><path d="m64.3932 325.923c-.0852.167-.1347.35-.1454.538.0111.041.0051.118.0356.132.0305.015.0914-.024.1426-.082.0349-.037.0677-.075.0983-.116.0423-.069.0942-.133.1544-.188-.018.049.4584-.484.77-.817.3117-.333.6942-.733 1.0463-1.082.6998-.713 1.462-1.376 2.2147-2.041.6886-.572 1.3558-1.174 2.0782-1.719.234-.174.4638-.347.7117-.503.2478-.155.5073-.3.771-.447.2711-.127.5485-.24.8313-.338.0716-.026.1453-.046.2203-.059l.2388-.006.4729.002c.3885.021.3463.179.1436.536-.0982.182-.234.424-.3694.683-.1351.245-.3316.451-.5702.598-.4168.29-.8261.591-1.2347.928-.4087.336-.8279.667-1.2568.978-.8362.669-1.6542 1.423-2.4986 2.161-.2467.227-.4975.454-.7386.702-.2411.247-.4622.502-.6875.758l-.709.845-1.1073 1.37-.3752.462-.1384.148c-.0457.012-.0825.058-.1238.087l-.2423.176c-.0733.057-.1497.11-.229.159l-.1947.088c-.1127.06-.2316.106-.3546.14-.0801.019-.1636.02-.2441.003-.0993-.025-.19-.076-.2624-.148-.2359-.265-.3938-.589-.4562-.938-.089-.451-.1209-.91-.095-1.369.0192-.343.0487-.699.1001-1.056l.151-1.015c.0923-.471.1929-.943.3018-1.418.3422-1.422.7635-2.824 1.262-4.2l.5283-1.602c.1604-.541.3561-1.071.5859-1.587.1048-.224.1949-.453.3185-.673.1435-.306.3571-.574.6234-.782.2058-.109.4423-.146.6714-.104.1055.005.2104.019.3138.041.1541.043.2358.181.2884.394.0704.272.0669.557-.0101.827l-.3832 1.412c-.1214.478-.3113.917-.4684 1.378-.3237.919-.6483 1.852-.9528 2.794-.2451.692-.4748 1.392-.689 2.1-.1057.353-.202.709-.2941 1.063l-.1277.537-.0554.242z"/><path d="m75.4038 79.8724c.4802.2207.7795.3264.7043.6309-.0438.1708.089.3323.1333.4974.178.5849.3881 1.1596.6292 1.7215.1177.2888.2521.573.3761.86.1239.2871.2484.5762.3792.8637.2281.492.5021.9628.762 1.4396.4396.8049.9131 1.5941 1.3818 2.3822.2388.4063.4344.8354.6711 1.2423.4826.8068 1.0152 1.5823 1.5377 2.3538.1354.1877.2576.4013.3847.6002.1272.1988.2348.4163.3625.6172.0954.1469.229.2612.331.3996.0545.0526.0865.1243.0895.2-.0044.243-.292.5821-.6914.763-.2974.1357-.5458.1866-.6577.0531-.2722-.3056-.5408-.6143-.7995-.928-.2588-.3136-.4811-.6504-.7108-.9808-.1897-.265-.4265-.4971-.6069-.769-.2858-.4229-.5315-.8721-.7981-1.3069-.3844-.6405-.7183-1.3102-1.0823-1.9495-.4233-.7443-.8462-1.4865-1.2426-2.247-.1252-.2419-.2437-.4834-.3612-.7296-.1791-.3843-.3567-.7712-.5249-1.165-.0873-.2006-.1663-.4034-.2356-.5953-.0694-.192-.1455-.409-.2182-.6135-.3208-.869-.5486-1.7697-.6796-2.6867-.0089-.0745-.0087-.1497.0005-.2241.0869-.3189.1735-.3802.8659-.4291z"/><path d="m71.9413 90.3027c.0293-.5095.1236-.8595.4293-.8384.1761.0133.3069-.1337.4627-.1956 1.0413-.4268 2.0469-.9113 3.036-1.416.4166-.2323.8211-.4857 1.2119-.7592.3391-.214.6582-.4607.9859-.6919.3278-.2311.6425-.4857.9599-.7387s.6906-.465 1.0185-.7208c.6539-.5268 1.2611-1.1442 1.9684-1.6472.356-.2679.7669-.481 1.1353-.7275.1318-.1019.2582-.2105.3787-.3254.0537-.0543.13-.0797.2056-.0686.2521.0467.6113.4678.8198.945.1577.363.229.6373.1113.7248-.5597.3852-1.097.8203-1.6246 1.2752-.1062.0957-.2068.1975-.3013.3047-.0992.1017-.2045.1972-.3153.286-.3549.272-.737.5178-1.1098.7811-.5461.386-1.1091.7586-1.6694 1.1416-.3201.2179-.638.4442-.9645.6549-.3265.2106-.6589.4161-.9907.6237-.2087.1321-.431.2387-.6484.3552-.6799.3617-1.3828.6787-2.104.9489-.7429.2865-1.4925.5478-2.2559.7747-.0553.0204-.1136.0315-.1726.0328-.2419-.0001-.2998-.0742-.5668-.7193z"/><path d="m36.1846 142.145c.4801.221.7794.326.7043.631-.0438.171.089.332.1332.497.1781.585.3881 1.16.6293 1.722.1177.288.2521.573.376.86.124.287.2485.576.3792.863.2282.492.5021.963.762 1.44.4397.805.9131 1.594 1.3819 2.382.2387.406.4343.836.671 1.242.4827.807 1.0152 1.583 1.5377 2.354.1354.188.2576.402.3848.6.1272.199.2347.417.3625.618.0953.147.229.261.331.399.0544.053.0865.125.0894.2-.0043.243-.2919.582-.6914.763-.2973.136-.5457.187-.6576.053-.2722-.305-.5408-.614-.7996-.928-.2587-.313-.4811-.65-.7107-.98-.1897-.265-.4266-.498-.6069-.769-.2858-.423-.5316-.873-.7981-1.307-.3844-.641-.7184-1.311-1.0823-1.95-.4234-.744-.8462-1.486-1.2426-2.247-.1253-.242-.2437-.483-.3612-.729-.1791-.385-.3567-.772-.5249-1.165-.0874-.201-.1663-.404-.2357-.596-.0693-.192-.1454-.409-.2181-.613-.3208-.869-.5486-1.77-.6796-2.687-.0089-.074-.0088-.15.0004-.224.087-.319.1736-.38.866-.429z"/><path d="m32.7221 152.575c.0292-.509.1236-.859.4293-.838.176.013.3068-.134.4627-.196 1.0412-.427 2.0469-.911 3.0359-1.416.4166-.232.8211-.486 1.212-.759.339-.214.6581-.461.9859-.692.3277-.231.6425-.486.9599-.739s.6906-.465 1.0184-.72c.6539-.527 1.2612-1.145 1.9684-1.648.356-.267.767-.481 1.1354-.727.1318-.102.2582-.211.3786-.326.0538-.054.1301-.079.2056-.068.2522.047.6114.468.8198.945.1578.363.229.637.1114.725-.5597.385-1.0971.82-1.6247 1.275-.1061.096-.2067.197-.3013.305-.0991.101-.2044.197-.3153.286-.3548.272-.7369.517-1.1098.781-.546.386-1.1091.758-1.6694 1.141-.3201.218-.6379.444-.9644.655s-.6589.416-.9907.624c-.2088.132-.431.239-.6484.355-.68.362-1.3828.679-2.104.949-.7429.286-1.4926.548-2.2559.775-.0554.02-.1137.031-.1726.033-.2419-.001-.2999-.075-.5668-.72z"/><path d="m414.187 231.749c.576-1.191.983-2.456 1.21-3.76.09-.476.107-.962.158-1.448.165-1.734.107-3.482-.17-5.201-.123-.77-.307-1.528-.55-2.268-.158-.488-.345-.929-.501-1.402-.156-.464-.341-.918-.553-1.359-.111-.235-.062-.309.236-.179.424.249.782.597 1.043 1.014.29.455.533.939.723 1.443.201.496.379 1.003.532 1.516.154.515.281 1.038.381 1.566.081.535.133 1.074.156 1.615.098 1.308.107 2.62.025 3.929-.125 1.451-.446 2.877-.954 4.241-.305.841-.684 1.653-1.131 2.428-.685 1.165-1.489 2.256-2.401 3.254-.35.391-.713.765-1.082 1.126-.373.372-.778.71-1.213 1.008-.187.128-.369.265-.568.381-.257.174-.552.285-.86.323-.185.019-.37-.035-.516-.15-.071-.04-.137-.088-.197-.143-.165-.181.045-.511.466-.93.667-.541 1.272-1.166 1.915-1.735.314-.289.621-.592.9-.904.28-.313.57-.664.835-1.009.809-1.032 1.492-2.157 2.034-3.351z"/><path d="m417.602 231.292c-1.106 2.444-2.729 4.618-4.757 6.374l-1.097.919c-.373.295-.768.566-1.16.831-2.834 1.74-6.071 2.714-9.394 2.826-1.435.042-2.871-.062-4.285-.308-.911-.157-1.805-.403-2.668-.735-.857-.383-1.633-.925-2.288-1.598-.391-.434-.217-.459.242-.322.325.08.654.145.986.192l.633.077c.23.021.459.053.69.09.809.213 1.633.363 2.465.449.418.039.841.064 1.264.089s.841.063 1.262.072c.835.043 1.673.023 2.505-.06l1.245-.178 1.248-.253c2.008-.571 3.869-1.566 5.46-2.918 1.78-1.419 3.24-3.198 4.285-5.221.635-1.252 1.085-2.589 1.335-3.971.401-2.119.329-4.3-.209-6.387-.217-.799-.518-1.571-.9-2.305-.174-.368-.388-.712-.61-1.051-.223-.34-.416-.676-.618-1.02-.202-.343-.405-.546-.615-.835-.068-.142-.175-.249-.247-.367-.073-.118-.111-.235-.159-.336-.089-.178-.154-.367-.193-.562-.073-.328-.037-.67.101-.976.055-.156.093-.326.158-.464.14-.237.424-.348.688-.269.217.023.43.074.634.15.25.11.489.241.716.393.731.536 1.376 1.18 1.912 1.91.565.712 1.028 1.499 1.377 2.338.714 1.7 1.16 3.5 1.322 5.337.145 1.382.112 2.776-.096 4.15l-.192 1.02c-.065.34-.192.654-.272 1.007-.187.666-.416 1.32-.684 1.957z"/><path d="m397.442 245.201c-.107-.096.086-.187.447-.318.172-.055.353-.076.534-.062.105.055.205.121.296.198.03.064.295.755.393.985.082.215.129.442.138.672.051.443.074.889.069 1.336-.004.099-.028.197-.072.287-.143.306-.199.646-.16.982-.005.064.024.125.076.161.097.368.106.754.026 1.126-.129.267-.239.543-.329.826-.028.013.032.069-.076.114-.197.094-.165.174-.18.26-.022.122-.058.242-.108.355-.062.075-.133.14-.212.196-.118.052-.249.069-.376.049-.088-.043-.212.016-.326.036l-.117.016c-.262-.235-.488-.508-.67-.809 0 0-.174-1.128-.208-1.247s.03-.127.061-.192c.031-.066-.124-.893-.116-.925.024-.175-.045-.356.141-.523.041-.019.024-.068.024-.102.01-.304.057-.605.138-.898.024-.152.02-.303.044-.455 0 0 .033-.049.047-.078.023-.029.04-.062.05-.097.07-.346.109-.698.116-1.051-.005-.083.203-.451.182-.543-.02-.091.217-.232.168-.299z"/><path d="m411.323 243.741c-.108-.061-.013-.219.187-.415.102-.078.219-.134.345-.163.09.017.179.039.267.065.047.017.516.448.702.58.164.124.308.272.428.439l.774.945c.056.072.096.155.116.244.062.304.196.588.392.828.021.046.043.092.132.101.27.223.474.516.587.848.003.303.072.568.084.867.017.037.035.073-.028.143-.152.178-.09.239-.069.319.019.133.014.269-.013.4-.034.095-.081.185-.138.268-.087.09-.199.151-.322.176-.093-.007-.184.087-.276.13l-.101.048c-.34-.057-.672-.158-.986-.299-.042.02-.593-.789-.681-.866-.087-.077-.027-.116-.025-.185.001-.068-.478-.64-.491-.668-.045-.154-.181-.263-.108-.512.004-.035-.012-.069-.041-.088-.119-.258-.196-.533-.228-.815-.039-.136-.087-.27-.144-.399 0 0 .006-.059.004-.087.005-.036.002-.073-.007-.109-.097-.327-.216-.647-.357-.957-.033-.069-.042-.481-.093-.553-.051-.071.142-.259.09-.285z"/><path d="m420.864 233.639c-.164.033-.148-.218.002-.626.082-.185.191-.356.323-.508.099-.066.203-.125.311-.175.042-.02.677.051.901.046.212-.001.422.039.619.118.377.143.777.251 1.168.376.089.031.17.081.239.146.236.223.538.364.861.403.054.008.097.039.175-.021.079-.06.936.12 1.036.236.211.221.444.392.672.588.018.037.08.014.061.129.009.244.109.23.181.275.112.059.212.14.293.238.05.1.08.208.089.319-.01.163-.053.321-.129.466-.088.087-.092.258-.127.398-.009.051-.023.101-.041.149-.295.2-.625.343-.972.421l-.556-.103c-.277-.049-.562-.105-.617-.113-.054-.008-.107-.073-.156-.129s-.853-.159-.891-.192c-.148-.087-.337-.082-.443-.353-.022-.046-.051-.049-.085-.061-.279-.115-.541-.267-.778-.454-.135-.072-.274-.136-.417-.191 0 0-.026-.055-.039-.083-.021-.031-.048-.059-.078-.081-.328-.174-.666-.328-1.012-.461-.084-.034-.352-.397-.453-.433-.102-.037-.073-.343-.137-.324z"/><path d="m420.754 219.563c-.107.096-.23-.082-.324-.41-.03-.151-.035-.307-.015-.46.05-.097.1-.193.145-.265s.513-.356.66-.51c.139-.122.297-.223.466-.299.34-.161.673-.375 1.029-.527.081-.034.171-.043.257-.026.306.034.615-.033.879-.191.046-.022.092-.043.121-.125.271-.233.607-.379.962-.416l.95.198c.043.008.078-.037.135.06.109.23.209.166.306.17.137-.001.273.029.397.088.089.075.162.167.213.271.047.163.059.334.034.502-.017.144-.008.291.025.433l.008.159c-.13.286-.297.554-.495.798 0 0-.198.093-.414.196-.216.102-.437.207-.46.218s-.111-.01-.172-.031c-.061-.022-.69.326-.718.339-.155.006-.28.133-.491-.038-.042-.03-.068-.012-.098-.004-.267.07-.544.099-.821.085-.143.008-.284.026-.424.055 0 0-.057-.024-.089-.032-.036-.035-.082-.059-.132-.067-.346.016-.691.05-1.034.101-.069.033-.493-.126-.608-.095-.114.032-.257-.233-.292-.177z"/><path d="m51.908 264.927c-.0634.445-.0165.898.1366 1.32.1812.446.4609.846.8182 1.168.2943.248.6138.465.9533.647 1.2647.746 2.6636 1.237 4.1174 1.443.6581.101 1.3232.15 1.989.146.4243.001.8486-.048 1.2687-.062.4202-.014.8551.001 1.2872-.006.2684-.011.2702.097.0848.317-.1268.137-.2675.261-.4197.37-.2005.154-.4242.276-.663.361-.1139.03-.231.061-.3449.092l-.3487.053c-.2306.038-.464.053-.698.078-.466.038-.9337.05-1.4011.037-.9377-.06-1.865-.232-2.7619-.512-1.0675-.351-2.2247-.645-3.2451-1.314-.5735-.368-1.0774-.835-1.4885-1.379-.4226-.571-.6852-1.246-.7607-1.953l-.031-.331.0129-.318c.0025-.215.0222-.429.0592-.64.0824-.435.2519-.848.4984-1.216.3624-.53.847-.966 1.413-1.27.5399-.301 1.1305-.499 1.7422-.586.9227-.161 1.8684-.135 2.7809.076.2017.036.3998.09.5923.16.715.276.8329.577.8251.915.0019.077-.0014.153-.0097.23-.0275.112-.1249.179-.2808.217-.203.053-.4161.054-.6197.004-.1763-.038-.3662-.038-.5346-.084-.1701-.042-.3426-.073-.5165-.093-.1692-.031-.3402-.052-.512-.062-.1709-.005-.3486-.036-.5058-.028-.65-.016-1.2958.108-1.893.365-.4049.174-.7657.436-1.0559.768-.0326.043-.0733.081-.0996.122l-.0813.127c-.0531.08-.0972.165-.1316.255-.0356.085-.0644.172-.0862.261-.0214.097-.028.224-.046.334z"/><path d="m50.6549 262.214c.2912-.338.6399-.622 1.03-.839.3743-.205.7774-.351 1.1957-.436.7451-.141 1.5089-.154 2.2584-.038.6872.103 1.3649.261 2.0263.474l.4571.149.1064.043.2193.097c.0529.025.1074.047.1632.065.0511.013.113.054.149.024-.0313-.117-.0901-.21-.1259-.305-.0358-.096-.0768-.173-.1214-.276 0 0-.1354-.252-.2219-.436s-.1974-.395-.2835-.602c-.0861-.208-.1712-.45-.2314-.674-.0323-.12-.0645-.241-.0967-.361-.0341-.123-.0575-.248-.0699-.375-.0855-.541-.0283-1.095.1661-1.608.0543-.126.1069-.259.1683-.384l.2216-.337c.0748-.112.1607-.215.2562-.31.0938-.093.1796-.19.2647-.277.429-.367.9537-.605 1.5126-.684.5217-.059 1.05.005 1.5423.187.4501.161.8722.391 1.2511.682.6599.481 1.229 1.075 1.6807 1.754.4207.668.7516 1.387.984 2.141.4669 1.88.55 3.835.2445 5.748-.0784.58-.3056.492-.5539-.005-.3446-.77-.5841-1.583-.7121-2.417-.1164-.868-.3236-1.722-.6182-2.547-.0764-.197-.1488-.391-.2149-.587-.066-.196-.1471-.385-.2336-.568l-.1309-.274-.1483-.262c-.043-.083-.0916-.163-.1454-.239-.0463-.078-.0991-.153-.1579-.222-.453-.595-1.037-1.076-1.7067-1.408-.2583-.139-.547-.212-.8403-.213-.2633.016-.513.122-.7061.302-.2884.23-.4688.569-.4984.937-.0072.46.0973.915.3044 1.326.1018.24.2314.484.3651.729l.6615 1.203c.1028.207.2288.424.3164.624.0876.201.1775.397.2362.578.0461.164.0839.331.1133.499.0056.125.003.25-.008.375l-.0494.183c-.0114.033-.0046.059-.0317.097-.0267.027-.0592.049-.0951.062-.1097.045-.2245.076-.3418.092-.369.049-.7444.008-1.0938-.121-.5003-.171-1.0157-.386-1.5039-.55l-.3707-.117-.2557-.081-.4424-.133c-.5849-.166-1.1832-.282-1.7881-.345-.5575-.068-1.1229-.032-1.6669.108-.2981.082-.5762.225-.817.419-.1198.095-.2284.204-.3235.324l-.3076.422c-.3831.559-.5673 1.23-.5233 1.907.064.973.6919 1.924 1.566 2.592.9007.682 1.9374 1.163 3.0401 1.41 1.7232.406 3.5009.269 5.2461-.002.3835-.062.7563-.152 1.1436-.225 1.4344-.279 1.9191-.28 2.3371.052.1008.069.1955.147.2828.233.224.279-.2986.721-1.3808 1.099-1.6772.559-3.434.842-5.2018.838-1.9204.021-3.8165-.431-5.5209-1.315-.6751-.364-1.2926-.826-1.8324-1.371-.5883-.594-1.0331-1.315-1.3005-2.107-.2649-.848-.2718-1.755-.02-2.606.1144-.4.2765-.786.4829-1.147l.1466-.263.1691-.242c.1229-.162.2094-.307.359-.483z"/><path d="m50.4239 254.985c.1108-.03.1078.124.0826.422-.0211.134-.0686.262-.1399.377-.0754.053-.1567.098-.2425.132-.289-.014-.5764-.051-.86-.108-.1823-.032-.358-.094-.5204-.183-.3213-.162-.6344-.305-.9321-.429-.0663-.031-.1249-.077-.1715-.133-.1654-.182-.3852-.305-.6265-.351-.0421-.02-.0916-.015-.1285.014-.2469.002-.4916-.048-.7176-.147-.1498-.167-.3261-.204-.4959-.383-.0258-.02-.0549-.002-.0729-.082-.0475-.177-.1085-.164-.1693-.189-.0927-.029-.1812-.07-.2635-.122-.053-.057-.0994-.12-.1382-.187-.0351-.098-.0424-.204-.0211-.307.0426-.069.0043-.174-.0068-.266-.0076-.028-.0178-.066-.0048-.093.0944-.108.2043-.202.3259-.278.1249-.098.2636-.177.4116-.235l.172-.029c.0572-.012.1153-.02.1736-.023.0657-.001.1314.003.1965.012.2743.011.5447.071.6059.071.0612.001.1066.056.1527.102.046.045.2115.055.411.103.1351.035.2684.076.3994.124.1349.086.2983.113.3715.311.0102.038.0429.046.0701.059.2267.125.4358.28.622.461.1001.077.2051.147.3143.211.0042.015.0118.044.0399.06.0136.026.0315.05.0529.071.2203.175.455.331.7015.466.0568.022.2394.299.3063.308s.0592.259.1018.241z"/><path d="m49.1068 259.892c.1202-.032.1502.143.1111.414-.0283.123-.0833.237-.1613.335-.0746.043-.1517.08-.2309.113-.0411.011-.5974-.04-.7823-.021-.1727.008-.3458-.005-.5155-.038-.3308-.049-.6649-.073-.9993-.072-.0751.003-.1498-.012-.2184-.043-.2431-.091-.5086-.104-.7595-.037-.0411.011-.0823.022-.1236.07-.1237.076-.2621.125-.406.143-.142.038-.2897.048-.4357.032-.2344-.07-.4745-.119-.7176-.147-.0317.009-.0665.018-.1087-.039-.1057-.141-.1726-.099-.2487-.092-.1082.01-.2174.004-.3238-.019-.0574-.011-.1286-.087-.1978-.143-.0576-.096-.087-.205-.0848-.317.0248-.084-.0484-.18-.0738-.275-.0085-.032-.0195-.073-.0263-.098.1559-.246.3541-.462.5852-.639l.1583-.042c.0917-.024.21-.077.3341-.12.2463-.093.5136-.171.568-.196s.1192.002.1806.016l.4239-.076c.2084-.033.4186-.058.4352-.059.1657.023.3343-.019.5043.122.0323.032.0648.027.099.028.289.019.5737.08.8453.18.1415.047.2885.052.4283.093.0221-.006.0458.031.0699.045.0281.021.0588.038.0914.05.335.073.6405.239.966.315.0798.019.3734.279.454.302.0807.022.1079.225.1594.215z"/><path d="m56.7225 253.076c.1113.049.0526.197-.0837.41-.0672.09-.1593.16-.2652.199-.0911-.01-.1807-.03-.2672-.06-.278-.213-.5301-.457-.7513-.728-.164-.188-.2956-.401-.3896-.632-.1926-.453-.3426-.924-.448-1.406-.0297-.109-.0338-.224-.012-.336.0505-.356.0676-.716.051-1.075.0102-.064-.0073-.13-.0483-.18-.1099-.106.0027-1.066.0748-1.177.1581-.283.3259-.555.4949-.811.024-.037.0136-.088.0935-.106.1147-.028.2099-.107.2579-.215.0759-.111.1617-.214.2562-.309.0664-.052.1398-.093.218-.123.0686-.036.2145.041.2307.063.0354.069.1288.051.1942.067.0253.004.0499.011.0735.021.0158-.004.0821.205.1763.417.0941.213.2337.43.2048.461-.0289.032-.0233.976-.0137 1.075.0096.1-.0395.106-.0737.156-.0341.05.032.764.0316.788-.0349.149.028.295-.1238.437-.0221.025-.0307.059-.0231.091.0164.126.0116.253-.0143.377-.0273.126-.0442.253-.0675.381-.0085.128-.0058.257.0081.384.0059.022-.0167.052-.0234.078-.0091.028-.0116.057-.0073.087.0095.302.0679.602.1731.886.0176.081.0273.163.0288.246.0096.086.0319.169.0661.247.0042.051-.0006.101-.0142.15-.0259.068-.0304.127-.0072.137z"/></g></svg>