<svg fill="none" height="157" viewBox="0 0 187 157" width="187" xmlns="http://www.w3.org/2000/svg" xmlns:xlink="http://www.w3.org/1999/xlink"><filter id="a" color-interpolation-filters="sRGB" filterUnits="userSpaceOnUse" height="63.3535" width="117.035" x="33.0933" y="82.6465"><feFlood flood-opacity="0" result="BackgroundImageFix"/><feBlend in="SourceGraphic" in2="BackgroundImageFix" mode="normal" result="shape"/><feGaussianBlur result="effect1_foregroundBlur_604_54704" stdDeviation="8"/></filter><filter id="b" color-interpolation-filters="sRGB" filterUnits="userSpaceOnUse" height="64.6438" width="56.2903" x="67.4476" y="92.0013"><feFlood flood-opacity="0" result="BackgroundImageFix"/><feBlend in="SourceGraphic" in2="BackgroundImageFix" mode="normal" result="shape"/><feGaussianBlur result="effect1_foregroundBlur_604_54704" stdDeviation="8.32258"/></filter><filter id="c" color-interpolation-filters="sRGB" filterUnits="userSpaceOnUse" height="81.289" width="134.97" x=".03225" y="69.5679"><feFlood flood-opacity="0" result="BackgroundImageFix"/><feBlend in="SourceGraphic" in2="BackgroundImageFix" mode="normal" result="shape"/><feGaussianBlur result="effect1_foregroundBlur_604_54704" stdDeviation="12.4839"/></filter><filter id="d" color-interpolation-filters="sRGB" filterUnits="userSpaceOnUse" height="81.289" width="134.97" x="51.9976" y="69.5679"><feFlood flood-opacity="0" result="BackgroundImageFix"/><feBlend in="SourceGraphic" in2="BackgroundImageFix" mode="normal" result="shape"/><feGaussianBlur result="effect1_foregroundBlur_604_54704" stdDeviation="12.4839"/></filter><radialGradient id="e" cx="0" cy="0" gradientTransform="matrix(120.93829962 121.61394166 -121.61181444 120.93618421 32.0864 0)" gradientUnits="userSpaceOnUse" r="1"><stop offset=".00520833" stop-color="#ffef58"/><stop offset=".171875" stop-color="#ffeb30"/><stop offset=".313138" stop-color="#ffe700"/><stop offset=".692708" stop-color="#ffe700"/><stop offset=".96875" stop-color="#fde92c"/></radialGradient><radialGradient id="f" cx="0" cy="0" gradientTransform="matrix(-21.46623333 -26.82492852 26.82492852 -21.46623333 104.696 135)" gradientUnits="userSpaceOnUse" r="1"><stop offset="0" stop-color="#61ff01"/><stop offset="1" stop-color="#4ab403"/></radialGradient><g filter="url(#a)" opacity=".7"><ellipse cx="91.6105" cy="114.323" fill="#000" rx="42.5172" ry="15.6768"/></g><g filter="url(#b)" opacity=".6"><ellipse cx="95.5928" cy="124.323" fill="#000" rx="11.5" ry="15.6768"/></g><g filter="url(#c)" opacity=".2"><ellipse cx="67.5172" cy="110.212" fill="#fde92c" rx="42.5172" ry="15.6768"/></g><g filter="url(#d)" opacity=".2"><ellipse cx="119.483" cy="110.212" fill="#fde92c" rx="42.5172" ry="15.6768"/></g><rect fill="url(#e)" height="121.614" rx="30.6171" width="120.938" x="32.0864"/><path clip-rule="evenodd" d="m72.7714 24.0923c-.9297.2057-2.7919.923-4.1374 1.5943-3.2346 1.6133-5.9259 4.2318-7.4868 7.2845-2.1329 4.1723-2.0068 2.7975-2.1018 22.907-.0959 20.4212-.1001 20.3689 1.8921 24.5214 1.2939 2.6973 3.4481 5.1681 5.8513 6.7106.7865.5049 5.4233 2.9971 10.3033 5.5372 9.9391 5.1743 11.2643 5.6636 15.3247 5.6636 2.8675 0 4.5337-.2908 6.6993-1.1696 2.5519-1.0356 18.5339-9.4327 19.9609-10.4868 3.054-2.257 5.442-5.7767 6.481-9.5548.521-1.8893.539-2.5605.539-20.0539 0-17.1556-.027-18.204-.513-20.118-1.443-5.6802-5.91-10.4769-11.549-12.4008l-2.115-.7221-18.729-.0432c-15.3879-.0357-19.0302.0232-20.4196.3306zm38.1226 11.8606c2.207 1.0094 3.497 3.3819 3.497 6.4336 0 1.0451-.136 1.2817-1.625 2.8223-9.985 10.3277-30.1556 10.3167-40.0697-.0218l-1.7456-1.8209.0057-1.7929c.0066-2.1434.5773-3.5847 1.8434-4.6588 1.7503-1.4855 1.0544-1.4347 19.7412-1.4394 16.254-.0043 17.362.0242 18.353.4779zm-34.6107 22.7024c2.4977 1.1605 5.3043 2.0774 8.4955 2.7747 2.2779.4984 3.4859.5891 7.8921.5939 4.4799.0047 5.5991-.0798 8.0581-.6072 4.467-.9577 9.041-2.7657 12.405-4.9035.542-.3448 1.053-.6275 1.134-.6275.082 0 .113 4.095.071 9.1006-.075 8.7467-.1 9.141-.64 10.1481-.308.5762-.894 1.3605-1.3 1.7425-.406.3824-3.607 2.1871-7.112 4.0104-10.9792 5.7106-11.1015 5.7657-12.7531 5.7434-1.6053-.0219-.8791.3069-11.9587-5.4161-7.4948-3.8717-8.1458-4.303-8.9772-5.9553l-.6473-1.2864v-9.1581-9.1586l1.7555 1.0765c.9661.5919 2.5756 1.457 3.5771 1.9226z" fill="#000" fill-rule="evenodd"/><circle cx="94.5" cy="119.5" fill="url(#f)" r="15.5"/><path d="m102 114-11 11-5-5" stroke="#fff" stroke-linecap="round" stroke-linejoin="round" stroke-width="2"/></svg>