<svg fill="none" height="69" viewBox="0 0 80 69" width="80" xmlns="http://www.w3.org/2000/svg" xmlns:xlink="http://www.w3.org/1999/xlink"><filter id="a" color-interpolation-filters="sRGB" filterUnits="userSpaceOnUse" height="44.6547" width="69.7551" x="9.36764" y="4.81631"><feFlood flood-opacity="0" result="BackgroundImageFix"/><feBlend in="SourceGraphic" in2="BackgroundImageFix" mode="normal" result="shape"/><feGaussianBlur result="effect1_foregroundBlur_657_47643" stdDeviation="5.5971"/></filter><filter id="b" color-interpolation-filters="sRGB" filterUnits="userSpaceOnUse" height="7.70787" width="8.25206" x="22.1721" y="11.584"><feFlood flood-opacity="0" result="BackgroundImageFix"/><feColorMatrix in="SourceAlpha" result="hardAlpha" type="matrix" values="0 0 0 0 0 0 0 0 0 0 0 0 0 0 0 0 0 0 127 0"/><feOffset dx=".090682" dy=".090682"/><feComposite in2="hardAlpha" operator="out"/><feColorMatrix type="matrix" values="0 0 0 0 1 0 0 0 0 1 0 0 0 0 1 0 0 0 0.3 0"/><feBlend in2="BackgroundImageFix" mode="normal" result="effect1_dropShadow_657_47643"/><feBlend in="SourceGraphic" in2="effect1_dropShadow_657_47643" mode="normal" result="shape"/></filter><filter id="c" color-interpolation-filters="sRGB" filterUnits="userSpaceOnUse" height="44.6547" width="69.7551" x=".367638" y="23.8163"><feFlood flood-opacity="0" result="BackgroundImageFix"/><feBlend in="SourceGraphic" in2="BackgroundImageFix" mode="normal" result="shape"/><feGaussianBlur result="effect1_foregroundBlur_657_47643" stdDeviation="5.5971"/></filter><filter id="d" color-interpolation-filters="sRGB" filterUnits="userSpaceOnUse" height="7.70787" width="8.25206" x="13.1721" y="30.584"><feFlood flood-opacity="0" result="BackgroundImageFix"/><feColorMatrix in="SourceAlpha" result="hardAlpha" type="matrix" values="0 0 0 0 0 0 0 0 0 0 0 0 0 0 0 0 0 0 127 0"/><feOffset dx=".090682" dy=".090682"/><feComposite in2="hardAlpha" operator="out"/><feColorMatrix type="matrix" values="0 0 0 0 1 0 0 0 0 1 0 0 0 0 1 0 0 0 0.3 0"/><feBlend in2="BackgroundImageFix" mode="normal" result="effect1_dropShadow_657_47643"/><feBlend in="SourceGraphic" in2="effect1_dropShadow_657_47643" mode="normal" result="shape"/></filter><linearGradient id="e"><stop offset="0" stop-color="#fff" stop-opacity=".38"/><stop offset="1" stop-color="#fff" stop-opacity="0"/></linearGradient><linearGradient id="f" gradientUnits="userSpaceOnUse" x1="17.023" x2="71.8045" xlink:href="#e" y1=".914307" y2="36.4876"/><linearGradient id="g"><stop offset="0"/><stop offset="1" stop-opacity=".05"/></linearGradient><linearGradient id="h" gradientUnits="userSpaceOnUse" x1="16.5597" x2="72.3398" xlink:href="#g" y1="35.6821" y2=".817882"/><linearGradient id="i"><stop offset=".135" stop-color="#fff"/><stop offset=".695" stop-color="#d9d9d9"/><stop offset="1" stop-color="#ececec"/></linearGradient><linearGradient id="j" gradientUnits="userSpaceOnUse" x1="22.1717" x2="30.3331" xlink:href="#i" y1="11.5841" y2="19.2014"/><linearGradient id="k"><stop offset="0" stop-color="#c2b39a" stop-opacity=".76"/><stop offset="1" stop-color="#c2b39a" stop-opacity=".49"/></linearGradient><linearGradient id="l" gradientUnits="userSpaceOnUse" x1="30.2776" x2="22.1554" xlink:href="#k" y1="19.1736" y2="11.646"/><linearGradient id="m" gradientUnits="userSpaceOnUse" x1="8.16139" x2=".000001" y1=".000001" y2="7.6173"><stop offset=".135" stop-color="#fff"/><stop offset=".5" stop-color="#d9d9d9"/><stop offset="1" stop-color="#f5f5f5"/></linearGradient><linearGradient id="n"><stop offset="0" stop-color="#bdab8d" stop-opacity=".8608"/><stop offset="1" stop-color="#bdab8d"/></linearGradient><linearGradient id="o" gradientUnits="userSpaceOnUse" x1="22.3303" x2="30.0611" xlink:href="#n" y1="11.6927" y2="19.2012"/><linearGradient id="p" gradientUnits="userSpaceOnUse" x1="8.02301" x2="62.8045" xlink:href="#e" y1="19.9143" y2="55.4876"/><linearGradient id="q" gradientUnits="userSpaceOnUse" x1="7.5597" x2="63.3398" xlink:href="#g" y1="54.6821" y2="19.8179"/><linearGradient id="r" gradientUnits="userSpaceOnUse" x1="13.1717" x2="21.3331" xlink:href="#i" y1="30.5841" y2="38.2014"/><linearGradient id="s" gradientUnits="userSpaceOnUse" x1="21.2776" x2="13.1554" xlink:href="#k" y1="38.1736" y2="30.646"/><linearGradient id="t" gradientUnits="userSpaceOnUse" x1="13.3303" x2="21.0611" xlink:href="#n" y1="30.6927" y2="38.2012"/><mask id="u" height="9" maskUnits="userSpaceOnUse" width="9" x="22" y="11"><rect fill="url(#m)" height="7.6173" rx=".725457" transform="matrix(-1 0 0 1 30.3335 11.584)" width="8.16139"/></mask><mask id="v" height="9" maskUnits="userSpaceOnUse" width="9" x="13" y="30"><rect fill="url(#m)" height="7.6173" rx=".725457" transform="matrix(-1 0 0 1 21.3335 30.584)" width="8.16139"/></mask><g filter="url(#a)"><rect fill="#000" fill-opacity=".2" height="22.2663" rx="2.40766" width="47.3667" x="20.5618" y="16.0105"/></g><rect fill="#2c99fd" height="34.8219" rx="2.5391" width="54.9534" x="17.023" y=".914307"/><rect fill="url(#f)" height="34.8219" rx="2.5391" width="54.9534" x="17.023" y=".914307"/><rect height="34.6406" rx="2.44842" stroke="url(#h)" stroke-opacity=".04" stroke-width=".181364" width="54.772" x="17.1137" y="1.00499"/><path d="m62.8591 27.4712h3.16v5.6171l-1.533.0208-1.627-.0208z" fill="#ff5f00"/><path d="m63.0576 30.3034c0-1.1581.5916-2.1676 1.4285-2.8322-.6151-.4833-1.4385-.793-2.2856-.793-2.0066 0-3.6301 1.6213-3.6301 3.6252s1.6235 3.6251 3.6301 3.6251c.8471 0 1.6705-.336 2.2856-.8194-.8369-.6545-1.4285-1.6477-1.4285-2.8057z" fill="#eb001b"/><path d="m70.4018 30.3034c0 2.0039-1.6234 3.6251-3.6301 3.6251-.847 0-1.6705-.336-2.2856-.8194.8471-.6646 1.4285-1.6477 1.4285-2.8057 0-1.1581-.5915-2.1676-1.4285-2.8322.6151-.4833 1.4386-.793 2.2856-.793 2.0067 0 3.6301 1.6313 3.6301 3.6252z" fill="#f79e1b"/><path d="m69.8138 32.6281h-.0434v-.0197h.1089v.0197h-.0437v.1488h-.0218z" fill="#000"/><path d="m69.8138 32.6281h-.0434v-.0197h.1089v.0197h-.0437v.1488h-.0218z" fill="#000"/><path d="m70.0581 32.7769h-.022v-.1175l-.0482.1175h-.0168l-.0485-.1175v.1175h-.0218v-.1685h.0211l.0576.1348.0575-.1348h.0211z" fill="#000"/><path d="m70.0581 32.7769h-.022v-.1175l-.0482.1175h-.0168l-.0485-.1175v.1175h-.0218v-.1685h.0211l.0576.1348.0575-.1348h.0211z" fill="#000"/><path d="m30.3788 12.3095c0-.4257-.3451-.7708-.7708-.7708h-6.7104c-.4257 0-.7708.3451-.7708.7708v6.1664c0 .4257.3451.7708.7708.7708h6.7104c.4257 0 .7708-.3451.7708-.7708z" fill="url(#j)" stroke="url(#l)" stroke-width=".090682"/><g mask="url(#u)"><g filter="url(#b)"><path d="m26.3435 11.5839v1.7229h-4.1714v.0907h3.0832v1.3603h-3.0832v.0906h3.0832v1.3603h-3.0832v.0907h3.0832v1.3602h-3.0832v.0907h4.1714v1.4509h.0907v-1.4509h3.8993v-.0907h-2.9925v-1.3602h2.9925v-.0907h-2.9925v-1.3603h2.9925v-.0906h-3.0832v2.9018h-1.9043v-4.2621h4.9875v-.0907h-3.8993v-1.7229z" fill="url(#o)" shape-rendering="crispEdges"/></g></g><g filter="url(#c)"><rect fill="#000" fill-opacity=".2" height="22.2663" rx="2.40766" width="47.3667" x="11.5618" y="35.0105"/></g><rect fill="#fde92c" height="34.8219" rx="2.5391" width="54.9534" x="8.02301" y="19.9143"/><rect fill="url(#p)" height="34.8219" rx="2.5391" width="54.9534" x="8.02301" y="19.9143"/><rect height="34.6406" rx="2.44842" stroke="url(#q)" stroke-opacity=".04" stroke-width=".181364" width="54.772" x="8.11369" y="20.005"/><path d="m53.8591 46.4712h3.16v5.6171l-1.533.0208-1.627-.0208z" fill="#ff5f00"/><path d="m54.0576 49.3034c0-1.1581.5916-2.1676 1.4285-2.8322-.6151-.4833-1.4385-.793-2.2856-.793-2.0066 0-3.6301 1.6213-3.6301 3.6252s1.6235 3.6251 3.6301 3.6251c.8471 0 1.6705-.336 2.2856-.8194-.8369-.6545-1.4285-1.6477-1.4285-2.8057z" fill="#eb001b"/><path d="m61.4018 49.3034c0 2.0039-1.6234 3.6251-3.6301 3.6251-.847 0-1.6705-.336-2.2856-.8194.8471-.6646 1.4285-1.6477 1.4285-2.8057 0-1.1581-.5915-2.1676-1.4285-2.8322.6151-.4833 1.4386-.793 2.2856-.793 2.0067 0 3.6301 1.6313 3.6301 3.6252z" fill="#f79e1b"/><g fill="#000"><path d="m60.8138 51.6281h-.0434v-.0197h.1089v.0197h-.0437v.1488h-.0218z"/><path d="m60.8138 51.6281h-.0434v-.0197h.1089v.0197h-.0437v.1488h-.0218z"/><path d="m61.0581 51.7769h-.022v-.1175l-.0482.1175h-.0168l-.0485-.1175v.1175h-.0218v-.1685h.0211l.0576.1348.0575-.1348h.0211z"/><path d="m61.0581 51.7769h-.022v-.1175l-.0482.1175h-.0168l-.0485-.1175v.1175h-.0218v-.1685h.0211l.0576.1348.0575-.1348h.0211z"/><path clip-rule="evenodd" d="m46.4391 23.4893h1.4235c.2117 0 .4036.0363.5756.109.1721.0727.3195.1724.4424.2991s.2174.273.2835.4389c.0662.1659.0993.3402.0993.5228 0 .1864-.0331.3616-.0993.5256-.0661.164-.1606.3093-.2835.4361-.1229.1267-.2703.2264-.4424.2991-.172.0727-.3639.109-.5756.109h-.7713v1.1742h-.6522zm1.4235 2.1638c.1134 0 .2164-.0215.3091-.0643.0926-.0429.1711-.1007.2353-.1734.0643-.0727.1144-.1565.1503-.2516.0359-.095.0539-.1966.0539-.3047s-.018-.2097-.0539-.3047c-.0359-.0951-.086-.1789-.1503-.2516-.0642-.0727-.1427-.1305-.2353-.1733-.0927-.0429-.1957-.0643-.3091-.0643h-.7713v1.5879zm2.8309 1.8171c-.2118 0-.4027-.0363-.5728-.109-.1702-.0727-.3157-.1724-.4367-.2992-.121-.1267-.2146-.2721-.2807-.4361-.0662-.164-.0993-.3392-.0993-.5255 0-.1827.0331-.3569.0993-.5228.0661-.1659.1597-.3122.2807-.4389.121-.1268.2665-.2265.4367-.2991.1701-.0727.361-.1091.5728-.1091.2117 0 .4036.0364.5756.1091.172.0726.3195.1723.4423.2991.1229.1267.2174.273.2836.4389s.0992.3401.0992.5228c0 .1863-.033.3615-.0992.5255s-.1607.3094-.2836.4361c-.1228.1268-.2703.2265-.4423.2992s-.3639.109-.5756.109zm0-.5423c.1172 0 .224-.0224.3204-.0671.0964-.0448.1786-.1044.2467-.179.068-.0745.121-.1621.1588-.2627.0378-.1007.0567-.2069.0567-.3187 0-.1119-.0189-.2181-.0567-.3187-.0378-.1007-.0908-.1883-.1588-.2628-.0681-.0746-.1503-.1342-.2467-.1789-.0964-.0448-.2032-.0671-.3204-.0671s-.2231.0223-.3176.0671c-.0945.0447-.1758.1043-.2439.1789-.068.0745-.12.1621-.1559.2628-.036.1006-.0539.2068-.0539.3187 0 .1118.0179.218.0539.3187.0359.1006.0879.1882.1559.2627.0681.0746.1494.1342.2439.179.0945.0447.2004.0671.3176.0671zm3.6758-1.1798c-.0189-.1416-.0746-.2562-.1673-.3438-.0926-.0876-.2448-.1314-.4565-.1314-.121 0-.225.0223-.3119.0671-.087.0447-.1607.1053-.2212.1817s-.1049.164-.1333.2628c-.0283.0987-.0425.204-.0425.3159 0 .1118.0142.218.0425.3187.0284.1006.0728.1882.1333.2627.0605.0746.138.1342.2325.179.0945.0447.208.0671.3403.0671.1815 0 .3147-.0373.3998-.1119.0851-.0745.1484-.177.19-.3075h.6182c-.0227.1342-.0643.26-.1248.3774s-.1427.2199-.2467.3075-.2287.1557-.3743.2041c-.1456.0485-.3148.0727-.5076.0727-.2155 0-.4055-.0382-.5699-.1146-.1645-.0764-.3025-.178-.414-.3047-.1116-.1268-.1957-.2721-.2524-.4361-.0567-.1641-.0851-.3355-.0851-.5144 0-.1752.0284-.3458.0851-.5116.0567-.1659.1408-.3122.2524-.4389.1115-.1268.2486-.2283.4111-.3048.1626-.0764.3516-.1146.5672-.1146.2155 0 .3998.0298.5529.0895.1531.0596.2798.137.38.232.1002.0951.1758.2032.2268.3243s.0822.2451.0936.3718zm2.4055.3523 1.1003 1.3027h-.7713l-.9698-1.1462v1.1462h-.6182v-3.9138h.6182v2.4601l.9698-1.1518h.7713zm1.4528-1.3028h.6182v2.6055h-.6182zm2.7912 2.6055c-.0492.0074-.1153.0149-.1985.0224-.0832.0074-.1702.0111-.2609.0111-.0756 0-.1626-.0065-.2609-.0195-.0983-.0131-.1918-.0494-.2807-.1091-.0888-.0596-.1635-.1509-.224-.2739s-.0907-.2945-.0907-.5144v-1.2133h-.4481v-.5088h.4481v-.7884h.6181v.7884h.6068v.5088h-.6068v1.0735c0 .1118.0085.2013.0255.2684s.0426.1183.0766.1537c.034.0355.0747.0587.1219.0699.0473.0112.1012.0168.1617.0168.0491 0 .1058-.0019.1701-.0056s.1115-.0093.1418-.0168z" fill-rule="evenodd"/><path clip-rule="evenodd" d="m58.0802 23.8472c0-.1268.0444-.2339.1333-.3215.0888-.0876.1956-.1314.3204-.1314.1285 0 .2372.0438.3261.1314.0888.0876.1333.1947.1333.3215 0 .123-.0445.2283-.1333.3159-.0889.0876-.1976.1314-.3261.1314-.1248 0-.2316-.0438-.3204-.1314-.0889-.0876-.1333-.1929-.1333-.3159z" fill-rule="evenodd"/><path d="m39.8143 24.5529.518-.2561c.2198.4699.8292.8068 1.535.8068.6984 0 1.3033-.33 1.5286-.7935l.5142.2642c-.3299.6786-1.1395 1.1203-2.0428 1.1203-.9134 0-1.7303-.4516-2.053-1.1417z"/><path clip-rule="evenodd" d="m42.9008 23.2097h-2.0773c-.6444 0-1.1668.5048-1.1668 1.1275v2.0306c0 .4183.2398.8023.6227.9974l1.0387.5291c.3405.1734.7477.1734 1.0882 0l1.0386-.5291c.383-.1951.6227-.5791.6227-.9974v-2.0306c0-.6227-.5223-1.1275-1.1668-1.1275zm-2.4662 1.1275c0-.2076.1741-.3758.3889-.3758h2.0773c.2148 0 .389.1682.389.3758v2.0306c0 .1394-.0799.2674-.2076.3325l-1.0386.529c-.1135.0578-.2493.0578-.3628 0l-1.0386-.529c-.1277-.0651-.2076-.1931-.2076-.3325z" fill-rule="evenodd"/></g><path d="m21.3788 31.3095c0-.4257-.3451-.7708-.7708-.7708h-6.7104c-.4257 0-.7708.3451-.7708.7708v6.1664c0 .4257.3451.7708.7708.7708h6.7104c.4257 0 .7708-.3451.7708-.7708z" fill="url(#r)" stroke="url(#s)" stroke-width=".090682"/><g mask="url(#v)"><g filter="url(#d)"><path d="m17.3435 30.5839v1.7229h-4.1714v.0907h3.0832v1.3603h-3.0832v.0906h3.0832v1.3603h-3.0832v.0907h3.0832v1.3602h-3.0832v.0907h4.1714v1.4509h.0907v-1.4509h3.8993v-.0907h-2.9925v-1.3602h2.9925v-.0907h-2.9925v-1.3603h2.9925v-.0906h-3.0832v2.9018h-1.9043v-4.2621h4.9875v-.0907h-3.8993v-1.7229z" fill="url(#t)" shape-rendering="crispEdges"/></g></g></svg>