<svg fill="none" height="33" viewBox="0 0 95 33" width="95" xmlns="http://www.w3.org/2000/svg" xmlns:xlink="http://www.w3.org/1999/xlink"><clipPath id="a"><path d="m15.293.340942h64.1013v32.0507h-64.1013z"/></clipPath><g fill="#000" opacity=".4"><g clip-path="url(#a)"><path clip-rule="evenodd" d="m48.6967 3.25678h-.2876v.09673h2.1645v-1.07785h-.1096c-.2877.88439-.3425.9673-.4932.9673h-.8357v-1.40949h.2877c.2055 0 .2603.05527.411.5251h.1096v-1.16076h-.1096c-.1233.46983-.2055.52511-.411.52511h-.2877v-1.285126h.7809c.1733 0 .2005.078593.3608.542265v.000026.000054c.0298.086221.0642.185761.105.300591h.1096v-.939666h-2.0823v.110549h.2876zm-27.1114 9.90792c-.6713 1.2575-1.9454 1.824-3.3291 1.824-1.1233 0-1.9179-.3178-2.918-.8153v-3.427h.2877l.0609.2577c.1279.5411.251 1.0625.4049 1.6355.1112.4559.2963.8901.548 1.2851.2329.3455.7535.76 1.7398.76.3836 0 1.4796-.0829 2.1372-1.1055.2234-.3707.3419-.796.3425-1.2298.0037-.4533-.1408-.8953-.411-1.2575-.1148-.175-.2531-.3332-.411-.4698-.5151-.3959-1.1071-.62565-2.1396-1.02638l-.0009-.00033-.0009-.00036-.0009-.00034c-.12-.04658-.246-.09547-.3784-.1472-.4994-.18616-.7321-.35497-.9504-.51329-.0572-.04147-.1133-.08222-.173-.12237-.3836-.23491-1.096-.8982-1.096-2.12805-.0066-.53547.1358-1.06207.411-1.52004.5206-.89821 1.8221-1.46477 3.0687-1.46477 1.0412 0 1.6166.11055 2.5756.34547v3.44081h-.2877c-.0254-.11756-.0508-.23792-.0765-.35972-.21-.99481-.4401-2.08515-.8551-2.52835-.2603-.26255-.6439-.58038-1.507-.58038-.8357 0-1.5617.23492-2.0275.91202-.2362.31972-.3657.70679-.3699 1.10549.0034.31782.0934.62857.2603.8982.3405.5381.8691.76317 1.4377 1.0053l.0001.00002c.1176.05011.237.10094.3568.15544.107.04542.2186.08852.3291.13119.1584.06118.3146.12151.4518.18664.0655.02618.1306.05192.1953.07748l.0002.00011.0019.00075.0003.00012c.6508.25732 1.2573.49716 1.8299.99938.3425.29019.8905.93966.8905 2.15566-.0062.532-.1427 1.0542-.3973 1.5201zm21.3993-5.77618c-.2055-1.05021-.4932-2.36297-.959-2.86043-.2603-.29019-.6302-.49747-1.2741-.49747-1.9453 0-2.8358 1.67204-2.8358 5.40305l-.0001.0592c-.0009.66093-.0038 2.81373.7262 4.05873.1785.3245.4383.5961.7535.7877.3607.2178.7715.3369 1.1918.3454.3052-.0054.6068-.0662.8905-.1796.6439-.2902.9864-.8982 1.2193-1.6583.2174-.6374.3734-1.2945.4658-1.9622h.2877v3.4132c-.2001.1251-.411.2314-.6302.3178-.6475.25-1.3342.3811-2.0276.3869-1.0138 0-1.6165-.2625-1.9453-.4422-1.0412-.5527-2.6304-1.9898-2.6304-5.05754 0-3.50991 2.1372-5.78997 4.6031-5.78997.8248.00035 1.6456.11662 2.4386.34547v3.33026zm28.015 2.01751c0-3.27499-1.7946-5.61033-4.1921-5.61033-2.4111 0-4.2058 2.3077-4.2058 5.58269 0 3.27501 1.781 5.61031 4.2058 5.61031 2.3975 0 4.1921-2.3077 4.1921-5.58267zm7.7279 5.08527h.6713v.2901h-2.3975l-.3699-.5527-2.8084-4.1179-.6713-.99496v-.06909h.548c1.9179-.05528 2.7536-.8153 2.7536-2.54262 0-1.31276-.7535-1.93459-1.2741-2.10041-.2329-.08292-.7534-.11055-1.1233-.11055h-.959v10.19813h1.1371v.2901h-3.8497v-.2901h1.1371v-10.19813h-1.1508v-.29019h4.1374l.1553.01129c1.0722.07726 2.1436.15447 2.9408 1.01128.3724.41695.5775.95884.5754 1.52004 0 .46983-.1233 1.3404-1.1234 1.98987-.4658.31783-1.1645.55274-2.1098.64947zm-11.9191-10.37777c-1.1233 0-2.4659.3731-2.4659 5.26486 0 4.85031 1.3563 5.29251 2.4659 5.29251 1.1097 0 2.4386-.3731 2.4386-5.26487.0137-4.85031-1.3426-5.2925-2.4386-5.2925zm-12.85 5.98337-1.4796-4.79499-1.5618 4.79499zm-4.4809 4.3944 1.3289-4.0903h3.2469l1.2466 4.0903h-1.3562v.2901h7.1512v-.2901h-1.3288v-10.19813c.3838-.01043.7678-.00121 1.1507.02763.3871.03272.7058.32033.7809.70475.0467.17066.0859.3388.124.50231l.0002.00072.0002.0007v.00027.00005.00006.00006c.0513.21978.1006.43116.1633.62895.0639.22566.1232.46542.1832.70832.0429.17358.0862.34875.1319.52153h.2603v-3.38554h-7.165v3.38554h.2877c.1018-.38484.1917-.79349.2698-1.14858l.0001-.00049.0002-.00054v-.00017l.0176-.08007c.0822-.3731.1918-.7462.3151-1.13312l.016-.04119c.0834-.21665.2255-.58583.7649-.66356.3783-.0292.7578-.03843 1.1371-.02763v10.19813h-1.3289l-3.329-10.48832h-1.0138l-3.4113 10.48832h-1.2466v-10.19813c.3792-.01052.7587-.0013 1.137.02763.3871.03272.7058.32033.7809.70475.0467.17066.0859.3388.124.50231l.0002.00072.0002.0007v.00027.00005l.0001.00006v.00006c.0512.21978.1005.43116.1632.62895.0583.20566.1049.42302.1523.6438.0418.1946.0841.39184.1354.58605h.2877v-3.38554h-6.9868v3.38554h.2876c.1018-.38508.1918-.794.27-1.14925l.0001-.00034v-.00003-.00015l.0176-.08008c.0822-.3731.1918-.7462.3151-1.13312l.016-.04119c.0834-.21665.2255-.58583.7649-.66356.3279-.0305.6574-.03973.9864-.02763v10.19813h-1.2741v.2901h5.932v-.2901zm-13.4798-3.6205h-.2877c-.146.6171-.3244 1.226-.5343 1.824-.012.0344-.0243.0704-.0371.1078-.1777.518-.4437 1.2936-1.0315 1.5643-.2587.0947-.5334.137-.8083.1244h-2.2056v-5.22346h.8631c.411 0 .6986.02764.9589.31783.186.22945.3173.49893.3836.78763.0548.1727.0925.3351.1302.4974v.0001.0001c.0377.1623.0753.3247.1301.4974h.2877v-4.50488h-.2877c-.0187.07538-.0365.14828-.0538.21877-.1984.80824-.3194 1.30134-.6723 1.61909-.2329.20728-.411.26255-.7534.29019h-.9864v-4.6983h2.1645c.6987.05527 1.0686.13818 1.3289.3731.1507.152.2877.38692.4658.91202.1541.43529.2851.89389.4161 1.35249.0437.15287.0874.30574.1319.45774h.2877v-3.38554h-7.3842v.29019h1.0138v10.19813h-1.0138v.2901h7.4938zm-11.2069-6.57764h-.6302v4.93322h1.2741c1.1919 0 1.9454-.8982 1.9454-2.25242 0-1.81023-.822-2.6808-2.5893-2.6808zm-.6305 5.22342h1.2741c2.1097 0 3.5619-1.13312 3.5619-2.73607 0-1.7826-1.4522-2.77753-4.0277-2.77753h-3.1784v.29019h.8083v10.21193h-1.0138v.2902h3.8771v-.2902h-1.3015zm21.4544-6.2598h.2877v-2.805167h-.2877v-.110549h1.0138v.110549h-.2877v1.285127h1.1371v-1.285127h-.2877v-.110549h1.0138v.110549h-.2877v2.805167h.2877v.11055h-1.0138v-.11055h.2877v-1.42331h-1.1371v1.40949h.2877v.11055h-1.0138zm-.8497-2.818986c.2329 0 .2603.055274.5206.842936h.0959v-.939666h-2.0549v.953476h.1096c.2602-.787653.2876-.842927.5205-.842927h.1781v2.791347h-.411v.11055h1.2741v-.11055h-.411v-2.805166z" fill-rule="evenodd"/><path d="m21.5935 18.9144v1.4054h1.8535v.5033h-1.8535v1.3809h1.8535v.5033h-2.412v-4.2962h2.412v.5033zm4.7378 2.0192c-.0205-.1719-.0901-.3151-.2087-.4296-.1146-.1187-.3028-.178-.5647-.178-.1432 0-.27.0266-.3805.0798-.1064.0532-.1964.1268-.27.2209-.0696.09-.1228.1944-.1596.313-.0368.1187-.0552.2435-.0552.3744s.0163.2557.0491.3744c.0368.1186.092.223.1657.313.0736.09.1657.1616.2762.2148.1145.0532.2496.0798.405.0798.2333 0 .4051-.0491.5156-.1473.1104-.0982.1882-.2312.2332-.399h.5339c-.0204.1433-.0634.2783-.1288.4051-.0655.1228-.1535.2312-.264.3253-.1063.09-.2373.1616-.3927.2148-.1555.0532-.3335.0798-.534.0798-.2291 0-.4296-.0409-.6015-.1228-.1718-.0818-.3171-.1902-.4357-.3252-.1187-.1351-.2087-.2905-.2701-.4665-.0572-.1759-.0859-.358-.0859-.5462s.0287-.3703.0859-.5462c.0614-.176.1494-.3314.264-.4665.1186-.1391.2639-.2496.4357-.3314.1759-.0818.3764-.1227.6015-.1227.225 0 .4173.0327.5769.0982.1636.0613.2966.1432.3989.2455.1064.0982.1862.2127.2394.3436.0572.131.092.264.1043.399zm2.4943 1.8412c-.221 0-.4215-.0389-.6015-.1166-.18-.0778-.3335-.1841-.4603-.3192-.1268-.135-.225-.2905-.2946-.4664s-.1043-.3621-.1043-.5585.0347-.3826.1043-.5585c.0696-.18.1678-.3376.2946-.4726s.2803-.2414.4603-.3191c.18-.0778.3805-.1166.6015-.1166.225 0 .4275.0388.6076.1166.18.0777.3334.1841.4603.3191.1309.135.2311.2926.3007.4726.0696.1759.1043.3621.1043.5585s-.0347.3826-.1043.5585-.1698.3314-.3007.4664c-.1269.1351-.2803.2414-.4603.3192-.1801.0777-.3826.1166-.6076.1166zm0-.4787c.1432 0 .2721-.0266.3866-.0798.1187-.0532.2189-.1228.3007-.2087.0819-.09.1453-.1943.1903-.313.045-.1186.0675-.2455.0675-.3805s-.0225-.2619-.0675-.3805c-.045-.1187-.1084-.223-.1903-.313-.0818-.09-.182-.1616-.3007-.2148-.1145-.0532-.2434-.0798-.3866-.0798s-.2721.0266-.3867.0798-.2128.1248-.2946.2148c-.0777.09-.1391.1943-.1841.313-.045.1186-.0675.2455-.0675.3805s.0225.2619.0675.3805c.045.1187.1064.223.1841.313.0818.0859.18.1555.2946.2087s.2435.0798.3867.0798zm2.2006-2.3752h.534v.491c.0818-.1718.2066-.3089.3744-.4112.1677-.1023.3703-.1534.6076-.1534.1964 0 .3641.0327.5032.0982.1391.0613.2496.1514.3314.27.0778.1064.133.225.1658.356.0327.1309.0491.2946.0491.491v1.6448h-.534v-1.4791c0-.1269-.0123-.2455-.0368-.356-.0246-.1146-.0655-.2107-.1228-.2885-.0532-.0818-.1248-.1452-.2148-.1902-.09-.0491-.2005-.0737-.3314-.0737-.135 0-.2516.0266-.3498.0798s-.1801.1248-.2455.2148c-.0655.086-.1146.1862-.1473.3008-.0327.1145-.0491.2332-.0491.3559v1.4362h-.534zm4.7039 2.8539c-.221 0-.4214-.0389-.6015-.1166-.18-.0778-.3334-.1841-.4603-.3192-.1268-.135-.225-.2905-.2946-.4664-.0695-.1759-.1043-.3621-.1043-.5585s.0348-.3826.1043-.5585c.0696-.18.1678-.3376.2946-.4726.1269-.135.2803-.2414.4603-.3191.1801-.0778.3805-.1166.6015-.1166.225 0 .4276.0388.6076.1166.18.0777.3335.1841.4603.3191.1309.135.2312.2926.3007.4726.0696.1759.1044.3621.1044.5585s-.0348.3826-.1044.5585c-.0695.1759-.1698.3314-.3007.4664-.1268.1351-.2803.2414-.4603.3192-.18.0777-.3826.1166-.6076.1166zm0-.4787c.1432 0 .2721-.0266.3866-.0798.1187-.0532.2189-.1228.3008-.2087.0818-.09.1452-.1943.1902-.313.045-.1186.0675-.2455.0675-.3805s-.0225-.2619-.0675-.3805c-.045-.1187-.1084-.223-.1902-.313-.0819-.09-.1821-.1616-.3008-.2148-.1145-.0532-.2434-.0798-.3866-.0798s-.2721.0266-.3867.0798c-.1145.0532-.2127.1248-.2946.2148-.0777.09-.1391.1943-.1841.313-.045.1186-.0675.2455-.0675.3805s.0225.2619.0675.3805c.045.1187.1064.223.1841.313.0819.0859.1801.1555.2946.2087.1146.0532.2435.0798.3867.0798zm5.8094.4112v-1.6019c0-.2577-.0511-.4521-.1534-.583-.0982-.135-.2434-.2026-.4357-.2026-.2087 0-.3744.0798-.4972.2394-.1227.1596-.1841.403-.1841.7303v1.4178h-.5339v-1.5712c0-.2823-.0512-.4889-.1535-.6199-.0982-.1309-.2414-.1964-.4296-.1964-.2046 0-.3703.0798-.4971.2394-.1269.1596-.1903.403-.1903.7303v1.4178h-.5339v-2.7864h.5339v.4971c.0532-.1554.1514-.2884.2946-.3989.1432-.1146.3192-.1718.5278-.1718.2578 0 .4583.0552.6015.1657.1432.1064.2414.2496.2946.4296.0286-.0778.0716-.1534.1289-.2271.0572-.0736.1227-.1371.1964-.1903.0777-.0531.1636-.0961.2577-.1288.0982-.0328.2026-.0491.313-.0491.1842 0 .3396.0286.4665.0859.1268.0573.2291.135.3068.2332.0778.0982.133.2148.1658.3498.0368.1351.0552.2783.0552.4297v1.7614zm1.4498-2.7864h.5339v2.7864h-.5339zm-.1596-1.0556c0-.1187.0409-.221.1228-.3069.0818-.0859.182-.1289.3007-.1289s.2209.043.3069.1289c.0859.0859.1289.1882.1289.3069 0 .1186-.043.2189-.1289.3007-.086.0818-.1882.1228-.3069.1228s-.2189-.041-.3007-.1228c-.0819-.0818-.1228-.1821-.1228-.3007zm3.6098 2.0683c-.0205-.1719-.09-.3151-.2087-.4296-.1145-.1187-.3027-.178-.5646-.178-.1432 0-.2701.0266-.3805.0798-.1064.0532-.1964.1268-.2701.2209-.0695.09-.1227.1944-.1595.313-.0369.1187-.0553.2435-.0553.3744s.0164.2557.0491.3744c.0368.1186.0921.223.1657.313.0737.09.1657.1616.2762.2148.1146.0532.2496.0798.4051.0798.2332 0 .405-.0491.5155-.1473s.1882-.2312.2332-.399h.534c-.0205.1433-.0634.2783-.1289.4051-.0655.1228-.1534.2312-.2639.3253-.1064.09-.2373.1616-.3928.2148s-.3335.0798-.5339.0798c-.2292 0-.4297-.0409-.6015-.1228-.1719-.0818-.3171-.1902-.4358-.3252-.1186-.1351-.2086-.2905-.27-.4665-.0573-.1759-.0859-.358-.0859-.5462s.0286-.3703.0859-.5462c.0614-.176.1493-.3314.2639-.4665.1187-.1391.2639-.2496.4358-.3314.1759-.0818.3764-.1227.6014-.1227.2251 0 .4174.0327.5769.0982.1637.0613.2967.1432.399.2455.1063.0982.1861.2127.2393.3436.0573.131.0921.264.1044.399zm4.1687-2.5225c.3559 0 .671.0614.9451.1841.2782.1228.5115.2844.6997.4849.1923.2005.3375.4296.4357.6874.0982.2577.1473.5217.1473.7917s-.0491.5339-.1473.7917-.2434.4869-.4357.6874c-.1882.2005-.4215.3621-.6997.4849-.2741.1227-.5892.1841-.9451.1841h-1.3257v-4.2962zm-.7672.5033v3.2896h.7672c.2618 0 .495-.047.6996-.1411.2087-.0942.3826-.2169.5217-.3683.1391-.1555.2455-.3314.3191-.5278.0737-.1964.1105-.3989.1105-.6076s-.0368-.4112-.1105-.6076c-.0736-.1964-.18-.3703-.3191-.5217-.1391-.1555-.313-.2802-.5217-.3744-.2046-.0941-.4378-.1411-.6996-.1411zm3.7209 1.0065h.5339v2.7864h-.5339zm-.1596-1.0556c0-.1187.0409-.221.1227-.3069.0819-.0859.1821-.1289.3008-.1289.1186 0 .2209.043.3068.1289.086.0859.1289.1882.1289.3069 0 .1186-.0429.2189-.1289.3007-.0859.0818-.1882.1228-.3068.1228-.1187 0-.2189-.041-.3008-.1228-.0818-.0818-.1227-.1821-.1227-.3007zm2.8303 2.2892c.1064.0328.2087.0675.3069.1044.1023.0368.1923.0838.27.1411.0778.0573.1391.1289.1842.2148.0491.0859.0736.1944.0736.3253 0 .1391-.0286.2619-.0859.3682-.0532.1023-.1289.1883-.2271.2578-.0982.0696-.2148.1207-.3498.1535-.131.0368-.2742.0552-.4297.0552-.1554 0-.3027-.0205-.4418-.0614-.1392-.0409-.2619-.1023-.3683-.1841-.1023-.0859-.1861-.1923-.2516-.3192-.0614-.1268-.0921-.2741-.0921-.4418h.5217c0 .2127.0614.3641.1841.4541.1269.0859.2844.1289.4726.1289.1718 0 .3069-.0307.4051-.0921.1023-.0654.1534-.1677.1534-.3068 0-.0778-.0205-.1391-.0614-.1841-.0409-.0491-.1002-.0921-.178-.1289-.0736-.0368-.1657-.0696-.2761-.0982-.1105-.0328-.2353-.0737-.3744-.1228-.1064-.0327-.2066-.0675-.3007-.1043-.0901-.0368-.1698-.0839-.2394-.1412-.0655-.0572-.1187-.1268-.1596-.2086-.0368-.0819-.0552-.1862-.0552-.313 0-.131.0266-.2455.0798-.3437.0532-.1023.1268-.1862.2209-.2517.0941-.0695.2046-.1207.3314-.1534.1269-.0368.2619-.0552.4051-.0552.1514 0 .2925.0225.4235.0675.1309.045.2434.1104.3375.1964.0982.0818.1739.18.2271.2946.0573.1145.0859.2414.0859.3805h-.5155c0-.1637-.0491-.2885-.1473-.3744-.0941-.09-.2332-.135-.4173-.135-.1473 0-.2701.0327-.3683.0982-.0982.0654-.1473.1616-.1473.2884 0 .0696.0164.1269.0491.1719.0368.045.09.0839.1596.1166s.1534.0655.2516.0982c.0982.0286.2128.0634.3437.1043zm3.3212-.7426c-.0572-.0123-.1043-.0205-.1411-.0245-.0328-.0041-.0737-.0062-.1228-.0062-.3109 0-.5441.1003-.6996.3007-.1514.2005-.2271.4685-.2271.804v1.2214h-.534v-2.7864h.534v.5462c.0736-.1759.1964-.3171.3682-.4234.176-.1105.3621-.1657.5585-.1657.1064 0 .1944.0143.2639.0429zm3.0272-.491v2.7864h-.5339v-.4972c-.0819.1719-.2087.309-.3806.4113-.1677.1022-.3682.1534-.6014.1534-.1964 0-.3662-.0307-.5094-.0921-.1391-.0654-.2496-.1555-.3314-.27-.0778-.1064-.133-.2251-.1658-.356-.0286-.1309-.0429-.2946-.0429-.491v-1.6448h.5339v1.473c0 .1309.0123.2516.0369.3621.0245.1105.0634.2066.1166.2884.0573.0778.1289.1412.2148.1903.09.045.2005.0675.3314.0675.135 0 .2516-.0245.3498-.0736.1023-.0532.1862-.1228.2517-.2087.0654-.09.1145-.1923.1473-.3069.0327-.1145.0491-.2352.0491-.3621v-1.43zm1.494.4787c.09-.1718.223-.3068.3989-.405.176-.0982.3662-.1473.5708-.1473.2128 0 .4071.0388.5831.1166.18.0777.3314.1841.4541.3191.1269.135.2251.2926.2946.4726.0696.1759.1044.3621.1044.5585s-.0348.3826-.1044.5585c-.0695.1759-.1677.3314-.2946.4664-.1227.1351-.2741.2414-.4541.3192-.176.0777-.3703.1166-.5831.1166-.2046 0-.3948-.0491-.5708-.1473-.1759-.0982-.3089-.2332-.3989-.4051v1.9947h-.5339v-4.2962h.5339zm.9452-.0736c-.1432 0-.2742.0266-.3928.0798-.1146.0532-.2128.1248-.2946.2148s-.1453.1943-.1903.313c-.045.1186-.0675.2455-.0675.3805s.0225.2619.0675.3805c.045.1187.1085.223.1903.313.0818.0859.18.1555.2946.2087.1186.0532.2496.0798.3928.0798.1391 0 .2659-.0266.3805-.0798.1145-.0532.2107-.1228.2884-.2087.0819-.09.1453-.1943.1903-.313.045-.1186.0675-.2455.0675-.3805s-.0225-.2619-.0675-.3805c-.045-.1187-.1084-.223-.1903-.313-.0777-.09-.1739-.1616-.2884-.2148-.1146-.0532-.2414-.0798-.3805-.0798zm3.7108 2.3813c-.0532.0082-.1248.0163-.2148.0245-.0859.0082-.1739.0123-.2639.0123-.0859 0-.18-.0082-.2823-.0245-.1023-.0164-.1985-.0553-.2885-.1167-.0859-.0654-.1595-.1636-.2209-.2946-.0573-.1309-.0859-.3109-.0859-.54v-1.3994h-.5156v-.448h.5156v-.939h.5339v.939h.7242v.448h-.7242v1.2827c0 .1351.0102.2435.0307.3253.0245.0778.0573.1391.0982.1842.0409.0409.088.0675.1412.0797.0572.0123.1207.0184.1902.0184.0573 0 .1207-.002.1903-.0061.0736-.0041.1309-.0102.1718-.0184zm1.7795.0675c-.221 0-.4215-.0389-.6015-.1166-.18-.0778-.3335-.1841-.4603-.3192-.1268-.135-.225-.2905-.2946-.4664-.0695-.1759-.1043-.3621-.1043-.5585s.0348-.3826.1043-.5585c.0696-.18.1678-.3376.2946-.4726s.2803-.2414.4603-.3191c.18-.0778.3805-.1166.6015-.1166.225 0 .4275.0388.6076.1166.18.0777.3334.1841.4603.3191.1309.135.2311.2926.3007.4726.0696.1759.1043.3621.1043.5585s-.0347.3826-.1043.5585-.1698.3314-.3007.4664c-.1269.1351-.2803.2414-.4603.3192-.1801.0777-.3826.1166-.6076.1166zm0-.4787c.1432 0 .2721-.0266.3866-.0798.1187-.0532.2189-.1228.3008-.2087.0818-.09.1452-.1943.1902-.313.045-.1186.0675-.2455.0675-.3805s-.0225-.2619-.0675-.3805c-.045-.1187-.1084-.223-.1902-.313-.0819-.09-.1821-.1616-.3008-.2148-.1145-.0532-.2434-.0798-.3866-.0798s-.2721.0266-.3867.0798c-.1145.0532-.2127.1248-.2946.2148-.0777.09-.1391.1943-.1841.313-.045.1186-.0675.2455-.0675.3805s.0225.2619.0675.3805c.045.1187.1064.223.1841.313.0819.0859.1801.1555.2946.2087.1146.0532.2435.0798.3867.0798zm3.9252-1.8842c-.0572-.0123-.1043-.0205-.1411-.0245-.0327-.0041-.0737-.0062-.1228-.0062-.3109 0-.5441.1003-.6996.3007-.1514.2005-.2271.4685-.2271.804v1.2214h-.534v-2.7864h.534v.5462c.0736-.1759.1964-.3171.3682-.4234.176-.1105.3621-.1657.5585-.1657.1064 0 .1944.0143.2639.0429zm-49.2962 10.3629c-.2209 0-.4214-.0389-.6014-.1166-.18-.0778-.3335-.1841-.4603-.3192-.1269-.135-.2251-.2905-.2946-.4664-.0696-.1759-.1043-.3621-.1043-.5585s.0347-.3826.1043-.5585c.0695-.18.1677-.3376.2946-.4726.1268-.135.2803-.2414.4603-.3191.18-.0778.3805-.1166.6014-.1166.2251 0 .4276.0388.6076.1166.1801.0777.3335.1841.4603.3191.131.135.2312.2926.3008.4726.0695.1759.1043.3621.1043.5585s-.0348.3826-.1043.5585c-.0696.1759-.1698.3314-.3008.4664-.1268.1351-.2802.2414-.4603.3192-.18.0777-.3825.1166-.6076.1166zm0-.4787c.1433 0 .2721-.0266.3867-.0798.1187-.0532.2189-.1228.3007-.2087.0819-.09.1453-.1943.1903-.313.045-.1186.0675-.2455.0675-.3805s-.0225-.2619-.0675-.3805c-.045-.1187-.1084-.223-.1903-.313-.0818-.09-.182-.1616-.3007-.2148-.1146-.0532-.2434-.0798-.3867-.0798-.1432 0-.272.0266-.3866.0798s-.2128.1248-.2946.2148c-.0777.09-.1391.1943-.1841.313-.045.1186-.0675.2455-.0675.3805s.0225.2619.0675.3805c.045.1187.1064.223.1841.313.0818.0859.18.1555.2946.2087s.2434.0798.3866.0798zm3.7242-3.394c-.0491-.0164-.0982-.0286-.1473-.0368s-.1043-.0123-.1657-.0123c-.0573 0-.1145.0041-.1718.0123s-.1105.0307-.1596.0675c-.045.0327-.0818.0839-.1105.1534-.0286.0696-.0429.1678-.0429.2946v.5401h.7978v.448h-.7978v2.3384h-.534v-2.3384h-.6014v-.448h.6014v-.4848c0-.2537.0328-.4501.0982-.5892.0696-.1432.1535-.2496.2517-.3192.0981-.0695.2025-.1125.313-.1289.1104-.0163.2066-.0245.2884-.0245.0859 0 .1596.0082.221.0245.0654.0123.1186.0287.1595.0491zm3.6125 3.8052c-.0532.0082-.1248.0163-.2148.0245-.0859.0082-.1739.0123-.2639.0123-.0859 0-.18-.0082-.2823-.0245-.1023-.0164-.1984-.0553-.2885-.1167-.0859-.0654-.1595-.1636-.2209-.2946-.0573-.1309-.0859-.3109-.0859-.54v-1.3994h-.5156v-.448h.5156v-.939h.5339v.939h.7242v.448h-.7242v1.2827c0 .1351.0103.2435.0307.3253.0246.0778.0573.1391.0982.1842.0409.0409.088.0675.1412.0797.0573.0123.1207.0184.1902.0184.0573 0 .1207-.002.1903-.0061.0736-.0041.1309-.0102.1718-.0184zm.5699-4.2962h.5339v2.0008c.0818-.1718.2066-.3089.3744-.4112.1677-.1023.3703-.1534.6076-.1534.1964 0 .3641.0327.5032.0982.1392.0613.2496.1514.3315.27.0777.1064.1329.225.1657.356.0327.1309.0491.2946.0491.491v1.6448h-.534v-1.4791c0-.1269-.0123-.2455-.0368-.356-.0246-.1146-.0655-.2107-.1228-.2885-.0531-.0818-.1247-.1452-.2148-.1902-.09-.0491-.2004-.0737-.3314-.0737-.135 0-.2516.0266-.3498.0798s-.18.1248-.2455.2148c-.0655.086-.1146.1862-.1473.3008-.0327.1145-.0491.2332-.0491.3559v1.4362h-.5339zm4.6179 1.8474c-.2414 0-.4378.0695-.5892.2086-.1514.1351-.2312.3294-.2394.5831h1.6142c0-.2455-.0757-.4378-.2271-.5769-.1473-.1432-.3335-.2148-.5585-.2148zm-.8347 1.1968c.0041.1186.0225.2311.0552.3375.0369.1023.088.1944.1535.2762.0695.0777.1575.1411.2639.1902.1064.0451.2373.0676.3928.0676.2086 0 .3662-.043.4725-.1289.1105-.09.1883-.1944.2333-.313h.5401c-.0246.1186-.0696.2311-.1351.3375-.0654.1064-.1514.2005-.2577.2823-.1064.0819-.2312.1473-.3744.1964s-.3028.0737-.4787.0737c-.2332 0-.4378-.0389-.6138-.1166-.1759-.0778-.3212-.1821-.4357-.313-.1146-.131-.2005-.2844-.2578-.4603-.0573-.1801-.0859-.3703-.0859-.5708 0-.2087.0307-.403.0921-.5831.0613-.18.1493-.3355.2639-.4664.1186-.1309.2618-.2332.4296-.3069.1718-.0736.3682-.1104.5892-.1104.18 0 .3477.0327.5032.0982.1596.0613.2967.1493.4112.2639.1187.1145.2107.2496.2762.405.0655.1514.0982.3151.0982.491 0 .0409-.002.09-.0061.1473 0 .0573-.0062.1248-.0184.2026zm5.4213 1.252h-.6138l.8593-1.7062-1.6203-2.59h.6506l1.2581 2.0069 1.0127-2.0069h.6137zm3.151-2.4488c-.2414 0-.4378.0695-.5892.2086-.1514.1351-.2311.3294-.2393.5831h1.6141c0-.2455-.0757-.4378-.2271-.5769-.1473-.1432-.3334-.2148-.5585-.2148zm-.8347 1.1968c.0041.1186.0225.2311.0553.3375.0368.1023.0879.1944.1534.2762.0696.0777.1575.1411.2639.1902.1064.0451.2373.0676.3928.0676.2087 0 .3662-.043.4726-.1289.1105-.09.1882-.1944.2332-.313h.5401c-.0246.1186-.0696.2311-.135.3375-.0655.1064-.1514.2005-.2578.2823-.1064.0819-.2312.1473-.3744.1964s-.3028.0737-.4787.0737c-.2332 0-.4378-.0389-.6137-.1166-.176-.0778-.3212-.1821-.4358-.313-.1146-.131-.2005-.2844-.2578-.4603-.0572-.1801-.0859-.3703-.0859-.5708 0-.2087.0307-.403.0921-.5831.0614-.18.1493-.3355.2639-.4664.1186-.1309.2618-.2332.4296-.3069.1718-.0736.3682-.1104.5892-.1104.18 0 .3478.0327.5033.0982.1595.0613.2966.1493.4112.2639.1186.1145.2107.2496.2761.405.0655.1514.0982.3151.0982.491 0 .0409-.002.09-.0061.1473 0 .0573-.0061.1248-.0184.2026zm5.6181-1.5344v2.7864h-.5278v-.4849c-.09.1719-.225.3069-.4051.4051-.1759.0982-.3662.1473-.5707.1473-.2128 0-.4071-.0389-.5831-.1166-.1759-.0778-.3273-.1841-.4542-.3192-.1227-.135-.2189-.2905-.2884-.4664-.0696-.1759-.1043-.3621-.1043-.5585s.0347-.3826.1043-.5585c.0695-.18.1657-.3376.2884-.4726.1269-.135.2783-.2414.4542-.3191.176-.0778.3703-.1166.5831-.1166.2045 0 .3948.0491.5707.1473.1801.0982.3151.2332.4051.405v-.4787zm-1.473 2.3752c.1433 0 .2721-.0266.3867-.0798.1187-.0532.2189-.1228.3007-.2087.0819-.09.1453-.1943.1903-.313.045-.1186.0675-.2455.0675-.3805s-.0225-.2619-.0675-.3805c-.045-.1187-.1084-.223-.1903-.313-.0818-.09-.182-.1616-.3007-.2148-.1146-.0532-.2434-.0798-.3867-.0798-.1432 0-.272.0266-.3866.0798s-.2128.1248-.2946.2148c-.0777.09-.1391.1943-.1841.313-.045.1186-.0675.2455-.0675.3805s.0225.2619.0675.3805c.045.1187.1064.223.1841.313.0818.0859.18.1555.2946.2087s.2434.0798.3866.0798zm4.1531-1.8842c-.0573-.0123-.1044-.0205-.1412-.0245-.0327-.0041-.0736-.0062-.1227-.0062-.311 0-.5442.1003-.6997.3007-.1514.2005-.2271.4685-.2271.804v1.2214h-.5339v-2.7864h.5339v.5462c.0737-.1759.1964-.3171.3683-.4234.1759-.1105.3621-.1657.5585-.1657.1064 0 .1943.0143.2639.0429zm4.4015 2.2954-.2271-.6567h-1.743l-.221.6567h-.5892l1.4791-4.2962h.4051l1.4853 4.2962zm-1.0925-3.3817-.7058 2.2156h1.3993zm3.7705 1.1784-.7795 2.2033h-.3682l-1.0802-2.7864h.5708l.6935 1.964.6997-1.964h.5278l.6935 1.964.6997-1.964h.5707l-1.0801 2.7864h-.3683zm5.3561-.5831v2.7864h-.5279v-.4849c-.09.1719-.225.3069-.405.4051-.176.0982-.3662.1473-.5708.1473-.2128 0-.4071-.0389-.583-.1166-.176-.0778-.3274-.1841-.4542-.3192-.1228-.135-.2189-.2905-.2885-.4664-.0695-.1759-.1043-.3621-.1043-.5585s.0348-.3826.1043-.5585c.0696-.18.1657-.3376.2885-.4726.1268-.135.2782-.2414.4542-.3191.1759-.0778.3702-.1166.583-.1166.2046 0 .3948.0491.5708.1473.18.0982.315.2332.405.405v-.4787zm-1.473 2.3752c.1432 0 .2721-.0266.3866-.0798.1187-.0532.2189-.1228.3008-.2087.0818-.09.1452-.1943.1902-.313.045-.1186.0675-.2455.0675-.3805s-.0225-.2619-.0675-.3805c-.045-.1187-.1084-.223-.1902-.313-.0819-.09-.1821-.1616-.3008-.2148-.1145-.0532-.2434-.0798-.3866-.0798s-.2721.0266-.3867.0798c-.1145.0532-.2127.1248-.2946.2148-.0777.09-.1391.1943-.1841.313-.045.1186-.0675.2455-.0675.3805s.0225.2619.0675.3805c.045.1187.1064.223.1841.313.0819.0859.1801.1555.2946.2087.1146.0532.2435.0798.3867.0798zm4.153-1.8842c-.0573-.0123-.1043-.0205-.1411-.0245-.0328-.0041-.0737-.0062-.1228-.0062-.3109 0-.5442.1003-.6996.3007-.1514.2005-.2271.4685-.2271.804v1.2214h-.534v-2.7864h.534v.5462c.0736-.1759.1964-.3171.3682-.4234.176-.1105.3621-.1657.5585-.1657.1064 0 .1944.0143.2639.0429zm2.6178 1.8105c-.09.1719-.225.3069-.405.4051-.176.0982-.3662.1473-.5708.1473-.2128 0-.4071-.0389-.583-.1166-.176-.0778-.3274-.1841-.4542-.3192-.1228-.135-.2189-.2905-.2885-.4664-.0695-.1759-.1043-.3621-.1043-.5585s.0348-.3826.1043-.5585c.0696-.18.1657-.3376.2885-.4726.1268-.135.2782-.2414.4542-.3191.1759-.0778.3702-.1166.583-.1166.2046 0 .3948.0491.5708.1473.18.0982.315.2332.405.405v-1.9885h.5279v4.2962h-.5279zm-.9451.0737c.1432 0 .2721-.0266.3866-.0798.1187-.0532.2189-.1228.3008-.2087.0818-.09.1452-.1943.1902-.313.045-.1186.0675-.2455.0675-.3805s-.0225-.2619-.0675-.3805c-.045-.1187-.1084-.223-.1902-.313-.0819-.09-.1821-.1616-.3008-.2148-.1145-.0532-.2434-.0798-.3866-.0798s-.2721.0266-.3867.0798c-.1145.0532-.2127.1248-.2946.2148-.0777.09-.1391.1943-.1841.313-.045.1186-.0675.2455-.0675.3805s.0225.2619.0675.3805c.045.1187.1064.223.1841.313.0819.0859.1801.1555.2946.2087.1146.0532.2435.0798.3867.0798z"/></g><path d="m14.7949 28.4214s-.3921 1.1685-2.757 1.4205c-2.36492.2523-3.37384-.252-3.37384-.252s1.57664-1.2292 3.09014-1.2926c1.5136-.0631 3.0407.1241 3.0407.1241z"/><path d="m14.7966 28.4214s.178-1.2223-1.7805-2.5715c-1.9588-1.3489-3.08641-1.3864-3.08641-1.3864s.64711 1.6656 2.22341 2.6408c1.2882.7968 2.6435 1.3171 2.6435 1.3171z"/><path d="m11.993 27.5561s-1.206-.5441-3.02711-.5441c-1.82109 0-3.19245.9461-3.19245.9461s1.34783.5435 3.28724.5435c1.93902.0004 2.93232-.9455 2.93232-.9455z"/><path d="m9.76342 26.3975s-.09785-1.3195-.96697-2.9193c-.86912-1.6005-2.35504-2.3541-2.35504-2.3541s.16536 1.444 1.09108 3.1482c.92572 1.7038 2.23093 2.1252 2.23093 2.1252z"/><path d="m8.85527 26.2328s-1.04505-.8115-2.81534-1.2377c-1.77029-.4266-3.32509.1718-3.32509.1718s1.18315.8449 3.06868 1.2991c1.88486.4538 3.07175-.2332 3.07175-.2332z"/><path d="m7.28703 24.826s-.65056-1.1518-2.11875-2.2292c-1.46819-1.0775-3.13312-1.1266-3.13312-1.1266s.76512 1.236 2.3281 2.3837c1.56332 1.1473 2.92377.9721 2.92377.9721z"/><path d="m5.7301 22.4569s.44053-1.1794.32528-2.9077c-.1149-1.7287-1.09927-2.9712-1.09927-2.9712s-.43166 1.3141-.30925 3.1553c.12274 1.8402 1.08324 2.7236 1.08324 2.7236z"/><path d="m4.49536 21.3396s-.4528-1.0495-1.61447-2.1099c-1.16201-1.0607-2.587921-1.2561-2.587921-1.2561s.543156 1.1324 1.780521 2.2617c1.23701 1.1292 2.42187 1.1043 2.42187 1.1043z"/><path d="m3.79371 19.0135s-.05591-1.1419-.77194-2.5426c-.71602-1.4006-1.98271-2.0839-1.98271-2.0839s.11184 1.2506.87424 2.7423c.76239 1.4921 1.88041 1.8842 1.88041 1.8842z"/><path d="m3.30808 15.6066s.0982-1.1388-.42279-2.623c-.52134-1.4846-1.68437-2.3319-1.68437-2.3319s-.05762 1.2544.49713 2.8348c.55475 1.5814 1.61003 2.1201 1.61003 2.1201z"/><path d="m3.77902 13.3617s.5227-1.0164.60351-2.5875c.08081-1.57121-.67443-2.79629-.67443-2.79629s-.52918 1.13848-.61544 2.81159c-.08627 1.6735.68636 2.5722.68636 2.5722z"/><path d="m5.06559 10.6602s.6809-.91783 1.01607-2.4549c.33483-1.53707-.21106-2.86887-.21106-2.86887s-.7075 1.03755-1.06415 2.67452.25914 2.64925.25914 2.64925z"/><path d="m3.85566 17.5484s.85139-.7624 1.48763-2.2013.36858-2.8532.36858-2.8532-.90117.8749-1.57866 2.4069c-.67784 1.5323-.27755 2.6476-.27755 2.6476z"/><path d="m4.79297 12.4057s1.08802-.3502 2.25514-1.4052c1.16678-1.0549 1.49785-2.45558 1.49785-2.45558s-1.17905.43234-2.42152 1.55578c-1.24316 1.1235-1.33147 2.305-1.33147 2.305z"/><path d="m6.40345 9.25818s1.02972-.49713 2.03999-1.7021c1.01062-1.20565 1.14564-2.63872 1.14564-2.63872s-1.10813.59021-2.18455 1.87428c-1.07575 1.28373-1.00108 2.46654-1.00108 2.46654z"/><path d="m14.9587 29.161c0 1.5824-2.6032 3.3043-2.6032 2.4635s2.6032-1.9026 2.6032-2.4635z"/><path d="m79.5469 29.1611c0 1.5824 2.6032 3.3043 2.6032 2.4635s-2.6032-1.9026-2.6032-2.4635z"/><path d="m79.7109 28.4215s.3921 1.1685 2.7571 1.4205c2.3649.2523 3.3738-.252 3.3738-.252s-1.5766-1.2292-3.0901-1.2926c-1.5136-.0631-3.0408.1241-3.0408.1241z"/><path d="m79.7112 28.4215s-.1779-1.2223 1.7806-2.5715c1.9588-1.3489 3.0864-1.3864 3.0864-1.3864s-.6468 1.6656-2.2235 2.6408c-1.2885.7968-2.6435 1.3171-2.6435 1.3171z"/><path d="m82.5156 27.5561s1.2064-.5441 3.0268-.5441c1.8214 0 3.1931.9461 3.1931.9461s-1.3482.5435-3.2876.5435c-1.939.0004-2.9323-.9455-2.9323-.9455z"/><path d="m84.7422 26.3975s.0978-1.3195.9666-2.9193c.8691-1.6005 2.3551-2.3541 2.3551-2.3541s-.1654 1.444-1.0904 3.1482c-.9261 1.7038-2.2313 2.1252-2.2313 2.1252z"/><path d="m85.6523 26.2329s1.0448-.8115 2.8154-1.2377c1.7703-.4266 3.3251.1718 3.3251.1718s-1.1832.8449-3.0684 1.2991c-1.8852.4538-3.0721-.2332-3.0721-.2332z"/><path d="m87.2188 24.8261s.6509-1.1518 2.1187-2.2292c1.4685-1.0775 3.1335-1.1266 3.1335-1.1266s-.7648 1.236-2.3281 2.3837c-1.5634 1.1474-2.9241.9721-2.9241.9721z"/><path d="m88.7783 22.457s-.4405-1.1794-.3256-2.9077c.1153-1.7287 1.0996-2.9712 1.0996-2.9712s.4317 1.3141.3089 3.1553c-.1224 1.8402-1.0829 2.7236-1.0829 2.7236z"/><path d="m90.0117 21.3396s.4528-1.0495 1.6145-2.1099c1.162-1.0607 2.5882-1.2561 2.5882-1.2561s-.5438 1.1324-1.7808 2.2617c-1.2374 1.1292-2.4219 1.1043-2.4219 1.1043z"/><path d="m90.7109 19.0136s.0556-1.1419.772-2.5425c.7163-1.4007 1.9827-2.084 1.9827-2.084s-.1115 1.2506-.8739 2.7424c-.7624 1.492-1.8808 1.8841-1.8808 1.8841z"/><path d="m91.2027 15.6068s-.0985-1.1389.4225-2.6231c.521-1.4845 1.6844-2.3318 1.6844-2.3318s.0579 1.2544-.4975 2.8347c-.5544 1.5814-1.6094 2.1202-1.6094 2.1202z"/><path d="m90.7309 13.3617s-.5227-1.0164-.6038-2.5875c-.0805-1.57121.6744-2.79629.6744-2.79629s.5295 1.13848.6158 2.81159c.0859 1.6735-.6864 2.5722-.6864 2.5722z"/><path d="m89.4408 10.6604s-.6809-.91791-1.0157-2.45498c-.3348-1.53706.2107-2.86887.2107-2.86887s.7072 1.03755 1.0642 2.67452c.3573 1.63697-.2592 2.64933-.2592 2.64933z"/><path d="m90.655 17.5485s-.8521-.7624-1.4883-2.2013c-.6363-1.4389-.3686-2.8532-.3686-2.8532s.9011.8749 1.579 2.4069c.6775 1.5323.2779 2.6476.2779 2.6476z"/><path d="m89.71 12.4058s-1.088-.3502-2.2548-1.4051c-1.1674-1.05497-1.4982-2.45566-1.4982-2.45566s1.1787.43235 2.4219 1.55586c1.2425 1.1234 1.3311 2.3049 1.3311 2.3049z"/><path d="m88.1036 9.2583s-1.0294-.49713-2.0396-1.7021c-1.0107-1.20565-1.146-2.63872-1.146-2.63872s1.1088.59021 2.1849 1.87428c1.0761 1.28373 1.0007 2.46654 1.0007 2.46654z"/></g></svg>