<svg fill="none" height="28" viewBox="0 0 156 28" width="156" xmlns="http://www.w3.org/2000/svg"><g fill="#03bd80"><path d="m0 0h28v28h-28z"/><path d="m64 0h28v28h-28z"/><path d="m128 0h28v28h-28z"/><path d="m32 0h28v28h-28z"/><path d="m96 0h28v28h-28z"/></g><path d="m14 3 2.4697 7.6008h7.9919l-6.4656 4.6976 2.4696 7.6008-6.4656-4.6976-6.46564 4.6976 2.46964-7.6008-6.46562-4.6976h7.99192z" fill="#fff"/><path d="m46 3 2.4697 7.6008h7.9919l-6.4656 4.6976 2.4696 7.6008-6.4656-4.6976-6.4656 4.6976 2.4696-7.6008-6.4656-4.6976h7.9919z" fill="#fff"/><path d="m78 3 2.4697 7.6008h7.9919l-6.4656 4.6976 2.4696 7.6008-6.4656-4.6976-6.4656 4.6976 2.4696-7.6008-6.4656-4.6976h7.9919z" fill="#fff"/><path d="m110 3 2.47 7.6008h7.992l-6.466 4.6976 2.47 7.6008-6.466-4.6976-6.466 4.6976 2.47-7.6008-6.4656-4.6976h7.9916z" fill="#fff"/><path d="m142 3 2.47 7.6008h7.992l-6.466 4.6976 2.47 7.6008-6.466-4.6976-6.466 4.6976 2.47-7.6008-6.466-4.6976h7.992z" fill="#fff"/></svg>