<svg fill="none" height="64" viewBox="0 0 44 64" width="44" xmlns="http://www.w3.org/2000/svg" xmlns:xlink="http://www.w3.org/1999/xlink"><linearGradient id="a" gradientUnits="userSpaceOnUse" x1="42.3612" x2="12.4999" y1="7.07831" y2="7.07831"><stop offset="0" stop-color="#f5a623"/><stop offset=".47394" stop-color="#fa8829"/><stop offset="1" stop-color="#ff692f"/></linearGradient><path clip-rule="evenodd" d="m19.8403.112536c-1.3295.141287-2.8403.479721-4.2191.945294-7.62776 2.57547-13.05538 9.46847-13.86559 17.60927-.39462 3.9641.42765 7.5589 2.85516 12.4823 2.87003 5.821 8.43583 13.3074 14.71483 19.7923l2.147 2.2175.5387.8306.5383-.8306 2.147-2.2175c7.9368-8.1973 14.2198-17.3208 16.4873-23.9416 1.5216-4.4429 1.5667-8.4355.1445-12.8057-2.9965-9.20841-11.9752-15.092414-21.4881-14.081864zm5.1006 6.107434c2.8998.61964 5.147 1.86979 7.3068 4.06493 1.3401 1.3619 1.9931 2.2677 2.7803 3.8568 1.0437 2.1071 1.469 4.002 1.469 6.5469 0 3.1523-.7584 5.7001-2.483 8.342-.6655 1.0195-2.7918 3.1805-3.7948 3.8568-7.3771 4.9742-17.0123 2.4835-21.13959-5.4646-.56688-1.0916-1.02643-2.4168-1.3213-3.8105-.32593-1.5401-.32593-4.3073 0-5.8475.60543-2.8615 1.80204-5.1727 3.74699-7.2372 1.0794-1.14567 2.0312-1.9142 3.2847-2.6521 1.5496-.91224 3.5546-1.60421 5.3721-1.85394 1.1398-.1566 3.5942-.0547 4.7788.19841zm-4.8201 16.84433c0-.4252.0265-.8106.0797-1.1562.0532-.3455.1395-.6645.2592-.9568.1329-.2924.3123-.5649.5382-.8174s.5183-.4983.8771-.7376c.1861-.1329.3788-.2724.5781-.4186.1994-.1462.3788-.3123.5383-.4983.1727-.1861.3123-.3921.4186-.618.1063-.226.1595-.4785.1595-.7575 0-.5183-.1595-.8971-.4785-1.1363-.3189-.2525-.7176-.3788-1.196-.3788-.4652 0-.8705.1595-1.2161.4785-.3322.3056-.4983.8239-.4983 1.5549h-3.1896c0-.638.1063-1.2293.319-1.7742.2126-.5449.5249-1.0167.9369-1.4154.4253-.3987.9436-.711 1.5549-.9369.6113-.226 1.3091-.3389 2.0932-.3389.6379 0 1.2492.0864 1.8339.2591.5848.1595 1.0965.4054 1.535.7376.4386.3323.7908.7442 1.0566 1.236.2658.4917.3987 1.0632.3987 1.7144 0 .505-.0798.9502-.2393 1.3356-.1462.3721-.3322.6977-.5581.9768-.226.2791-.4652.5183-.7177.7176-.2392.1861-.4452.3522-.618.4984-.2525.1993-.4585.3788-.6179.5382-.1595.1595-.2924.3256-.3987.4984-.0931.1728-.1595.3721-.1994.598-.0398.2127-.0598.4785-.0598.7974zm-.4785 2.6115c0-.2791.0532-.5383.1595-.7775.1063-.2525.2525-.4718.4386-.6578.186-.1861.4053-.3323.6578-.4386s.525-.1595.8173-.1595c.2924 0 .5649.0532.8174.1595s.4718.2525.6578.4386c.1861.186.3323.4053.4386.6578.1063.2392.1595.4984.1595.7775s-.0532.5449-.1595.7974c-.1063.2392-.2525.4585-.4386.6578-.186.1861-.4053.3323-.6578.4386s-.525.1595-.8174.1595c-.2923 0-.5648-.0532-.8173-.1595s-.4718-.2525-.6578-.4386c-.1861-.1993-.3323-.4186-.4386-.6578-.1063-.2525-.1595-.5183-.1595-.7974zm-19.5829585 28.4874c.4714435-2.6776 3.1044885-4.8706 7.7559685-6.4594 1.3039-.4452 1.7081-.4591 2.37249-.0807.7998.4556 1.0994 1.4987.6806 2.3702-.2592.5391-.6627.7915-1.91714 1.1988-2.13429.6929-4.19565 1.8567-4.86873 2.7488-.58337.7732-.49054 1.3862.3322 2.194 2.0381 2.0008 7.12927 3.5743 13.15867 4.0668 1.8809.1536 6.1992.1542 8.0093.0012 5.8852-.4976 10.8741-1.9843 12.9137-3.8484 1.2501-1.1426 1.2994-1.7411.2285-2.7747-.8315-.8025-2.2295-1.5765-3.9302-2.1758-1.7515-.6173-2.0609-.7725-2.3563-1.1821-.3578-.496-.404-1.4952-.0918-1.9861.2773-.4362.802-.7778 1.3512-.8795.8243-.1527 4.348 1.2643 6.2477 2.5125 2.3166 1.5218 3.5484 3.7368 3.1828 5.723-.7041 3.8255-5.9834 6.7487-14.3046 7.9206-9.637 1.3573-20.4932-.1986-25.69031-3.6819-2.225842-1.4918-3.421178-3.6955-3.0740485-5.6673z" fill="url(#a)" fill-rule="evenodd"/></svg>